<?xml version="1.0" encoding="UTF-8" standalone="no"?>
<svg
   xmlns:dc="http://purl.org/dc/elements/1.1/"
   xmlns:cc="http://creativecommons.org/ns#"
   xmlns:rdf="http://www.w3.org/1999/02/22-rdf-syntax-ns#"
   xmlns:svg="http://www.w3.org/2000/svg"
   xmlns="http://www.w3.org/2000/svg"
   xmlns:sodipodi="http://sodipodi.sourceforge.net/DTD/sodipodi-0.dtd"
   xmlns:inkscape="http://www.inkscape.org/namespaces/inkscape"
   width="210mm"
   height="297mm"
   viewBox="0 0 210 297"
   version="1.1"
   id="svg8"
   inkscape:version="1.0.2-2 (e86c870879, 2021-01-15)"
   sodipodi:docname="asian woman.svg">
  <defs
     id="defs2">
    <inkscape:path-effect
       effect="bspline"
       id="path-effect1312"
       is_visible="true"
       lpeversion="1"
       weight="33.333333"
       steps="2"
       helper_size="0"
       apply_no_weight="true"
       apply_with_weight="true"
       only_selected="false" />
    <inkscape:path-effect
       effect="bspline"
       id="path-effect1289"
       is_visible="true"
       lpeversion="1"
       weight="33.333333"
       steps="2"
       helper_size="0"
       apply_no_weight="true"
       apply_with_weight="true"
       only_selected="false" />
    <inkscape:path-effect
       effect="bspline"
       id="path-effect1231"
       is_visible="true"
       lpeversion="1"
       weight="33.333333"
       steps="2"
       helper_size="0"
       apply_no_weight="true"
       apply_with_weight="true"
       only_selected="false" />
    <inkscape:path-effect
       effect="bspline"
       id="path-effect1227"
       is_visible="true"
       lpeversion="1"
       weight="33.333333"
       steps="2"
       helper_size="0"
       apply_no_weight="true"
       apply_with_weight="true"
       only_selected="false" />
    <inkscape:path-effect
       effect="bspline"
       id="path-effect1223"
       is_visible="true"
       lpeversion="1"
       weight="33.333333"
       steps="2"
       helper_size="0"
       apply_no_weight="true"
       apply_with_weight="true"
       only_selected="false" />
    <inkscape:path-effect
       effect="bspline"
       id="path-effect1151"
       is_visible="true"
       lpeversion="1"
       weight="33.333333"
       steps="2"
       helper_size="0"
       apply_no_weight="true"
       apply_with_weight="true"
       only_selected="false" />
    <inkscape:path-effect
       effect="bspline"
       id="path-effect1124"
       is_visible="true"
       lpeversion="1"
       weight="33.333333"
       steps="2"
       helper_size="0"
       apply_no_weight="true"
       apply_with_weight="true"
       only_selected="false" />
    <inkscape:path-effect
       effect="bspline"
       id="path-effect1091"
       is_visible="true"
       lpeversion="1"
       weight="33.333333"
       steps="2"
       helper_size="0"
       apply_no_weight="true"
       apply_with_weight="true"
       only_selected="false" />
    <inkscape:path-effect
       effect="powerstroke"
       id="path-effect1082"
       is_visible="true"
       lpeversion="1"
       offset_points="0,0.430731"
       sort_points="true"
       interpolator_type="CubicBezierJohan"
       interpolator_beta="0.2"
       start_linecap_type="zerowidth"
       linejoin_type="extrp_arc"
       miter_limit="4"
       scale_width="1"
       end_linecap_type="zerowidth" />
    <inkscape:path-effect
       effect="bspline"
       id="path-effect1080"
       is_visible="true"
       lpeversion="1"
       weight="33.333333"
       steps="2"
       helper_size="0"
       apply_no_weight="true"
       apply_with_weight="true"
       only_selected="false" />
    <inkscape:path-effect
       effect="powerstroke"
       id="path-effect1076"
       is_visible="true"
       lpeversion="1"
       offset_points="0,0.430731"
       sort_points="true"
       interpolator_type="CubicBezierJohan"
       interpolator_beta="0.2"
       start_linecap_type="zerowidth"
       linejoin_type="extrp_arc"
       miter_limit="4"
       scale_width="1"
       end_linecap_type="zerowidth" />
    <inkscape:path-effect
       effect="bspline"
       id="path-effect1074"
       is_visible="true"
       lpeversion="1"
       weight="33.333333"
       steps="2"
       helper_size="0"
       apply_no_weight="true"
       apply_with_weight="true"
       only_selected="false" />
    <inkscape:path-effect
       effect="powerstroke"
       id="path-effect1070"
       is_visible="true"
       lpeversion="1"
       offset_points="0,0.430731"
       sort_points="true"
       interpolator_type="CubicBezierJohan"
       interpolator_beta="0.2"
       start_linecap_type="zerowidth"
       linejoin_type="extrp_arc"
       miter_limit="4"
       scale_width="1"
       end_linecap_type="zerowidth" />
    <inkscape:path-effect
       effect="powerstroke"
       id="path-effect1064"
       is_visible="true"
       lpeversion="1"
       offset_points="0,0.430731"
       sort_points="true"
       interpolator_type="CubicBezierJohan"
       interpolator_beta="0.2"
       start_linecap_type="zerowidth"
       linejoin_type="extrp_arc"
       miter_limit="4"
       scale_width="1"
       end_linecap_type="zerowidth" />
    <inkscape:path-effect
       effect="bspline"
       id="path-effect1062"
       is_visible="true"
       lpeversion="1"
       weight="33.333333"
       steps="2"
       helper_size="0"
       apply_no_weight="true"
       apply_with_weight="true"
       only_selected="false" />
    <inkscape:path-effect
       effect="bspline"
       id="path-effect1035"
       is_visible="true"
       lpeversion="1"
       weight="33.333333"
       steps="2"
       helper_size="0"
       apply_no_weight="true"
       apply_with_weight="true"
       only_selected="false" />
    <inkscape:path-effect
       effect="bspline"
       id="path-effect1031"
       is_visible="true"
       lpeversion="1"
       weight="33.333333"
       steps="2"
       helper_size="0"
       apply_no_weight="true"
       apply_with_weight="true"
       only_selected="false" />
    <inkscape:path-effect
       effect="bspline"
       id="path-effect1027"
       is_visible="true"
       lpeversion="1"
       weight="33.333333"
       steps="2"
       helper_size="0"
       apply_no_weight="true"
       apply_with_weight="true"
       only_selected="false" />
    <inkscape:path-effect
       effect="bspline"
       id="path-effect1009"
       is_visible="true"
       lpeversion="1"
       weight="33.333333"
       steps="2"
       helper_size="0"
       apply_no_weight="true"
       apply_with_weight="true"
       only_selected="false" />
    <inkscape:path-effect
       effect="bspline"
       id="path-effect1005"
       is_visible="true"
       lpeversion="1"
       weight="33.333333"
       steps="2"
       helper_size="0"
       apply_no_weight="true"
       apply_with_weight="true"
       only_selected="false" />
    <inkscape:path-effect
       effect="bspline"
       id="path-effect1001"
       is_visible="true"
       lpeversion="1"
       weight="33.333333"
       steps="2"
       helper_size="0"
       apply_no_weight="true"
       apply_with_weight="true"
       only_selected="false" />
    <inkscape:path-effect
       effect="bspline"
       id="path-effect997"
       is_visible="true"
       lpeversion="1"
       weight="33.333333"
       steps="2"
       helper_size="0"
       apply_no_weight="true"
       apply_with_weight="true"
       only_selected="false" />
    <inkscape:path-effect
       effect="powerstroke"
       id="path-effect971"
       is_visible="true"
       lpeversion="1"
       offset_points="0.012357462,0.43073111"
       sort_points="true"
       interpolator_type="CubicBezierJohan"
       interpolator_beta="0.2"
       start_linecap_type="zerowidth"
       linejoin_type="extrp_arc"
       miter_limit="4"
       scale_width="1"
       end_linecap_type="zerowidth" />
    <inkscape:path-effect
       effect="bspline"
       id="path-effect969"
       is_visible="true"
       lpeversion="1"
       weight="33.333333"
       steps="2"
       helper_size="0"
       apply_no_weight="true"
       apply_with_weight="true"
       only_selected="false" />
    <inkscape:path-effect
       effect="bspline"
       id="path-effect965"
       is_visible="true"
       lpeversion="1"
       weight="33.333333"
       steps="2"
       helper_size="0"
       apply_no_weight="true"
       apply_with_weight="true"
       only_selected="false" />
    <inkscape:path-effect
       effect="bspline"
       id="path-effect961"
       is_visible="true"
       lpeversion="1"
       weight="33.333333"
       steps="2"
       helper_size="0"
       apply_no_weight="true"
       apply_with_weight="true"
       only_selected="false" />
    <inkscape:path-effect
       effect="bspline"
       id="path-effect957"
       is_visible="true"
       lpeversion="1"
       weight="33.333333"
       steps="2"
       helper_size="0"
       apply_no_weight="true"
       apply_with_weight="true"
       only_selected="false" />
    <inkscape:path-effect
       effect="bspline"
       id="path-effect953"
       is_visible="true"
       lpeversion="1"
       weight="33.333333"
       steps="2"
       helper_size="0"
       apply_no_weight="true"
       apply_with_weight="true"
       only_selected="false" />
    <inkscape:path-effect
       effect="bspline"
       id="path-effect949"
       is_visible="true"
       lpeversion="1"
       weight="33.333333"
       steps="2"
       helper_size="0"
       apply_no_weight="true"
       apply_with_weight="true"
       only_selected="false" />
    <inkscape:path-effect
       effect="bspline"
       id="path-effect945"
       is_visible="true"
       lpeversion="1"
       weight="33.333333"
       steps="2"
       helper_size="0"
       apply_no_weight="true"
       apply_with_weight="true"
       only_selected="false" />
    <inkscape:path-effect
       effect="bspline"
       id="path-effect941"
       is_visible="true"
       lpeversion="1"
       weight="33.333333"
       steps="2"
       helper_size="0"
       apply_no_weight="true"
       apply_with_weight="true"
       only_selected="false" />
    <inkscape:path-effect
       effect="powerstroke"
       id="path-effect937"
       is_visible="true"
       lpeversion="1"
       offset_points="0.044649686,0.1634528"
       sort_points="true"
       interpolator_type="CubicBezierJohan"
       interpolator_beta="0.2"
       start_linecap_type="zerowidth"
       linejoin_type="extrp_arc"
       miter_limit="4"
       scale_width="1"
       end_linecap_type="zerowidth" />
    <inkscape:path-effect
       effect="bspline"
       id="path-effect935"
       is_visible="true"
       lpeversion="1"
       weight="33.333333"
       steps="2"
       helper_size="0"
       apply_no_weight="true"
       apply_with_weight="true"
       only_selected="false" />
    <inkscape:path-effect
       effect="bspline"
       id="path-effect931"
       is_visible="true"
       lpeversion="1"
       weight="33.333333"
       steps="2"
       helper_size="0"
       apply_no_weight="true"
       apply_with_weight="true"
       only_selected="false" />
    <inkscape:path-effect
       effect="bspline"
       id="path-effect927"
       is_visible="true"
       lpeversion="1"
       weight="33.333333"
       steps="2"
       helper_size="0"
       apply_no_weight="true"
       apply_with_weight="true"
       only_selected="false" />
    <inkscape:path-effect
       effect="bspline"
       id="path-effect877"
       is_visible="true"
       lpeversion="1"
       weight="33.333333"
       steps="2"
       helper_size="0"
       apply_no_weight="true"
       apply_with_weight="true"
       only_selected="false" />
    <inkscape:path-effect
       effect="bspline"
       id="path-effect873"
       is_visible="true"
       lpeversion="1"
       weight="33.333333"
       steps="2"
       helper_size="0"
       apply_no_weight="true"
       apply_with_weight="true"
       only_selected="false" />
    <clipPath
       clipPathUnits="userSpaceOnUse"
       id="clipPath965">
      <rect
         style="fill:none;fill-rule:evenodd;stroke:#000000;stroke-width:0.0198362;stroke-linecap:round;stroke-linejoin:round;stroke-miterlimit:4;stroke-dasharray:none;stroke-opacity:1"
         id="rect967"
         width="50.54528"
         height="56.901295"
         x="55.038387"
         y="96.539635"
         ry="0.12032078" />
    </clipPath>
  </defs>
  <sodipodi:namedview
     id="base"
     pagecolor="#ffffff"
     bordercolor="#666666"
     borderopacity="1.0"
     inkscape:pageopacity="0.0"
     inkscape:pageshadow="2"
     inkscape:zoom="0.98994949"
     inkscape:cx="339.97613"
     inkscape:cy="625.20638"
     inkscape:document-units="mm"
     inkscape:current-layer="layer1"
     inkscape:document-rotation="0"
     showgrid="false"
     inkscape:snap-others="false"
     inkscape:object-nodes="false"
     inkscape:snap-nodes="false"
     inkscape:snap-global="false"
     inkscape:window-width="1920"
     inkscape:window-height="1137"
     inkscape:window-x="-8"
     inkscape:window-y="-8"
     inkscape:window-maximized="1" />
  <metadata
     id="metadata5">
    <rdf:RDF>
      <cc:Work
         rdf:about="">
        <dc:format>image/svg+xml</dc:format>
        <dc:type
           rdf:resource="http://purl.org/dc/dcmitype/StillImage" />
        <dc:title />
      </cc:Work>
    </rdf:RDF>
  </metadata>
  <g
     inkscape:label="Layer 1"
     inkscape:groupmode="layer"
     id="layer1"
     style="display:inline">
    <g
       id="g961"
       transform="matrix(3.9854056,0,0,3.9854056,-213.61838,-360.75886)"
       clip-path="url(#clipPath965)">
      <path
         style="fill:#f7dbcf;fill-opacity:1;fill-rule:evenodd;stroke-width:0;stroke-linecap:round;stroke-linejoin:round"
         d="m 65.056865,120.63087 c 0.706418,1.28489 2.119045,3.85429 3.077502,6.0624 0.958457,2.2081 1.462735,4.05468 1.35482,5.32902 -0.107914,1.27435 -0.827932,1.97665 -1.652563,2.85542 -0.824631,0.87877 -1.753802,1.93393 -2.871973,2.99698 -1.118171,1.06305 -2.425312,2.13396 -3.64032,3.42206 -1.215008,1.28809 -2.337747,2.79321 -2.665105,3.74634 -0.327359,0.95314 0.140354,1.35404 0.908779,1.69918 0.768426,0.34515 1.837481,0.63468 3.285191,0.82396 1.447711,0.18929 3.274018,0.27837 5.712883,0.42315 2.438866,0.14478 5.490131,0.34523 8.285361,0.67933 2.795231,0.33411 5.334243,0.80183 6.915594,1.08023 1.58135,0.27839 2.20496,0.36748 2.594565,-0.1447 0.389606,-0.51219 0.54551,-1.62579 1.213686,-3.18495 0.668176,-1.55917 1.848593,-3.56365 3.084728,-5.7241 1.236135,-2.16044 2.527912,-4.47673 3.864292,-6.41449 1.336379,-1.93776 2.717245,-3.4968 2.238505,-4.29861 -0.47874,-0.80181 -2.817303,-0.84636 -5.245054,-0.64592 -2.427752,0.20043 -4.94449,0.64587 -6.66383,0.85614 -1.71934,0.21026 -2.641238,0.18529 -3.390667,-0.20704 -0.749428,-0.39233 -1.326245,-1.15226 -1.221079,-2.55905 0.105166,-1.40679 0.89258,-3.46009 -0.106315,-4.15908 -0.998895,-0.69899 -3.784289,-0.0434 -6.390823,-0.30569 -2.606533,-0.26231 -5.034184,-1.44273 -6.570106,-2.19831 -1.535922,-0.75557 -2.180042,-1.08627 -2.502265,-1.25171 -0.322224,-0.16543 -0.322224,-0.16545 0.384194,1.11944 z"
         id="path1089"
         sodipodi:nodetypes="scccccccccccccccccccccccss" />
      <path
         style="fill:#f2f2f2;fill-opacity:1;fill-rule:evenodd;stroke-width:0;stroke-linecap:round;stroke-linejoin:round"
         d="m 67.45303,135.45719 c -0.346449,0.23622 -1.039408,0.70869 -1.976501,1.42529 -0.937092,0.7166 -2.118243,1.67727 -3.362453,2.93723 -1.24421,1.25996 -2.551353,2.81908 -3.378195,4.02394 -0.826842,1.20486 -1.173314,2.05529 -1.433161,3.12628 -0.259848,1.07099 -0.433085,2.36239 -0.417301,3.84284 0.01578,1.48046 0.220517,3.14982 0.314843,4.77286 0.09433,1.62304 0.07828,3.19968 -0.09681,4.70071 -0.175091,1.50104 -0.50917,2.92644 -0.186033,3.75046 0.323137,0.82403 1.303106,1.04675 3.508099,1.26945 2.204993,0.2227 5.634886,0.44541 9.599415,0.46767 3.964529,0.0223 8.463475,-0.15591 13.497104,-0.41205 5.033628,-0.25614 10.601633,-0.59022 13.831131,-0.8241 3.229502,-0.23387 4.120382,-0.3675 4.810692,-0.97993 0.69032,-0.61242 1.1803,-1.70374 1.36965,-3.853 0.18934,-2.14925 0.078,-5.35641 -0.25609,-9.1539 -0.33408,-3.79749 -0.89088,-8.18508 -1.53676,-11.49255 -0.64587,-3.30747 -1.38084,-5.53467 -2.071214,-6.96014 -0.69037,-1.42548 -1.33626,-2.04909 -2.093513,-2.46123 -0.757253,-0.41214 -1.625861,-0.61259 -2.906574,-0.66831 -1.280714,-0.0557 -2.973386,0.0334 -4.950107,0.26722 -1.976721,0.23385 -4.237329,0.61248 -5.378915,0.81575 -1.141586,0.20327 -1.163841,0.23108 -1.258524,0.44273 -0.09468,0.21165 -0.261719,0.60697 -0.647455,1.0867 -0.385736,0.47973 -0.990207,1.04397 -1.678296,1.6332 -0.68809,0.58923 -1.459777,1.20343 -2.61727,1.71526 -1.157493,0.51183 -2.700864,0.9213 -4.063127,1.14181 -1.362262,0.2205 -2.543415,0.252 -3.456834,0.15756 -0.913419,-0.0944 -1.559112,-0.31491 -1.98435,-0.50385 -0.425239,-0.18893 -0.629968,-0.34641 -0.732485,-0.42527 -0.102517,-0.0789 -0.102517,-0.0788 -0.448966,0.15737 z"
         id="path1229" />
      <path
         style="fill:#f4cdbc;fill-opacity:1;fill-rule:evenodd;stroke-width:0;stroke-linecap:round;stroke-linejoin:round"
         d="m 84.245613,122.42081 c 0.323036,1.77074 1.303027,4.42117 2.650536,7.78435 1.347508,3.36318 3.062452,7.43897 4.654949,11.16964 1.592497,3.73067 3.062452,7.11601 4.354338,9.28755 1.291887,2.17154 2.405487,3.12923 3.585935,3.63024 1.180449,0.50102 2.427679,0.54556 3.418649,-0.0892 0.99098,-0.63474 1.72595,-1.94878 1.92645,-3.60799 0.2005,-1.65921 -0.13358,-3.66369 -0.95761,-5.84641 -0.82404,-2.18272 -2.13809,-4.54356 -3.69715,-6.77084 -1.55905,-2.22728 -3.363081,-4.32085 -5.144918,-6.73743 -1.781837,-2.41658 -3.541329,-5.15604 -4.822035,-7.49466 -1.280706,-2.33862 -2.0825,-4.27628 -2.940011,-5.02259 -0.857512,-0.74631 -1.770663,-0.30087 -2.394376,0.36741 -0.623713,0.66828 -0.957792,1.55916 -0.634757,3.32991 z"
         id="path1149" />
      <path
         style="fill:#000000;fill-opacity:1;fill-rule:evenodd;stroke-width:0;stroke-linecap:round;stroke-linejoin:round"
         d="m 82.02096,102.91202 c 0.850574,0.90571 2.551469,2.71685 4.638198,5.78009 2.086729,3.06325 4.559272,7.37839 5.882141,9.88249 1.322868,2.5041 1.496104,3.19704 1.078759,3.79532 -0.417346,0.59829 -1.425263,1.10225 -2.06304,1.37 -0.637776,0.26774 -0.905502,0.29924 -1.44888,-0.4408 -0.543377,-0.74005 -1.362307,-2.25192 -1.693098,-2.48028 -0.330792,-0.22836 -0.173305,0.8268 -3.1e-5,1.62214 0.173275,0.79534 0.362261,1.3308 -0.02358,1.77947 -0.385844,0.44866 -1.346514,0.81088 -2.007945,1.0235 -0.661432,0.21262 -1.023646,0.27562 -1.385939,-0.34631 -0.362294,-0.62192 -0.724513,-1.92906 -0.90567,-2.03145 -0.181157,-0.10238 -0.181157,1.00003 -0.189038,1.71661 -0.0079,0.71658 -0.02363,1.0473 -0.480248,1.28339 -0.456616,0.23609 -1.354291,0.37783 -2.062969,0.43298 -0.708679,0.0551 -1.228387,0.0236 -1.315169,-0.52751 -0.08678,-0.55115 0.25969,-1.62206 0.535313,-3.13395 0.275624,-1.51189 0.480356,-3.46472 0.504001,-5.44122 0.02365,-1.97649 -0.133842,-3.97658 -0.511782,-5.85859 -0.37794,-1.88201 -0.97639,-3.64586 -1.503985,-5.19715 -0.527596,-1.55129 -0.984308,-2.88993 -0.937102,-3.81141 0.04721,-0.92149 0.598407,-1.42544 1.189138,-1.40956 0.59073,0.0159 1.220676,0.55133 1.535514,0.81894 0.314838,0.26761 0.314841,0.2676 1.165416,1.1733 z"
         id="path1029" />
      <path
         id="path1156"
         style="fill:#d79009;fill-opacity:1;fill-rule:evenodd;stroke-width:0.10915"
         d="m 92.129985,127.43817 c -0.02864,0.49304 -0.749202,1.50109 -1.707031,1.97852 -0.957829,0.47743 -3.460008,0.97136 -3.760241,0.18406 -0.300232,-0.78729 -0.283501,-1.01554 -0.723851,0.12221 -0.440351,1.13776 -0.129244,2.39553 1.487998,2.80505 1.617242,0.40952 4.843957,-0.59248 6.023853,-1.76204 1.179896,-1.16956 1.026025,-2.49316 0.35896,-3.19889 -0.667065,-0.70573 -1.359125,-0.91435 -1.661904,-1.04952 -0.30278,-0.13516 -0.39832,-0.0607 -0.234935,0.16891 0.163384,0.22965 0.245786,0.25866 0.217151,0.7517 z"
         sodipodi:nodetypes="zzzzzzzzzz" />
      <path
         id="path1156-2"
         style="fill:#e99c0a;fill-opacity:1;fill-rule:evenodd;stroke-width:0.129917"
         d="m 95.42403,132.42122 c -0.03409,0.58684 -0.891742,1.78668 -2.031803,2.35494 -1.140061,0.56826 -4.118293,1.15617 -4.475647,0.21908 -0.357353,-0.93707 -0.337438,-1.20876 -0.861568,0.14546 -0.52413,1.35422 -0.153834,2.8513 1.771098,3.33872 1.924931,0.48743 5.765547,-0.7052 7.169924,-2.09728 1.404378,-1.39207 1.221231,-2.96749 0.427254,-3.80749 -0.793978,-0.84 -1.617706,-1.08831 -1.97809,-1.2492 -0.360386,-0.16088 -0.474103,-0.0723 -0.279633,0.20105 0.194468,0.27335 0.292548,0.30788 0.258465,0.89472 z"
         sodipodi:nodetypes="zzzzzzzzzz" />
      <path
         style="fill:#ececec;fill-opacity:1;fill-rule:evenodd;stroke-width:0;stroke-linecap:round;stroke-linejoin:round"
         d="m 68.738528,133.74615 c 0.250712,0.0446 0.751849,0.13366 1.676151,0.17818 0.924302,0.0445 2.271759,0.0445 3.758405,-0.25062 1.486645,-0.29515 3.112503,-0.88535 4.30402,-1.52567 1.191518,-0.64032 1.948765,-1.33076 2.338507,-1.72601 0.389743,-0.39525 0.412005,-0.49544 0.623776,-0.47878 0.211771,0.0167 0.61267,0.1503 0.980147,0.22264 0.367477,0.0723 0.701554,0.0835 0.874042,0.15599 0.172488,0.0725 0.183624,0.20615 0.06108,0.52902 -0.122539,0.32286 -0.378668,0.83512 -0.812963,1.40859 -0.434295,0.57347 -1.046774,1.20822 -1.993327,1.91535 -0.946554,0.70714 -2.227193,1.48666 -3.608034,2.01564 -1.380842,0.52897 -2.861931,0.80737 -4.214953,0.87423 -1.353021,0.0669 -2.577983,-0.0779 -3.513418,-0.30059 -0.935436,-0.22267 -1.581328,-0.52334 -1.932176,-0.71814 -0.350847,-0.19479 -0.406535,-0.2839 -0.256286,-0.49565 0.150249,-0.21175 0.506602,-0.54583 0.757142,-0.8242 0.250539,-0.27837 0.395308,-0.50109 0.495539,-0.66257 0.100231,-0.16148 0.155896,-0.26167 0.183761,-0.31183 0.02787,-0.0502 0.02787,-0.0502 0.278582,-0.006 z"
         id="path1225" />
      <path
         id="path1233"
         style="fill:#fce2b0;fill-opacity:1;fill-rule:evenodd;stroke-width:0.210515"
         d="m 93.274992,127.35968 c -0.556244,0.90845 -1.211636,2.19702 -2.559103,2.88865 -1.190863,0.61105 -2.914557,0.62256 -3.981447,0.66697 0.795248,0.79022 2.608153,0.74704 4.26195,-0.10151 1.758446,-0.90239 2.755094,-2.41319 2.2786,-3.45411 z"
         sodipodi:nodetypes="ccccc" />
      <path
         id="path1233-3"
         style="fill:#fef2db;fill-opacity:1;fill-rule:evenodd;stroke-width:0.210515"
         d="m 96.788622,133.41194 c -0.556244,0.90845 -1.211636,2.19702 -2.559103,2.88865 -1.190863,0.61105 -2.914557,0.62256 -3.981447,0.66697 0.795248,0.79022 2.608153,0.74704 4.26195,-0.10151 1.758446,-0.90239 2.755094,-2.41319 2.2786,-3.45411 z"
         sodipodi:nodetypes="ccccc" />
      <path
         style="fill:#f6cfc0;fill-opacity:1;fill-rule:evenodd;stroke-width:0;stroke-linecap:round;stroke-linejoin:round"
         d="m 80.58182,105.07049 c 0.1671,0.46788 0.501186,1.40332 0.684883,2.2775 0.183697,0.87418 0.217105,1.68711 0.261658,2.38314 0.04455,0.69602 0.100234,1.2751 0.284049,1.88205 0.183815,0.60694 0.495623,1.24169 0.712723,2.0268 0.2171,0.7851 0.339596,1.72052 0.328422,2.68935 -0.01117,0.96883 -0.155942,1.97107 -0.361971,3.07355 -0.206029,1.10249 -0.473294,2.30518 -0.690455,3.19607 -0.217161,0.89089 -0.384203,1.46997 -0.618067,2.04345 -0.233865,0.57348 -0.534533,1.14141 -1.007734,1.55338 -0.473202,0.41197 -1.11909,0.6681 -1.826184,0.79063 -0.707094,0.12253 -1.475477,0.1114 -2.483319,0.0947 -1.007841,-0.0167 -2.255074,-0.039 -3.190508,-0.10576 -0.935434,-0.0668 -1.559049,-0.17815 -2.227248,-0.57895 -0.668199,-0.40081 -1.380902,-1.09124 -1.887669,-1.78167 -0.506766,-0.69042 -0.807437,-1.38086 -1.22506,-2.43325 -0.417624,-1.05239 -0.952151,-2.46666 -1.464425,-3.842 -0.512274,-1.37534 -1.002258,-2.71166 -1.375353,-4.03689 -0.373095,-1.32523 -0.62922,-2.63927 -0.400971,-3.81428 0.22825,-1.17501 0.940956,-2.21066 2.08252,-3.05707 1.141563,-0.84642 2.711739,-1.50344 4.081548,-1.93218 1.36981,-0.42874 2.53909,-0.62919 3.852485,-0.93146 1.313396,-0.30227 2.770829,-0.70632 3.84557,-0.71734 1.074741,-0.011 1.766524,0.37076 2.112264,0.56157 0.345741,0.19081 0.345741,0.19078 0.512842,0.65866 z"
         id="path995"
         sodipodi:nodetypes="ccccccccccccccccccccccccc" />
      <path
         style="fill:#000000;fill-opacity:1;fill-rule:evenodd;stroke-width:0;stroke-linecap:round;stroke-linejoin:round"
         d="m 80.241282,101.07729 c -0.173151,-0.31482 -0.51963,-0.94478 -1.291274,-1.598442 -0.771644,-0.65366 -1.968545,-1.330854 -3.464759,-1.567189 -1.496215,-0.236334 -3.291567,-0.0316 -5.094881,0.362117 -1.803314,0.393718 -3.614413,0.976419 -4.976768,1.590645 -1.362354,0.614229 -2.275775,1.259919 -3.110528,2.189179 -0.834754,0.92926 -1.590691,2.14191 -2.228533,3.69326 -0.637842,1.55134 -1.157548,3.44118 -1.630014,5.93746 -0.472465,2.49627 -0.897681,5.59877 -1.472537,8.36272 -0.574856,2.76395 -1.299294,5.18924 -1.425103,6.45699 -0.125808,1.26775 0.346653,1.37799 1.015982,1.46458 0.669329,0.0866 1.535503,0.14959 2.291475,0.25199 0.755972,0.10239 1.401669,0.24413 1.976332,-0.32281 0.574662,-0.56695 1.078623,-1.8426 1.480224,-2.85054 0.401601,-1.00794 0.700826,-1.74813 0.803214,-1.29134 0.102389,0.45679 0.0079,2.11041 -0.0551,3.11834 -0.063,1.00793 -0.0945,1.37015 0.464758,1.62204 0.559257,0.25189 1.708912,0.39363 2.661723,0.47235 0.952811,0.0787 1.708749,0.0944 2.070843,-0.55902 0.362095,-0.65347 0.330595,-1.97636 0.354202,-2.9607 0.02361,-0.98435 0.10235,-1.63005 0.244124,-1.07878 0.141774,0.55127 0.346507,2.29937 0.889988,3.23631 0.543481,0.93695 1.425409,1.06294 2.236458,1.08653 0.81105,0.0236 1.551239,-0.0552 1.692939,-0.54322 0.141699,-0.48806 -0.315012,-1.38573 -0.858337,-2.30706 -0.543326,-0.92133 -1.173277,-1.86626 -1.976481,-3.0317 -0.803205,-1.16544 -1.779621,-2.55132 -2.76397,-4.22073 -0.984349,-1.66941 -1.976518,-3.62225 -2.700996,-5.19716 -0.724478,-1.57491 -1.181189,-2.77181 -1.29151,-4.04754 -0.11032,-1.27574 0.12591,-2.63013 0.866157,-3.81931 0.740247,-1.18918 1.984391,-2.21284 3.543642,-2.96881 1.55925,-0.75597 3.433345,-1.24418 5.102799,-1.46464 1.669455,-0.22045 3.134084,-0.17321 4.260163,0.0867 1.126079,0.25995 1.913515,0.73242 2.283483,0.80334 0.369968,0.0709 0.322722,-0.2598 0.299076,-0.42531 -0.02365,-0.16552 -0.02364,-0.16547 -0.196788,-0.48029 z"
         id="path1025" />
      <path
         style="fill:#d7cacb;fill-opacity:1;fill-rule:evenodd;stroke-width:0;stroke-linecap:round;stroke-linejoin:round"
         d="m 69.45256,115.57038 c 0.08979,0.02 0.269081,0.0599 0.448268,0.0971 0.179187,0.0371 0.358317,0.0715 0.575508,0.0714 0.217192,-9e-5 0.472511,-0.0345 0.693451,-0.1043 0.22094,-0.0698 0.407584,-0.17485 0.569026,-0.28484 0.161442,-0.10999 0.297713,-0.22491 0.453499,-0.34035 0.155787,-0.11543 0.331026,-0.23135 0.454418,-0.30695 0.123393,-0.0756 0.194901,-0.11088 0.321559,-0.16706 0.126659,-0.0562 0.308492,-0.1333 0.362446,-0.20415 0.05395,-0.0709 -0.02017,-0.1358 -0.184091,-0.22909 -0.16392,-0.0933 -0.417705,-0.21483 -0.628952,-0.30687 -0.211246,-0.092 -0.37997,-0.15451 -0.631764,-0.19818 -0.251794,-0.0437 -0.586619,-0.0684 -0.903451,-0.0408 -0.316831,0.0276 -0.615531,0.10777 -0.890121,0.26249 -0.27459,0.15471 -0.524882,0.38397 -0.733101,0.62611 -0.208218,0.24215 -0.374298,0.49709 -0.484683,0.64192 -0.110385,0.14484 -0.165166,0.17967 -0.09953,0.23656 0.06564,0.0569 0.251478,0.13563 0.369531,0.17708 0.118052,0.0415 0.168259,0.0457 0.193226,0.0478 0.02497,0.002 0.02497,0.002 0.114758,0.0221 z"
         id="path871" />
      <path
         id="path847"
         style="fill:#221415;fill-opacity:1;fill-rule:evenodd;stroke-width:0.210464"
         d="m 72.112658,114.48322 a 0.8769781,0.8769781 0 0 1 -0.876978,0.87698 0.8769781,0.8769781 0 0 1 -0.876978,-0.87698 0.8769781,0.8769781 0 0 1 0.876978,-0.87698 0.8769781,0.8769781 0 0 1 0.876978,0.87698 z" />
      <path
         id="circle899"
         style="fill:#0b1114;fill-opacity:1;fill-rule:evenodd;stroke-width:0.124273"
         d="m 71.778569,114.42477 a 0.5178346,0.5178346 0 0 1 -0.517834,0.51783 0.5178346,0.5178346 0 0 1 -0.517835,-0.51783 0.5178346,0.5178346 0 0 1 0.517835,-0.51784 0.5178346,0.5178346 0 0 1 0.517834,0.51784 z" />
      <path
         style="fill:#d7cacb;fill-opacity:1;fill-rule:evenodd;stroke-width:0;stroke-linecap:round;stroke-linejoin:round"
         d="m 77.709307,112.37513 c 0.009,-0.0994 0.02716,-0.29848 0.109285,-0.5192 0.08213,-0.22072 0.228288,-0.46293 0.37377,-0.67037 0.145482,-0.20744 0.290246,-0.38004 0.47685,-0.51929 0.186604,-0.13924 0.414893,-0.24503 0.693395,-0.27282 0.278503,-0.0278 0.607011,0.0223 0.904222,0.0996 0.29721,0.0773 0.563085,0.1817 0.657582,0.27351 0.0945,0.0918 0.01793,0.17116 -0.130312,0.31105 -0.148244,0.13989 -0.368172,0.34034 -0.593662,0.51572 -0.22549,0.17539 -0.456564,0.32572 -0.688984,0.43986 -0.23242,0.11414 -0.466285,0.19209 -0.705702,0.2624 -0.239417,0.0703 -0.484397,0.13294 -0.626388,0.16913 -0.141991,0.0362 -0.180987,0.0459 -0.243568,0.0432 -0.06258,-0.003 -0.148887,-0.018 -0.192186,-0.0257 -0.0433,-0.008 -0.04335,-0.008 -0.0343,-0.10709 z"
         id="path875"
         sodipodi:nodetypes="scccccccccccsss" />
      <path
         id="path849"
         style="fill:#b1bfcb;fill-opacity:1;fill-rule:evenodd;stroke-width:0.264583"
         d="m 71.377671,114.25771 a 0.21715648,0.21715648 0 0 1 -0.217156,0.21716 0.21715648,0.21715648 0 0 1 -0.217157,-0.21716 0.21715648,0.21715648 0 0 1 0.217157,-0.21715 0.21715648,0.21715648 0 0 1 0.217156,0.21715 z" />
      <path
         id="path847-4"
         style="fill:#221415;fill-opacity:1;fill-rule:evenodd;stroke-width:0.198437"
         d="m 79.805007,111.30106 a 0.82686508,0.82686508 0 0 1 -0.826865,0.82687 0.82686508,0.82686508 0 0 1 -0.826865,-0.82687 0.82686508,0.82686508 0 0 1 0.826865,-0.82686 0.82686508,0.82686508 0 0 1 0.826865,0.82686 z" />
      <path
         id="path847-8"
         style="fill:#0b1114;fill-opacity:1;fill-rule:evenodd;stroke-width:0.124273"
         d="m 79.445859,111.21754 a 0.5178346,0.5178346 0 0 1 -0.517835,0.51783 0.5178346,0.5178346 0 0 1 -0.517834,-0.51783 0.5178346,0.5178346 0 0 1 0.517834,-0.51784 0.5178346,0.5178346 0 0 1 0.517835,0.51784 z" />
      <path
         id="path849-1"
         style="fill:#b1bfcb;fill-opacity:1;fill-rule:evenodd;stroke-width:0.264583"
         d="m 78.978143,111.20082 a 0.21715648,0.21715648 0 0 1 -0.217157,0.21716 0.21715648,0.21715648 0 0 1 -0.217156,-0.21716 0.21715648,0.21715648 0 0 1 0.217156,-0.21716 0.21715648,0.21715648 0 0 1 0.217157,0.21716 z" />
      <path
         style="fill:#ae8789;fill-opacity:1;fill-rule:evenodd;stroke-width:0;stroke-linecap:round;stroke-linejoin:round"
         d="m 72.004735,113.69893 c 0.08089,0.0279 0.24238,0.0836 0.420557,0.14204 0.178178,0.0585 0.373065,0.11971 0.509484,0.17544 0.136419,0.0557 0.21436,0.10584 0.18915,0.19484 -0.02521,0.089 -0.153276,0.21705 -0.320279,0.33953 -0.167003,0.12247 -0.373015,0.2394 -0.567939,0.38141 -0.194923,0.142 -0.378667,0.30904 -0.587387,0.42317 -0.20872,0.11413 -0.44258,0.17538 -0.754354,0.20047 -0.311775,0.0251 -0.701535,0.0139 -1.120533,-0.046 -0.418999,-0.0599 -0.867265,-0.16874 -0.95635,-0.16592 -0.08908,0.003 0.181,0.11718 0.396776,0.20219 0.215775,0.085 0.377263,0.14071 0.5777,0.17685 0.200437,0.0362 0.439861,0.0529 0.704319,0.0389 0.264458,-0.0139 0.553987,-0.0585 0.849039,-0.16152 0.295053,-0.10302 0.595725,-0.26449 0.871317,-0.44544 0.275593,-0.18095 0.526154,-0.3814 0.731868,-0.52166 0.205714,-0.14027 0.366485,-0.2203 0.411064,-0.32313 0.04458,-0.10283 -0.0271,-0.2288 -0.177479,-0.37813 -0.150375,-0.14933 -0.379542,-0.32191 -0.579994,-0.42223 -0.200452,-0.10031 -0.372188,-0.12818 -0.494356,-0.11989 -0.122167,0.008 -0.194532,0.0528 -0.216784,0.10591 -0.02225,0.0531 0.0056,0.11434 0.01944,0.1448 0.01385,0.0305 0.01385,0.0305 0.09474,0.0584 z"
         id="path943"
         sodipodi:nodetypes="sccccccccccccccccccccss" />
      <path
         style="fill:#000000;fill-opacity:1;fill-rule:evenodd;stroke-width:0;stroke-linecap:round;stroke-linejoin:round"
         d="m 72.661267,113.4727 c -0.08616,-0.05 -0.258753,-0.15024 -0.495417,-0.21157 -0.236663,-0.0613 -0.537337,-0.0836 -0.860353,-0.0363 -0.323016,0.0473 -0.668231,0.16422 -1.058064,0.38975 -0.389832,0.22552 -0.824132,0.5596 -1.177713,0.83523 -0.353581,0.27562 -0.626413,0.49277 -0.860169,0.60693 -0.233757,0.11415 -0.428634,0.12528 -0.462005,0.16435 -0.03337,0.0391 0.09468,0.10588 0.270074,0.15593 0.175392,0.05 0.398112,0.0835 0.637489,0.0695 0.239378,-0.014 0.495504,-0.0752 0.720927,-0.19212 0.225422,-0.11692 0.420303,-0.28953 0.620753,-0.47049 0.200451,-0.18097 0.406472,-0.37028 0.651546,-0.51508 0.245074,-0.1448 0.52903,-0.24502 0.804689,-0.31461 0.27566,-0.0696 0.542926,-0.10857 0.748946,-0.13919 0.20602,-0.0306 0.350794,-0.0529 0.431395,-0.10009 0.0806,-0.0472 0.09731,-0.11961 0.105689,-0.1559 0.0084,-0.0363 0.0084,-0.0363 -0.07779,-0.0863 z"
         id="path925" />
      <path
         style="fill:#ae8789;fill-opacity:1;fill-rule:evenodd;stroke-width:0;stroke-linecap:round;stroke-linejoin:round"
         d="m 78.244991,110.98648 c -0.08168,0.10303 -0.245028,0.30907 -0.36754,0.53185 -0.122512,0.22279 -0.204165,0.4622 -0.244966,0.64322 -0.0408,0.18101 -0.0408,0.3035 0.02338,0.3702 0.06418,0.0667 0.192238,0.0778 0.439962,0.0235 0.247724,-0.0543 0.615204,-0.17404 0.938155,-0.2854 0.322952,-0.11137 0.601343,-0.21438 0.879731,-0.34106 0.278388,-0.12667 0.556788,-0.27701 0.748823,-0.42451 0.192035,-0.14751 0.297826,-0.29228 0.372988,-0.44255 0.07516,-0.15028 0.119707,-0.30619 0.04456,-0.28679 -0.07515,0.0194 -0.270026,0.21429 -0.462109,0.3841 -0.192082,0.16982 -0.381394,0.31459 -0.565097,0.42594 -0.183704,0.11135 -0.361886,0.1893 -0.565129,0.28118 -0.203242,0.0919 -0.431529,0.19766 -0.665377,0.29232 -0.233847,0.0947 -0.473268,0.17818 -0.645852,0.2283 -0.172584,0.0501 -0.278375,0.0668 -0.336934,0.009 -0.05856,-0.0583 -0.0697,-0.19194 -0.0057,-0.39527 0.064,-0.20333 0.203196,-0.47616 0.297854,-0.67382 0.09466,-0.19765 0.144766,-0.32014 0.169851,-0.38146 0.02508,-0.0613 0.02509,-0.0613 -0.0566,0.0417 z"
         id="path947"
         sodipodi:nodetypes="sccccccccccccccccccs" />
      <path
         style="fill:#000000;fill-opacity:1;fill-rule:evenodd;stroke-width:0;stroke-linecap:round;stroke-linejoin:round"
         d="m 77.844339,111.53161 c 0.0034,-0.0467 0.02568,-0.0801 0.156548,-0.28337 0.130865,-0.20326 0.370291,-0.57632 0.718377,-0.87706 0.348086,-0.30074 0.804663,-0.52903 1.27522,-0.69607 0.470557,-0.16704 0.954971,-0.27283 1.31136,-0.32849 0.356389,-0.0557 0.584685,-0.0612 0.654134,0.10869 0.06945,0.16993 -0.01964,0.51515 -0.142133,0.79349 -0.122492,0.27833 -0.278399,0.48992 -0.445275,0.57346 -0.166875,0.0835 -0.345041,0.039 -0.567777,-0.0167 -0.222735,-0.0557 -0.489988,-0.1225 -0.785129,-0.15316 -0.295141,-0.0307 -0.61808,-0.0251 -0.854799,0.0111 -0.236719,0.0362 -0.38705,0.10298 -0.54302,0.21716 -0.155971,0.11417 -0.317442,0.27564 -0.443443,0.41975 -0.126001,0.14411 -0.216473,0.27077 -0.269314,0.3043 -0.05284,0.0335 -0.06817,-0.0264 -0.06475,-0.0731 z"
         id="path929"
         sodipodi:nodetypes="sccccccccccccss" />
      <path
         style="fill:#a02c2c;fill-opacity:1;fill-rule:evenodd;stroke-width:0;stroke-linecap:round;stroke-linejoin:round"
         d="m 75.718199,122.64618 c 0.09734,-0.10315 0.359043,-0.25349 0.565048,-0.38155 0.206005,-0.12806 0.35634,-0.23385 0.515001,-0.3786 0.158662,-0.14475 0.325699,-0.32849 0.503942,-0.46773 0.178244,-0.13924 0.367554,-0.2339 0.56529,-0.28956 0.197737,-0.0557 0.403752,-0.0724 0.581975,-0.0556 0.178223,0.0168 0.328555,0.0669 0.456465,0.039 0.127909,-0.0279 0.2337,-0.13368 0.328337,-0.25058 0.09464,-0.1169 0.17816,-0.24497 0.314685,-0.3369 0.136525,-0.0919 0.32584,-0.14761 0.534723,-0.14755 0.208883,7e-5 0.437159,0.0558 0.595846,0.11707 0.158687,0.0613 0.247771,0.12814 0.261514,0.21717 0.01374,0.089 -0.0475,0.20038 -0.10315,0.28385 -0.05565,0.0835 -0.105786,0.13918 -0.102939,0.24513 0.0028,0.10595 0.05853,0.26184 0.06959,0.47617 0.01107,0.21433 -0.02234,0.48717 -0.105876,0.74881 -0.08353,0.26163 -0.217165,0.51219 -0.389747,0.73208 -0.172581,0.21989 -0.384166,0.4092 -0.645762,0.52334 -0.261596,0.11414 -0.573408,0.15311 -0.932544,0.18096 -0.359136,0.0279 -0.7656,0.0446 -1.07738,0.0168 -0.31178,-0.0278 -0.528941,-0.10017 -0.748896,-0.22261 -0.219955,-0.12244 -0.442676,-0.29504 -0.634776,-0.4426 -0.192101,-0.14756 -0.353574,-0.27006 -0.46772,-0.35914 -0.114145,-0.0891 -0.180972,-0.14476 -0.08363,-0.24792 z"
         id="path963" />
      <path
         style="fill:#782121;fill-opacity:1;fill-rule:evenodd;stroke-width:0;stroke-linecap:round;stroke-linejoin:round"
         d="m 75.723708,122.72403 c 0.169955,-0.003 0.509617,-0.008 0.751732,-0.0557 0.242114,-0.0473 0.386897,-0.13645 0.509423,-0.20327 0.122526,-0.0668 0.222733,-0.11136 0.412129,-0.13361 0.189395,-0.0223 0.467794,-0.0223 0.7406,-0.0529 0.272807,-0.0306 0.540069,-0.0919 0.75437,-0.18097 0.2143,-0.0891 0.375771,-0.20602 0.517796,-0.28955 0.142024,-0.0835 0.26455,-0.13365 0.367475,-0.21156 0.102925,-0.0779 0.186442,-0.1837 0.289522,-0.27005 0.10308,-0.0864 0.225558,-0.15316 0.356429,-0.21999 0.13087,-0.0668 0.270053,-0.13363 0.342456,-0.16129 0.0724,-0.0277 0.07796,-0.0165 0.04168,0.0307 -0.03628,0.0472 -0.114227,0.1307 -0.242252,0.22533 -0.128025,0.0946 -0.306198,0.20043 -0.487184,0.32572 -0.180986,0.12529 -0.364731,0.27006 -0.537305,0.38698 -0.172575,0.11691 -0.334068,0.20601 -0.534478,0.28674 -0.20041,0.0807 -0.439847,0.15313 -0.687588,0.19212 -0.247741,0.039 -0.503864,0.0446 -0.693192,0.0529 -0.189327,0.008 -0.311821,0.0195 -0.467802,0.0696 -0.155982,0.0501 -0.345275,0.13918 -0.565165,0.20044 -0.219891,0.0613 -0.47045,0.0947 -0.648581,0.0919 -0.178131,-0.003 -0.283929,-0.0417 -0.336984,-0.0612 -0.05305,-0.0196 -0.05304,-0.0195 0.116915,-0.0223 z"
         id="path959" />
      <path
         id="path967"
         style="fill:#000000;fill-rule:nonzero;stroke:none;stroke-width:0.999999px;stroke-linecap:butt;stroke-linejoin:miter;stroke-opacity:1"
         d="m 274.59375,419.35938 c -0.55712,-0.002 -0.21634,-0.0135 -0.88086,0.0234 -0.66452,0.0369 -2.38662,0.25245 -3.99414,0.67383 -1.60752,0.42138 -3.44667,1.03898 -5.35547,1.79492 -1.9088,0.75594 -3.77122,1.60741 -5.36914,2.50196 -1.59792,0.89455 -3.08315,1.98291 -3.81641,2.5664 -0.73326,0.58349 -0.91385,0.7518 -1.28906,1.07617 -0.37521,0.32437 -0.68083,0.59394 -0.95312,0.81836 -0.27229,0.22442 -0.49065,0.3847 -0.6875,0.51172 -0.19685,0.12702 -0.3639,0.21463 -0.51953,0.27539 -0.15563,0.0608 -0.29414,0.0921 -0.4336,0.10547 -0.13946,0.0134 -0.50729,-0.0317 -0.39844,-0.0137 0.10885,0.018 0.25192,0.0585 0.39454,0.0879 0.14262,0.0294 0.29429,0.0503 0.48046,0.0449 0.18617,-0.005 0.39877,-0.0368 0.6504,-0.11133 0.25163,-0.0745 0.5349,-0.19025 0.86718,-0.36132 0.33228,-0.17107 0.70187,-0.39157 1.11914,-0.64649 0.41727,-0.25492 0.63203,-0.39392 1.41211,-0.85937 0.78008,-0.46545 2.31242,-1.33369 3.9043,-2.03321 1.59188,-0.69952 3.43984,-1.36549 5.34375,-1.9414 1.90391,-0.57591 3.70892,-1.01393 5.19726,-1.25196 1.48834,-0.23803 2.61403,-0.25602 3.45508,-0.20312 0.84105,0.0529 1.74707,0.24375 2.41797,0.29687 0.6709,0.0531 1.39216,-0.9813 1.44671,-1.62974 0.0545,-0.64844 -0.33146,-1.52861 -1.04241,-1.60072 -0.71095,-0.0721 -1.3921,-0.12348 -1.94922,-0.125 z"
         transform="scale(0.26458333)"
         sodipodi:nodetypes="zzzzzzzzzzzzzzzzzzzzzzzzzzz" />
      <path
         id="path967-7"
         style="fill:#000000;fill-rule:nonzero;stroke:none;stroke-width:0.154813px;stroke-linecap:butt;stroke-linejoin:miter;stroke-opacity:1"
         d="m 77.725918,109.31461 c 0.05925,-0.0612 0.0218,-0.0258 0.09586,-0.0932 0.07406,-0.0674 0.275817,-0.22601 0.482783,-0.34351 0.206968,-0.11747 0.455185,-0.23314 0.722493,-0.33729 0.267309,-0.10416 0.537724,-0.19003 0.783567,-0.24102 0.245839,-0.051 0.496,-0.0629 0.623399,-0.0624 0.127407,4.7e-4 0.160855,0.004 0.228212,0.008 0.06736,0.004 0.122701,0.007 0.170647,0.009 0.04795,0.001 0.08477,-4.1e-4 0.116472,-0.005 0.0317,-0.004 0.05691,-0.0101 0.07863,-0.0187 0.02172,-0.009 0.03916,-0.0194 0.05513,-0.0328 0.01615,-0.0131 0.05155,-0.0596 0.04121,-0.0456 -0.01001,0.0145 -0.02193,0.0356 -0.03465,0.0553 -0.01265,0.0197 -0.02715,0.0392 -0.04745,0.0587 -0.02017,0.0198 -0.04572,0.0384 -0.07877,0.0557 -0.03311,0.0172 -0.07307,0.0322 -0.12295,0.0448 -0.04987,0.0127 -0.107873,0.0226 -0.173864,0.033 -0.06598,0.0104 -0.125671,0.0502 -0.26273,0.11912 -0.137059,0.0689 -0.319394,0.25215 -0.548147,0.32943 -0.228753,0.0773 -0.456929,0.24572 -0.708537,0.37423 -0.251607,0.12852 -0.455985,0.35716 -0.634785,0.48697 -0.178806,0.1298 -0.300358,0.25041 -0.385592,0.34968 -0.08524,0.0993 -0.372164,0.14655 -0.557932,-0.0708 -0.185767,-0.21734 -0.110244,-0.35622 -0.0405,-0.44392 0.06973,-0.0877 0.138045,-0.1693 0.197334,-0.23042 z"
         sodipodi:nodetypes="zzzzzzzzzzzzzzzzzzzzzzzzzz" />
      <path
         style="fill:#92665d;fill-opacity:1;fill-rule:evenodd;stroke-width:0;stroke-linecap:round;stroke-linejoin:round"
         d="m 77.520533,111.19597 c -0.05908,0.28359 -0.177198,0.85055 -0.169251,1.3467 0.0079,0.49616 0.14181,0.92137 0.354463,1.39385 0.212652,0.47247 0.504005,0.99218 0.787496,1.47646 0.283492,0.48429 0.559094,0.93312 0.736213,1.32291 0.177118,0.3898 0.255861,0.72052 0.23611,1.03541 -0.01975,0.3149 -0.137868,0.61413 -0.334664,0.8424 -0.196795,0.22827 -0.472397,0.38575 -0.63779,0.48813 -0.165394,0.10238 -0.220541,0.14965 -0.169243,0.16144 0.0513,0.0118 0.208781,-0.0118 0.374065,-0.0827 0.165283,-0.0709 0.338522,-0.18899 0.507784,-0.35039 0.169263,-0.16139 0.334623,-0.36612 0.436988,-0.61014 0.102366,-0.24401 0.141738,-0.52749 0.09065,-0.81093 -0.05109,-0.28344 -0.192831,-0.56692 -0.366065,-0.89765 -0.173234,-0.33073 -0.377967,-0.7087 -0.63782,-1.15755 -0.259852,-0.44885 -0.574828,-0.96856 -0.799299,-1.44891 -0.224471,-0.48035 -0.358334,-0.92131 -0.389896,-1.37415 -0.03156,-0.45284 0.03931,-0.91743 0.06299,-1.18906 0.02368,-0.27163 6.8e-5,-0.35035 -0.01179,-0.38988 -0.01186,-0.0395 -0.01186,-0.0395 -0.07094,0.24408 z"
         id="path999" />
      <path
         style="fill:#92665d;fill-opacity:1;fill-rule:evenodd;stroke-width:0;stroke-linecap:round;stroke-linejoin:round"
         d="m 76.587426,119.68473 c 0,-0.0156 0,-0.0471 0.0945,-0.15356 0.0945,-0.10646 0.283482,-0.28757 0.480397,-0.42934 0.196916,-0.14177 0.401645,-0.24413 0.563184,-0.26765 0.161538,-0.0235 0.279649,0.0316 0.275544,0.12996 -0.0041,0.0984 -0.130097,0.24011 -0.291458,0.35425 -0.161362,0.11415 -0.358214,0.20076 -0.511749,0.26376 -0.153535,0.063 -0.263784,0.10237 -0.358232,0.11816 -0.09445,0.0158 -0.173154,0.008 -0.212669,0.004 -0.03952,-0.004 -0.03952,-0.004 -0.03952,-0.0196 z"
         id="path1003" />
      <path
         id="path1011"
         style="fill:#000000;fill-rule:evenodd;stroke-width:0.247103"
         d="m 70.389833,100.51262 a 6.3773843,10.386324 71.759385 0 0 -7.777447,9.31023 6.3773843,10.386324 71.759385 0 0 3.939674,3.21112 c -0.38893,-1.86371 -0.669887,-4.17179 -0.408851,-4.27082 0.319263,-0.12108 2.031486,2.85778 2.770905,4.63802 a 6.3773843,10.386324 71.759385 0 0 1.123886,0.008 c -0.456556,-1.92144 -0.838167,-4.79729 -0.546687,-4.90787 0.320645,-0.12164 2.045756,2.88399 2.779839,4.6614 a 6.3773843,10.386324 71.759385 0 0 2.239675,-0.57769 6.3773843,10.386324 71.759385 0 0 3.248593,-1.48747 c -0.481588,-1.91106 -0.909008,-5.03173 -0.6051,-5.14699 0.276275,-0.10478 1.585244,2.10308 2.4147,3.85562 a 6.3773843,10.386324 71.759385 0 0 1.020429,-0.97851 c -0.539182,-1.76563 -1.10377,-5.60363 -0.766133,-5.73172 0.258456,-0.098 1.421837,1.82902 2.250955,3.51365 a 6.3773843,10.386324 71.759385 0 0 0.247383,-3.34645 6.3773843,10.386324 71.759385 0 0 -11.898742,-2.76068 6.3773843,10.386324 71.759385 0 0 -0.03308,0.011 z" />
      <path
         style="fill:#ffffff;fill-opacity:1;fill-rule:nonzero;stroke:none;stroke-width:0.264583px;stroke-linecap:butt;stroke-linejoin:miter;stroke-opacity:1"
         d="m 68.039222,101.46291 c 0,0 -0.171115,-0.39528 -0.171115,-0.39528 -0.198415,0.0859 -0.477379,0.208 -0.745359,0.34842 -0.23145,0.12127 -0.493587,0.27555 -0.757196,0.47873 -0.236653,0.18239 -0.481313,0.40913 -0.718934,0.70157 -0.219363,0.26997 -0.433162,0.5963 -0.633113,1.00048 -0.188551,0.38113 -0.36287,0.82773 -0.524548,1.32718 -0.154876,0.47844 -0.297472,1.00358 -0.427754,1.55938 -0.25021,1.06741 -0.450262,2.22818 -0.598231,3.32363 -0.143702,1.06385 -0.232787,2.02469 -0.325416,2.96829 -0.09253,0.94259 -0.185967,1.83775 -0.337393,2.77065 -0.156293,0.96289 -0.368206,1.92662 -0.680839,2.82829 -0.334267,0.96407 -0.768297,1.81191 -1.331978,2.50516 -0.626825,0.77091 -1.418374,1.35288 -2.175138,1.81314 -0.915792,0.55696 -2.013176,1.06309 -2.679406,1.37083 0.646423,-0.2986 1.789177,-0.80857 2.700936,-1.33449 0.766669,-0.44223 1.58556,-1.00708 2.247903,-1.77023 0.598208,-0.68925 1.069594,-1.5384 1.443881,-2.50889 0.349921,-0.9073 0.598722,-1.87757 0.792993,-2.84602 0.188147,-0.93793 0.3181,-1.83805 0.446828,-2.77817 0.129267,-0.94405 0.252368,-1.88937 0.429441,-2.93781 0.182318,-1.0795 0.412732,-2.21271 0.689074,-3.24851 0.143697,-0.53861 0.297053,-1.04058 0.459445,-1.492 0.169971,-0.47249 0.345951,-0.87877 0.526185,-1.21168 0.189565,-0.35014 0.384317,-0.62028 0.574222,-0.83505 0.205336,-0.23222 0.412401,-0.40787 0.61012,-0.54795 0.221393,-0.15686 0.445187,-0.27873 0.652525,-0.37992 0.236943,-0.11563 0.506284,-0.22888 0.703982,-0.31447 0,0 -0.171115,-0.39528 -0.171115,-0.39528 z"
         id="path1060" />
      <path
         style="fill:#ffffff;fill-rule:nonzero;stroke:none;stroke-width:0.264583px;stroke-linecap:butt;stroke-linejoin:miter;stroke-opacity:1"
         d="m 71.862722,100.51804 c 0,0 -0.170278,-0.39564 -0.170278,-0.39564 -0.218781,0.0941 -0.60845,0.2648 -0.964589,0.49626 -0.296831,0.19292 -0.626177,0.45985 -0.93439,0.86333 -0.272486,0.35671 -0.523101,0.81398 -0.734394,1.31266 -0.197606,0.46637 -0.359465,0.96698 -0.460893,1.42512 -0.09914,0.44781 -0.137242,0.83976 -0.162956,1.25745 -0.02611,0.42414 -0.03849,0.84518 -0.08778,1.39402 -0.05017,0.55849 -0.136199,1.21794 -0.235203,1.82306 -0.05172,0.31611 -0.106629,0.61552 -0.162236,0.88301 -0.05819,0.2799 -0.116418,0.52145 -0.172677,0.71412 -0.05942,0.20348 -0.116832,0.35261 -0.171663,0.46494 -0.05929,0.12148 -0.116894,0.20255 -0.171634,0.25983 -0.02979,0.0312 -0.05923,0.0558 -0.08801,0.0757 -0.03085,0.0214 -0.06134,0.0376 -0.09079,0.0505 -0.0661,0.0288 -0.134974,0.0435 -0.188075,0.0534 0.04957,-0.009 0.125988,-0.0206 0.19264,-0.0411 0.03125,-0.01 0.06479,-0.0223 0.09972,-0.0402 0.03265,-0.0167 0.06715,-0.0384 0.103004,-0.0672 0.06609,-0.0531 0.13786,-0.13128 0.213079,-0.25222 0.06942,-0.11161 0.142608,-0.26086 0.218616,-0.4649 0.07186,-0.19291 0.146201,-0.43436 0.221235,-0.71353 0.07178,-0.26706 0.143346,-0.56553 0.212472,-0.88119 0.132492,-0.60501 0.253389,-1.26176 0.340672,-1.82497 0.08432,-0.54406 0.134587,-0.98624 0.194999,-1.38831 0.06066,-0.40375 0.131014,-0.76273 0.254917,-1.16612 0.128227,-0.41744 0.310616,-0.8719 0.523139,-1.29206 0.228892,-0.45252 0.478393,-0.83759 0.723907,-1.11543 0.26758,-0.30281 0.542545,-0.49247 0.788446,-0.63034 0.29462,-0.16518 0.657602,-0.30935 0.879,-0.40464 0,0 -0.170278,-0.39564 -0.170278,-0.39564 z"
         id="path1072" />
      <path
         style="fill:#ffffff;fill-rule:nonzero;stroke:none;stroke-width:0.264583px;stroke-linecap:butt;stroke-linejoin:miter;stroke-opacity:1"
         d="m 82.686508,105.60487 c 0,0 -0.350988,0.24967 -0.350988,0.24967 0.309698,0.43537 0.712451,0.98367 1.135331,1.58585 0.325221,0.46311 0.669648,0.97098 0.954342,1.45305 0.253227,0.4288 0.465048,0.84532 0.636591,1.32106 0.16223,0.44992 0.291736,0.96016 0.398932,1.62625 0.104526,0.64952 0.185962,1.43314 0.255113,2.28507 0.06878,0.84731 0.124554,1.75198 0.177864,2.61913 0.0557,0.90598 0.10671,1.73725 0.16279,2.48045 0.02892,0.38325 0.05832,0.73097 0.08909,1.04041 0.03214,0.3232 0.06531,0.59981 0.100217,0.82863 0.03689,0.24179 0.07545,0.42914 0.113775,0.57815 0.04149,0.16131 0.08341,0.28029 0.123076,0.3723 0.04425,0.10263 0.08777,0.17621 0.125688,0.23305 0.04086,0.0612 0.09233,0.12649 0.120633,0.16491 -0.03236,-0.0439 -0.07212,-0.10109 -0.10933,-0.17165 -0.03172,-0.0601 -0.06522,-0.13636 -0.09736,-0.24093 -0.02874,-0.0935 -0.05753,-0.21319 -0.08448,-0.37429 -0.02489,-0.14884 -0.04863,-0.3355 -0.06972,-0.57623 -0.01996,-0.22789 -0.03738,-0.50367 -0.05289,-0.82645 -0.01485,-0.30898 -0.02772,-0.65639 -0.03942,-1.03952 -0.0227,-0.74345 -0.03964,-1.57415 -0.0588,-2.48216 -0.01831,-0.86805 -0.03808,-1.77734 -0.07118,-2.63154 -0.03321,-0.85702 -0.07975,-1.65782 -0.1519,-2.33053 -0.0744,-0.69368 -0.175885,-1.24708 -0.321157,-1.75186 -0.154551,-0.53702 -0.355959,-1.00719 -0.601278,-1.4812 -0.273062,-0.5276 -0.607671,-1.07131 -0.921728,-1.55463 -0.39095,-0.60164 -0.824245,-1.22181 -1.112231,-1.62666 0,0 -0.350988,0.24967 -0.350988,0.24967 z"
         id="path1078" />
      <path
         id="path1084"
         style="fill:#f0c8c8;fill-opacity:1;fill-rule:evenodd;stroke-width:0.619946"
         transform="matrix(0.98297088,-0.18376137,0.23605858,0.97173883,0,0)"
         d="m 47.573871,135.51219 a 0.56918615,0.22742884 0 0 1 -0.569187,0.22743 0.56918615,0.22742884 0 0 1 -0.569186,-0.22743 0.56918615,0.22742884 0 0 1 0.569186,-0.22743 0.56918615,0.22742884 0 0 1 0.569187,0.22743 z" />
      <path
         id="path1086"
         style="fill:#ffbfbf;fill-opacity:1;fill-rule:evenodd;stroke-width:0.264583"
         transform="rotate(-21.801411)"
         d="m 29.709729,141.99345 a 0.27562168,0.0918739 0 0 1 -0.275622,0.0919 0.27562168,0.0918739 0 0 1 -0.275622,-0.0919 0.27562168,0.0918739 0 0 1 0.275622,-0.0919 0.27562168,0.0918739 0 0 1 0.275622,0.0919 z" />
    </g>
  </g>
</svg>
