<?xml version="1.0" encoding="utf-8"?>
<svg version="1.1" id="Layer_1" xmlns="http://www.w3.org/2000/svg" xmlns:xlink="http://www.w3.org/1999/xlink" x="0px" y="0px"
	 viewBox="0 0 1147.401 1644.75" enable-background="new 0 0 1147.401 1644.75" xml:space="preserve">
<g>
	<path fill="#B3B0AB" stroke="#B3B0AB" stroke-width="0.5" d="M846.928,23.805c9.383-1.811,19.13-1.899,28.563-0.277
		c21.356,4.867,42.788,9.471,64.195,14.124c5.031,0.918,9.232,3.924,13.194,6.98c-9.659-0.994-18.74-4.754-28.362-5.911
		c9.936,5.27,22.463,5.182,30.613,13.697c10.477,9.27,21.105,18.363,31.745,27.444c10.917,9.823,22.966,18.627,31.645,30.651
		c0.453-0.641,1.346-1.912,1.798-2.553c0.151,0.541,0.465,1.635,0.629,2.176c1.258,9.534,4.716,18.526,7.232,27.746
		c4.478,15.609,9.031,31.204,13.533,46.8c1.686,6.188,4.44,12.326,3.937,18.879c-0.528,7.949-2.465,15.734-3.081,23.671
		c-0.214,2.063,0.428,4.05,1.006,6.012c3.446-5.106,6.289-10.578,9.307-15.948c-0.629,9.861,0.126,20.161-3.849,29.456
		c5.949-2.604,11.936,1.182,17.747,2.427c0.239-6.226,0.365-12.464-0.34-18.665c1.786,0.641,3.597,1.308,5.421,1.975
		c0.49,0.252,1.484,0.729,1.975,0.981c-4.063,15.156-9.031,30.06-13.005,45.253c3.849,0.654,7.71,1.283,11.596,1.924
		c-2.289,7.295-6.503,13.734-9.584,20.69c-1.887,3.496-3.169,7.609-6.339,10.188c-2,0.239-4.012,0.39-5.987,0.566
		c1.182,6.98,2.616,13.923,4.088,20.853c3.031,12.779,0.629,25.935-0.34,38.814c-10.98-4.842-21.96-9.697-32.978-14.426
		c-6.528-2.83-13.508-5.132-18.828-10.024c-14.439-12.867-28.991-25.582-43.48-38.386c-5.848-5.194-13.533-7.383-20.815-9.697
		c-8.138-9.622-19.193-15.86-29.18-23.268c-19.168-13.508-38.172-27.268-57.428-40.65c-19.91-11.772-40.046-23.18-60.032-34.827
		c-7.697-4.691-15.948-8.54-22.979-14.238c-16.828-13.395-33.695-26.752-50.586-40.059c-3.534-2.604-5.911-6.44-9.509-8.93
		c0.553-0.101,1.673-0.289,2.239-0.39c-2.754-5.786-5.521-11.571-7.836-17.545c2.604-3.635,6.264-10.905,11.634-6.905
		c4,2.83,7.798,5.949,11.747,8.867c4.591-4.767,9.257-9.471,13.659-14.414c-2.453-3.346-4.905-6.679-7.396-9.986
		c6.93-2.214,16.451-1.308,20.526-8.49c5.283-8.163,10.024-16.665,15.508-24.702c2.993-4.452,5.295-9.672,9.924-12.741
		c7.383-5.22,15.042-10.049,22.35-15.395c3.572-2.616,7.383-5.22,11.898-5.823C824.112,27.804,835.533,25.855,846.928,23.805
		 M825.697,39.061c-7.773,1.874-16.137,2.578-22.903,7.232c-11.257,7.345-23.381,13.382-34.236,21.319
		c13.018-4.415,24.463-12.628,37.682-16.552c13.936-2.868,28.098-4.44,42.109-6.93c7.257-0.729,14.539-3.66,21.847-2.277
		c9.282,3.572,18.313,7.811,27.62,11.382c13.319,4.767,23.344,15.131,34.789,23.004c6.276,5.421,14.917,8.766,18.627,16.627
		c8.892,17.923,17.772,35.845,26.878,53.668c2.993,6.477,2.981,13.772,4.289,20.69c2.276,13.42,3.383,27.041,6.263,40.348
		c-0.478-16.074-2.918-32.009-3.786-48.058c-0.34-8.968-4.188-17.181-6.603-25.67c-2.755-9.358-5.899-18.602-8.578-27.972
		c-1.887-6.087-3.195-12.703-7.634-17.558c-8.741-9.747-16.803-20.086-25.218-30.11c-2.553-3.144-6.251-4.943-9.848-6.578
		c-9.093-4.113-17.784-9.031-26.739-13.395c-4.1-2.025-8.766-1.887-13.206-1.949c-13.873,0.138-27.683-2-41.556-1.258
		C838.752,35.602,832.288,37.728,825.697,39.061 M967.368,88.263c0.918,7.081,3.836,13.646,5.811,20.463
		c6.855,22.023,14.376,43.87,20.841,66.006c0.968,16.363-0.05,32.814,0.44,49.215c2.93-4.842,5.547-9.861,8.163-14.879
		c1.786,6.502,0.025,13.219,0.189,19.834c2.717-0.629,5.446-1.283,8.188-1.937c-0.013-11.307,0.993-22.752-0.503-33.984
		c-0.05-0.767-0.126-2.327-0.176-3.107l1.157-0.226c-1.145-10.074,1.094-20.338-1.044-30.286
		c-3.434-10.603-7.798-20.866-11.345-31.418c-1.962-5.282-3.207-11.131-7.219-15.332c-4.276-4.54-8.59-9.043-12.829-13.596
		c-3.408-3.534-6.364-7.722-10.955-9.823L967.368,88.263 M873.302,103.859c6.893,10.288,14.3,20.237,21.444,30.349
		c3.635,5.333,8.452,10.188,9.835,16.715c3.258,13.445,6.628,26.865,10.049,40.285c2.214,8.754,2.063,17.847,3.258,26.765
		c2.956-4.679,3.371-10.301,4.44-15.596c2.314-12.665,4.88-25.293,7.257-37.946c1.082-3.824-1.258-7.219-3.018-10.376
		c-4.566-7.723-8.754-15.659-13.244-23.419c-2.453-4.289-7.157-6.326-11.118-8.892C892.458,115.946,883.226,109.331,873.302,103.859
		 M962.451,266.409c-3.044,7.182-6.804,14.036-9.609,21.306c0.264,0.189,0.792,0.579,1.056,0.767
		c4.905-1.006,11.143-2.113,13.345-7.27c2.239-4.415,4.666-8.741,6.892-13.181c2.993-6.025,1.912-12.98,1.698-19.445
		C970.148,253.48,965.331,259.429,962.451,266.409z"/>
	<path fill="#FEFEFD" stroke="#FEFEFD" stroke-width="0.5" d="M875.491,23.528c5.924-0.792,11.873,0.39,17.835,0.239
		c10.741,0.189,21.885-0.767,32.16,3.081c9.622,3.509,19.356,6.666,29.129,9.76c9.257,2.704,15.998,9.924,23.683,15.344
		c10.137,7.924,20.413,15.659,30.613,23.507c9.81,7.697,17.835,17.344,26.299,26.438c4.54,4.717,9.471,9.181,12.867,14.866
		c5.521,9.169,11.081,18.325,16.426,27.607c3.597,6.213,8.263,12.125,9.37,19.432c2.012,12.25,3.949,24.513,6.188,36.726
		c2.528,11.269-3.584,21.771-6.024,32.462c-0.554-0.126-1.635-0.377-2.176-0.503c-1.824-0.667-3.635-1.333-5.421-1.975
		c-0.692-1.811-1.459-3.635-1.597-5.572c-0.629-14.187,0.742-28.463-0.578-42.612c-2.931-12.213-6.452-24.312-10.112-36.336
		c-1.723-6.339-2.868-12.829-4.968-19.055c-1.635-4.993-6.037-8.213-9.597-11.772c-8.968-8.263-17.47-17.042-26.802-24.903
		c-6.741-7.068-13.558-14.187-21.671-19.696c-12.665-8.754-25.192-17.747-38.235-25.935c-3.962-3.056-8.163-6.062-13.194-6.98
		C918.279,32.999,896.847,28.395,875.491,23.528z"/>
	<path fill="#97948F" stroke="#97948F" stroke-width="0.5" d="M825.697,39.061c6.591-1.333,13.055-3.459,19.797-4.037
		c13.873-0.742,27.683,1.396,41.556,1.258c4.44,0.063,9.106-0.075,13.206,1.949c8.955,4.364,17.646,9.282,26.739,13.395
		c3.597,1.635,7.295,3.434,9.848,6.578c8.414,10.024,16.476,20.363,25.218,30.11c4.44,4.855,5.748,11.471,7.634,17.558
		c2.679,9.37,5.823,18.614,8.578,27.972c2.415,8.49,6.263,16.703,6.603,25.67c0.868,16.049,3.308,31.984,3.786,48.058
		c-2.88-13.307-3.987-26.928-6.263-40.348c-1.308-6.918-1.296-14.212-4.289-20.69c-9.106-17.822-17.986-35.745-26.878-53.668
		c-3.71-7.861-12.351-11.206-18.627-16.627c-11.445-7.873-21.469-18.237-34.789-23.004c-9.307-3.572-18.338-7.811-27.62-11.382
		c-7.307-1.384-14.59,1.547-21.847,2.277c-14.011,2.49-28.173,4.062-42.109,6.93c-13.219,3.924-24.664,12.137-37.682,16.552
		c10.854-7.936,22.979-13.973,34.236-21.319C809.56,41.639,817.924,40.935,825.697,39.061z"/>
	<path fill="#97948F" stroke="#97948F" stroke-width="0.5" d="M924.517,38.721c9.622,1.157,18.703,4.918,28.362,5.911
		c13.043,8.188,25.57,17.181,38.235,25.935c8.112,5.509,14.929,12.628,21.671,19.696c4.691,9.911,12.779,17.533,19.143,26.324
		c7.873,9.458,13.823,20.375,22.224,29.406c3.66,12.024,7.182,24.123,10.112,36.336c1.321,14.15-0.05,28.425,0.578,42.612
		c0.138,1.937,0.906,3.761,1.597,5.572c0.704,6.201,0.578,12.439,0.34,18.665c-5.811-1.245-11.798-5.031-17.747-2.427
		c3.974-9.295,3.22-19.596,3.849-29.456c2.188-4.729,5.949-9.345,5.107-14.892c-1.321-10.615-3.17-21.155-4.679-31.745
		c-0.931-8.439-6.691-15.055-10.439-22.35c-6.842-12.992-14.653-25.419-21.922-38.172c-0.164-0.541-0.478-1.635-0.629-2.176
		c-0.453,0.641-1.346,1.912-1.798,2.553c-8.678-12.024-20.727-20.828-31.645-30.651c-10.64-9.081-21.268-18.174-31.745-27.444
		C946.981,43.903,934.453,43.991,924.517,38.721z"/>
	<path fill="#FEFEFE" stroke="#FEFEFE" stroke-width="0.5" d="M967.368,88.263l0.717,0.931c6.024,7.559,9.861,16.489,14.791,24.74
		c4.855,9.546,10.98,18.589,13.936,28.978c4.603,15.634,9.119,31.28,13.508,46.964c0.05,0.78,0.126,2.339,0.176,3.107
		c-2.755,5.295-5.421,10.64-7.873,16.086c-2.616,5.018-5.232,10.037-8.163,14.879c-0.491-16.401,0.528-32.852-0.44-49.215
		c-6.465-22.136-13.986-43.983-20.841-66.006C971.205,101.91,968.286,95.345,967.368,88.263z"/>
	<path fill="#97948F" stroke="#97948F" stroke-width="0.5" d="M968.085,89.194c4.591,2.1,7.546,6.289,10.955,9.823
		c4.239,4.553,8.552,9.056,12.829,13.596c4.012,4.201,5.257,10.049,7.219,15.332c3.547,10.552,7.911,20.816,11.345,31.418
		c2.138,9.949-0.101,20.212,1.044,30.286l-1.157,0.226c-4.389-15.684-8.905-31.33-13.508-46.964
		c-2.956-10.389-9.081-19.432-13.936-28.978C977.946,105.683,974.11,96.753,968.085,89.194z"/>
	<path fill="#97948F" stroke="#97948F" stroke-width="0.5" d="M714.488,112.412c5.685-6.49,8.288-14.917,13.256-21.897
		c1.56,2.138,3.157,4.251,4.754,6.364c2.49,3.308,4.943,6.641,7.396,9.986c-4.402,4.943-9.068,9.647-13.659,14.414
		C722.286,118.361,718.488,115.242,714.488,112.412z"/>
	<path fill="#B2B0AB" stroke="#B2B0AB" stroke-width="0.5" d="M1012.785,90.263c9.332,7.861,17.835,16.64,26.802,24.903
		c3.559,3.559,7.961,6.779,9.597,11.772c2.1,6.226,3.245,12.716,4.968,19.055c-8.402-9.031-14.351-19.948-22.224-29.406
		C1025.564,107.796,1017.477,100.174,1012.785,90.263z"/>
	<path fill="#FEFEFE" stroke="#FEFEFE" stroke-width="0.5" d="M873.302,103.859c9.924,5.471,19.155,12.087,28.903,17.885
		c3.962,2.566,8.666,4.603,11.118,8.892c4.49,7.76,8.678,15.697,13.244,23.419c1.761,3.157,4.1,6.553,3.018,10.376
		c-2.377,12.653-4.943,25.28-7.257,37.946c-1.069,5.295-1.484,10.917-4.44,15.596c-1.195-8.917-1.044-18.011-3.258-26.765
		c-3.421-13.42-6.792-26.84-10.049-40.285c-1.383-6.528-6.201-11.382-9.835-16.715C887.603,124.096,880.195,114.148,873.302,103.859
		z"/>
	<path fill="#FEFEFE" stroke="#FEFEFE" stroke-width="0.5" d="M1028.18,137.881c-2.516-9.219-5.974-18.212-7.232-27.746
		c7.27,12.753,15.08,25.18,21.922,38.172c3.748,7.295,9.508,13.911,10.439,22.35c1.509,10.59,3.358,21.13,4.679,31.745
		c0.843,5.547-2.918,10.163-5.107,14.892c-3.019,5.371-5.861,10.842-9.307,15.948c-0.578-1.962-1.22-3.949-1.006-6.012
		c0.616-7.936,2.553-15.722,3.081-23.671c0.503-6.553-2.251-12.691-3.937-18.879C1037.21,169.086,1032.657,153.49,1028.18,137.881z"
		/>
	<path fill="#161616" stroke="#161616" stroke-width="0.5" d="M690.189,121.669c2.226,6.1,4.125,12.313,6.326,18.426
		c1.987-1.308,3.924-2.78,6.087-3.849c1.975,0.05,3.899,0.553,5.849,1.006c3.597,2.49,5.974,6.326,9.509,8.93
		c16.891,13.307,33.758,26.664,50.586,40.059c7.031,5.698,15.281,9.546,22.979,14.238c-0.063,1.61-0.101,3.22-0.113,4.83
		c-15.634-1.358-31.142,2.113-46.712,2.83c-6.867-0.025-13.672-1.132-20.426-2.239c-2.981-0.654-6.037-0.994-8.955-1.824
		c-3.547-2.277-5.672-6.339-9.42-8.238c-7.898-2.302-15.998-3.886-23.909-6.15c-2.075,4.817-4.05,9.685-6.226,14.464
		c-2.704-3.522-5.999-6.666-8.075-10.615C675.008,169.526,682.768,145.654,690.189,121.669 M702.59,137.982
		c0.075,7.609,0,15.219,0.063,22.828c-1.396,1.384-2.792,2.767-4.176,4.151c2.805,2.025,5.559,4.113,8.364,6.163
		c1.975-4.251,4.49-8.276,6.05-12.716c-0.352-3.673-0.88-7.333-1.484-10.967C711.18,142.51,705.709,140.9,702.59,137.982
		 M719.255,156.722c0.063,5.937-0.201,11.873,0.063,17.81c1.761,3.107,5.458,4.628,8.251,6.779
		c1.333-7.559,4.125-14.929,4.063-22.677C727.481,158.106,723.38,157.338,719.255,156.722z"/>
	<path fill="#FDFDFD" stroke="#FDFDFD" stroke-width="0.5" d="M702.59,137.982c3.119,2.918,8.59,4.528,8.817,9.458
		c0.604,3.635,1.132,7.295,1.484,10.967c-1.56,4.44-4.075,8.465-6.05,12.716c-2.805-2.05-5.559-4.138-8.364-6.163
		c1.383-1.383,2.78-2.767,4.176-4.151C702.59,153.2,702.665,145.591,702.59,137.982z"/>
	<path fill="#FEFEFE" stroke="#FEFEFE" stroke-width="0.5" d="M719.255,156.722c4.125,0.616,8.226,1.384,12.376,1.912
		c0.063,7.748-2.729,15.118-4.063,22.677c-2.792-2.151-6.49-3.673-8.251-6.779C719.054,168.595,719.318,162.659,719.255,156.722z"/>
	<path fill="#97948F" stroke="#97948F" stroke-width="0.5" d="M1010.496,192.983c1.497,11.232,0.491,22.677,0.503,33.984
		c-2.742,0.654-5.471,1.308-8.188,1.937c-0.164-6.616,1.597-13.332-0.189-19.834
		C1005.075,203.623,1007.742,198.278,1010.496,192.983z"/>
	<path stroke="#000000" stroke-width="0.5" d="M791.411,205.308c0.013-1.61,0.05-3.22,0.113-4.83
		c19.985,11.647,40.122,23.054,60.032,34.827c19.256,13.382,38.26,27.142,57.428,40.65c9.986,7.408,21.042,13.646,29.18,23.268
		c4.855,5.169,9.861,10.2,14.766,15.332c-20.891-5.182-41.317-12.238-62.434-16.489c-2.541-0.641-5.169-0.365-7.609,0.44
		c-10.867,3.673-21.696,7.446-32.651,10.842c6.176-6.93,13.206-13.043,19.457-19.91c-13.823,5.182-27.356,11.118-41.052,16.64
		c-6.352,2.704-13.445,1.321-20.124,1.459c5.899-6.352,12.213-12.313,18.3-18.501c-13.043-2.692-25.997-5.748-39.116-8.05
		c3.748-4.553,8.263-8.402,12.238-12.753c-0.969-1.107-1.912-2.214-2.83-3.32c-1.798-2.314-3.937-4.49-4.968-7.257
		c0.805-3.459,2.276-6.704,3.547-9.999c-2.528-1.472-5.031-2.956-7.546-4.389c-1.798-0.994-3.61-1.937-5.471-2.742
		c-2.604-0.968-5.182-1.962-7.71-3.081c-4,3.559-8.691,6.44-12.112,10.59c-2.088,5.018-2.377,10.59-4.415,15.634
		c-2.377,4.905-7.483,8.2-8.854,13.646c-1.937,7.257-3.672,14.577-5.37,21.885c-8.024-0.566-15.91-2.302-23.885-3.245
		c-6.075-1.233-12.69-1.044-18.111-4.377c-5.169-3.081-10.288-6.226-15.483-9.219c-2.302-1.346-4.553-2.754-6.83-4.088
		c-2.075-1.283-4.138-2.578-6.175-3.874c6.289-10.087,12.137-20.451,18.501-30.5c10.502-12.804,23.733-23.469,32.047-37.996
		c6.754,1.107,13.558,2.214,20.426,2.239C760.27,207.421,775.778,203.95,791.411,205.308z"/>
	<path fill="#F4A07E" stroke="#F4A07E" stroke-width="0.5" d="M762.848,248.034c3.421-4.151,8.112-7.031,12.112-10.59
		c2.528,1.119,5.106,2.113,7.71,3.081c-7.207,3.522-15.495,7.081-18.124,15.42c-4.955,10.678-8.905,21.797-14.326,32.236
		c-2.541,4.364-1.711,9.483-1.056,14.212c1.145,8.024,0.78,16.652,5.094,23.859c5.031,8.452,9.018,17.508,14.615,25.62
		c6.351-2.654,12.942-5.018,18.715-8.854c4.503-3.132,6.314-8.842,6.05-14.137c-4.742,2.842-9.232,6.05-13.672,9.32
		c-4.93-1.597-9.949-3.069-14.552-5.471c-5.182-2.264-5.308-8.653-6.892-13.294c-1.698-8.251-6.842-16.715-3.421-25.192
		c4.39-11.471,9.207-22.803,13.206-34.437c1.409-3.358,2.277-7.521,5.66-9.521c4.553-2.666,9.509-4.54,14.175-7.018
		c2.515,1.434,5.018,2.918,7.546,4.389c-1.27,3.295-2.742,6.54-3.547,9.999c1.031,2.767,3.17,4.943,4.968,7.257
		c-5.899,3.069-13.458,4.037-17.369,9.961c-3.207,4.83-8.59,9.886-6.804,16.25c0.629,2,1.006,4.956,3.559,5.32
		c4.767-0.742,8.892-3.585,13.596-4.591c3.408,1.384,4.15,5.773,5.999,8.666c4.339-3.849,8.867-7.848,10.766-13.533
		c-3.169,1.006-6.276,2.679-9.659,2.578c-4.327-0.528-8.326-2.415-12.339-3.962c0.918-1.547,1.836-3.107,2.843-4.616
		c13.118,2.302,26.073,5.358,39.116,8.05c-6.087,6.188-12.401,12.15-18.3,18.501c6.679-0.138,13.772,1.245,20.124-1.459
		c13.697-5.521,27.23-11.458,41.052-16.64c-6.251,6.867-13.282,12.98-19.457,19.91c10.955-3.396,21.784-7.169,32.651-10.842
		c0.855,11.018,9.596,18.476,15.697,26.853c6.465,8.603,13.055,17.093,19.721,25.545c7.899,11.722,14.074,24.488,21.067,36.751
		c3.044,5.132,5.408,11.144,10.615,14.527c8.993,5.911,19.558,9.244,27.821,16.338c-0.641,3.647-1.296,7.282-2,10.917
		c-10.024,0.73-21.13-1.975-30.022,4.025c-9.697,6.792-17.508,15.998-27.205,22.79c-6.54,2.339-15.52,1.635-19.394,8.465
		c-4.591,7.37-7.509,15.747-13.156,22.451c-11.043-5.999-21.947-12.213-33.066-18.061c-10.653-5.358-16.967-15.81-24.664-24.413
		c-7.66-8.729-15.03-17.684-22.513-26.538c-13.269-13.709-19.344-32.336-30.689-47.454c0.05,9.697,2.78,19.055,4.452,28.525
		c1.773,10.037,4.339,19.935,5.371,30.085c-6.955,1.22-14.049,1.346-21.042,2.226c-5.358,0.604-9.169,4.754-12.879,8.251
		c8.163,5.408,17.093,9.483,25.507,14.477c-7.685,5.597-15.81,10.565-24.048,15.294c-26.337-34.437-51.114-70.031-76.697-105.033
		c-4.754-7.031-10.917-13.319-13.785-21.457c-1.799-4.792-3.195-9.722-4.968-14.514c2.465-3.346,4.817-6.779,7.056-10.288
		c9.521-0.101,17.91-5.245,26.941-7.597c10.754-2.993,21.205-6.955,31.179-11.999c-0.906-0.415-2.704-1.233-3.597-1.648
		c0.428-0.264,1.295-0.805,1.736-1.069c7.974,0.943,15.86,2.679,23.885,3.245c1.698-7.307,3.434-14.627,5.37-21.885
		c1.371-5.446,6.477-8.741,8.854-13.646C760.471,258.624,760.76,253.052,762.848,248.034z"/>
	<path fill="#E19577" stroke="#E19577" stroke-width="0.5" d="M782.67,240.525c1.861,0.805,3.673,1.748,5.471,2.742
		c-4.666,2.478-9.622,4.352-14.175,7.018c-3.383,2-4.251,6.163-5.66,9.521c-4,11.634-8.817,22.966-13.206,34.437
		c-3.421,8.477,1.723,16.942,3.421,25.192c1.585,4.641,1.711,11.03,6.892,13.294c4.603,2.402,9.622,3.874,14.552,5.471
		c4.44-3.27,8.93-6.477,13.672-9.32c0.264,5.295-1.547,11.005-6.05,14.137c-5.773,3.836-12.364,6.201-18.715,8.854
		c-5.597-8.112-9.584-17.168-14.615-25.62c-4.314-7.207-3.949-15.835-5.094-23.859c-0.654-4.729-1.484-9.848,1.056-14.212
		c5.421-10.439,9.37-21.558,14.326-32.236C767.175,247.606,775.463,244.047,782.67,240.525z"/>
	<path fill="#97948F" stroke="#97948F" stroke-width="0.5" d="M962.451,266.409c2.88-6.98,7.697-12.93,13.382-17.822
		c0.214,6.465,1.295,13.42-1.698,19.445c-2.226,4.44-4.654,8.766-6.892,13.181c-2.201,5.157-8.439,6.264-13.345,7.27
		c-0.264-0.189-0.792-0.579-1.056-0.767C955.646,280.445,959.407,273.591,962.451,266.409z"/>
	<path fill="#DF9577" stroke="#DF9577" stroke-width="0.5" d="M779.74,274.874c3.912-5.924,11.471-6.892,17.369-9.961
		c0.918,1.107,1.861,2.214,2.83,3.32c-3.974,4.352-8.49,8.2-12.238,12.753c-1.006,1.509-1.924,3.069-2.843,4.616
		c4.012,1.547,8.012,3.434,12.339,3.962c3.383,0.101,6.49-1.572,9.659-2.578c-1.899,5.685-6.427,9.685-10.766,13.533
		c-1.849-2.893-2.591-7.282-5.999-8.666c-4.704,1.006-8.829,3.849-13.596,4.591c-2.553-0.365-2.93-3.32-3.559-5.32
		C771.149,284.759,776.532,279.703,779.74,274.874z"/>
	<path fill="#1E7FA9" stroke="#1E7FA9" stroke-width="0.5" d="M638.559,270.711c5.534,0.252,10.892,1.975,16.376,2.754
		c5.823,1.182,11.974,1.547,17.332,4.402c-8.527,2.578-15.407,8.49-23.029,12.841c1.145,12.829,2.641,25.909,7.773,37.845
		c1.773,4.792,3.169,9.722,4.968,14.514c2.868,8.138,9.031,14.426,13.785,21.457c25.582,35.003,50.36,70.597,76.697,105.033
		c4.037,5.509,7.81,11.206,11.621,16.879c3.899,5.66,7.848,11.294,11.596,17.067c4.817,7.647,12.426,13.143,16.577,21.281
		c4.314,8.477,6.842,17.759,9.458,26.878c-6.465,4.691-13.282,8.842-19.922,13.269c-7.282,4.754-10.376,13.269-14.992,20.25
		c-6.339,9.848-11.835,20.237-18.589,29.808c-4.503-15.118-5.194-30.953-7.345-46.498c-1.019-7.131-1.321-14.351-2.49-21.457
		c-0.906-5.609-5.069-9.785-8.238-14.225c-18.577-25.029-36.99-50.196-55.667-75.137c-12.439-13.533-25.897-26.098-38.738-39.267
		c-4.666-4.968-11.005-8.98-13.055-15.835c-5.358-17.407-9.836-35.129-16.086-52.246c-0.34,11.521,1.497,22.954,1.987,34.449
		c0.415,5.056,0.176,10.552,3.069,14.98c3.195,5.132,6.817,9.974,10.062,15.08c16.313,25.532,36.361,48.347,54.699,72.395
		c10.98,14.137,22.048,28.198,33.141,42.247c3.824,4.716,7.685,9.534,9.924,15.256c6.968,17.294,14.124,34.512,21.218,51.756
		c2.125,5.308,5.396,10.829,3.962,16.766c-1.157,5.609-2.704,11.181-2.893,16.942c-8.326,21.029-17.093,41.87-25.595,62.811
		c-5.509,13.018-10.464,26.262-16.288,39.153c-1.27-12.263,0.189-24.564,0.553-36.827c0.717-15.533,1.383-31.066,2.038-46.599
		c0.277-3.974-0.629-7.961-2.893-11.244c-8.49-13.357-16.854-26.802-25.104-40.298c-3.471-6.075-10.54-8.125-16.351-11.206
		c-13.823-7.144-27.645-14.313-41.43-21.558c-6.955-3.786-15.143-2.327-22.702-2.553c-9.37-0.365-18.048,3.421-26.84,5.987
		c-26.488,7.823-52.9,15.885-79.388,23.708c-5.509,1.396-8.779,6.352-12.326,10.364c-14.892,16.979-29.657,34.085-44.373,51.228
		c-8.414,9.42-16.049,19.545-24.966,28.5c-2.239-12.867-4.427-25.733-6.377-38.65c-0.654-4.83-2.578-9.395-5.396-13.357
		c-11.571-17.055-22.061-34.827-33.758-51.794c-7.534-8.905-14.841-18.074-23.243-26.186c4.025,8.792,9.119,17.042,13.797,25.494
		c11.42,20.073,22.69,40.235,34.198,60.271c2.176,3.761,3.471,7.949,4.213,12.238c2.893,16.25,5.874,32.487,8.917,48.712
		c1.962,10.439,3.446,21.017,6.616,31.192c3.924,12.514,7.509,25.13,11.471,37.632c2.075,6.918,4.855,13.885,4.465,21.256
		c-1.006,20.916-1.736,41.857-2.931,62.774c-0.365,6.414-0.641,12.867-0.075,19.281c2.453-6.779,3.132-13.973,4.465-21.004
		c1.924-10.678,3.861-21.344,5.798-32.009c1.95-10.1,0.063-20.325-0.465-30.45c-1.295-16.766-2.666-33.519-3.786-50.297
		c-0.491-10.515-5.798-19.834-9.144-29.582c-2.176-6.44-5.534-12.527-6.741-19.256c1.534-3.584,4.742-6.087,7.32-8.917
		c19.809-20.853,40.562-40.839,59.101-62.862c5.76-5.974,9.986-14.15,18.199-17.143c17.407-6.855,34.814-13.709,52.133-20.778
		c6.955-2.817,14.602-2.453,21.96-3.044c12.54-0.667,25.067-1.736,37.594-2.641c6.691-0.692,12.439,3.295,18.212,6.012
		c14.212,6.817,28.362,13.772,42.625,20.501c5.157,2.239,7.773,7.446,10.615,11.974c3.081,5.182,6.729,10.024,9.848,15.193
		c3.61,5.786,3.698,12.804,4.691,19.344c1.522,12.804,4.465,25.494,4.214,38.449c-0.101,19.784,0.943,39.556,0.83,59.34
		c-1.987,5.635-5.647,11.118-4.779,17.357c2.78,25.104,5.006,50.284,7.873,75.376c0.968,7.785,1.195,15.646,2.075,23.457
		c2.692,18.891,4.037,37.933,5.609,56.938c-20.488,0.729-40.939-0.968-61.403-1.66c-13.634-1.044-27.494,0.038-40.901-3.069
		c-15.445-3.421-30.852-7.018-46.36-10.188c-3.069-0.604-5.836-2.063-8.49-3.635c-4.389,0.264-8.817,0.025-13.068-1.132
		c-16.351-4.025-32.852-7.345-49.228-11.232c-7.333-1.66-14.892-1.182-22.337-1.157c-15.118,0.088-30.249-0.063-45.367,0.063
		c3.107,1.861,6.263,3.673,9.496,5.358c2.629-1.761,5.547-3.471,8.855-2.817c21.985,2.427,43.996,4.591,66.006,6.88
		c12.628,0.943,24.589,5.421,36.738,8.653c-10.188,9.043-21.872,16.2-32.626,24.526c-7.66,4.943-14.112,12.25-23.18,14.615
		c-51.026,13.043-101.965,26.425-152.953,39.581c-11.911,3.723-24.475,3.509-36.751,4.88c-19.269,1.585-38.499,3.559-57.768,5.081
		c-17.093,1.22-33.481,6.905-50.536,8.364c13.785-4.364,28.236-6.289,41.895-11.043c-12.137,0.906-23.985,3.823-35.996,5.609
		c-10.112,1.409-20.325,5.043-30.601,2.817c-8.88-1.685-17.747-3.421-26.664-4.867c-4.968-0.918-10.251-1.497-14.527-4.415
		c-7.647-5.22-14.388-11.684-22.124-16.778c-2.088-1.824-4.603-0.44-6.754,0.428c-5.584,2.39-11.194,4.779-16.501,7.735
		c-0.956-5.308-2.641-10.49-3.245-15.847c0.453-4.968,2.126-9.722,3.22-14.565c7.559-30.613,15.03-61.239,22.589-91.852
		c1.358-5.069,1.799-10.678,5.257-14.879c15.634-20.451,31.104-41.015,46.649-61.541c3.786-5.069,8.163-9.823,10.766-15.671
		c21.293-45.781,42.738-91.475,64.056-137.231c2.88-5.786,4.943-12.112,9.156-17.118c32.412-38.474,64.698-77.049,97.059-115.573
		c3.295-3.798,6.226-7.974,10.188-11.131c39.694-30.349,79.577-60.472,119.17-90.959c32.173-30.236,63.893-60.962,95.839-91.463
		c2.163-2.49,5.672-2.088,8.653-2.377c11.974-0.402,23.947-0.88,35.921-1.409c4.163,0.05,6.968-3.497,10.175-5.635
		C619.957,284.885,628.874,277.238,638.559,270.711 M577.483,587.999c1.497,8.817,5.194,17.042,7.697,25.607
		c7.395,22.375,14.451,44.863,22.136,67.15c5.886,12.603,13.206,24.513,19.633,36.864c18.501,33.946,36.977,67.905,55.504,101.839
		c2.465,4.553,6.892,7.433,11.03,10.313c-0.78-2.188-1.56-4.352-2.44-6.477c-21.558-46.788-43.002-93.638-64.497-140.464
		c-9.181-18.401-18.778-36.575-27.985-54.963C591.469,614.613,585.533,600.69,577.483,587.999 M554.102,594.439
		c-1.862,21.029-1.321,42.197-2.402,63.264c-0.44,5.748,1.258,11.307,2.792,16.766c9.571,36.977,19.143,73.942,28.651,110.932
		c1.736,7.32,5.22,14.024,8.138,20.916c3.157,6.968,6.087,14.049,9.584,20.866c0.314-0.717,0.943-2.138,1.27-2.855
		c3.081-0.667,6.176-1.358,9.282-2.075c-12.665-43.228-26.161-86.218-38.751-129.471
		C566.038,660.093,560.805,627.102,554.102,594.439 M258.773,619.732c0.176,10.137-1.836,20.161-1.522,30.311
		c0.176,8.402-0.931,16.753-1.346,25.13c-0.428,6.679,2.843,12.728,4.867,18.904c10.112,28.815,20.388,57.592,30.437,86.432
		c2.163,6.175,6.138,11.433,9.647,16.879c11.634,18.048,23.406,36.009,35.166,53.982c4.553,6.704,8.112,14.326,14.351,19.709
		c19.306,16.275,38.285,32.94,57.567,49.24c3.773,3.044,7.031,6.855,11.433,9.043c11.219,1.861,22.463-1.069,33.695-0.591
		c-37.367-40.398-75.301-80.281-112.819-120.541c-4.113-4.289-8.678-8.289-11.647-13.508
		c-21.507-40.109-43.178-80.143-64.761-120.227c-2.352-4.578-5.811-8.968-5.886-14.326
		C257.213,646.66,260.182,633.228,258.773,619.732 M232.562,720.477c-5.886,20.086-11.156,40.348-17.156,60.409
		c-1.874,5.094,1.233,10.024,2.931,14.69c15.319,38.034,30.261,76.219,45.517,114.29c2.377,5.773,4.062,11.948,7.735,17.105
		c-5.999-29.28-14.338-58.044-20.539-87.274c-4.83-32.148-9.647-64.308-14.426-96.456
		C235.367,735.632,234.65,727.91,232.562,720.477 M178.869,785.791c-6.653,29.808-13.407,59.591-20.086,89.4
		c-1.937,8.754-4.566,17.432-5.106,26.438c-1.031,13.646-2.641,27.242-3.308,40.914c13.634,7.396,27.268,14.778,40.839,22.262
		c2.39,1.333,5.044,2.365,7.848,2.1c7.27-0.377,14.514-1.182,21.771-1.849c-1.912-4.125-5.848-6.54-9.232-9.307
		c-11.496-9.471-23.079-18.853-34.6-28.286c-2.352-1.547-1.56-4.679-1.61-7.031c3.748-53.253,7.471-106.505,11.156-159.758
		c0.038-2.176-0.075-4.352-0.189-6.502C183.095,764.497,181.523,775.289,178.869,785.791z"/>
	<path fill="#104861" stroke="#104861" stroke-width="0.5" d="M672.266,277.867c2.541-0.075,5.094,0.138,7.634,0.402
		c2.277,1.333,4.528,2.742,6.83,4.088c-7.018,12.301-15.395,23.759-22.664,35.908c-2.239,3.509-4.591,6.943-7.056,10.288
		c-5.132-11.936-6.628-25.016-7.773-37.845C656.859,286.357,663.739,280.445,672.266,277.867z"/>
	<path fill="#DF9578" stroke="#DF9578" stroke-width="0.5" d="M686.73,282.357c5.194,2.993,10.313,6.138,15.483,9.219
		c5.421,3.333,12.036,3.144,18.111,4.377c-0.44,0.264-1.308,0.805-1.736,1.069c0.893,0.415,2.691,1.233,3.597,1.648
		c-9.974,5.044-20.426,9.005-31.179,11.999c-9.031,2.352-17.42,7.496-26.941,7.597C671.335,306.116,679.712,294.658,686.73,282.357z
		"/>
	<path fill="#DF9578" stroke="#DF9578" stroke-width="0.5" d="M882.886,298.507c2.44-0.805,5.069-1.082,7.609-0.44
		c21.117,4.251,41.543,11.307,62.434,16.489c8.553,8.351,16.061,17.86,25.733,25.029c7.622,5.861,15.281,11.697,23.105,17.319
		c-4.83-0.83-8.729-3.886-12.766-6.402c-3.195,7.559-5.647,15.407-8.729,23.017c-1.358,3.258-2.427,6.741-2.05,10.326
		c0.654,11.533,3.006,23.318-0.415,34.676c-8.263-7.094-18.828-10.427-27.821-16.338c-5.207-3.383-7.572-9.395-10.615-14.527
		c-6.993-12.263-13.168-25.029-21.067-36.751c-6.666-8.452-13.256-16.942-19.721-25.545
		C892.483,316.983,883.742,309.524,882.886,298.507z"/>
	<path fill="#FEFEFE" stroke="#FEFEFE" stroke-width="0.5" d="M938.164,299.223c7.282,2.314,14.967,4.503,20.815,9.697
		c14.489,12.804,29.041,25.519,43.48,38.386c5.32,4.893,12.301,7.194,18.828,10.024c11.018,4.729,21.998,9.584,32.978,14.426
		c0.969-12.879,3.371-26.035,0.34-38.814c-1.471-6.93-2.905-13.873-4.088-20.853c1.975-0.176,3.987-0.327,5.987-0.566
		c6.201,12.326,12.502,24.614,19.168,36.713c1.56,3.081,3.585,6.251,3.32,9.861c-0.365,6.666-1.207,13.294-2.264,19.885
		c-10.829,0.365-21.646,0.566-32.424,1.509c-5.094,0.075-10.867,1.044-15.131-2.415c-9.244-6.565-17.822-14.074-27.406-20.174
		c-7.823-5.622-15.483-11.458-23.105-17.319c-9.672-7.169-17.181-16.678-25.733-25.029
		C948.024,309.424,943.019,304.393,938.164,299.223z"/>
	<path fill="#104861" stroke="#104861" stroke-width="0.5" d="M606.587,350.325c6.251,17.118,10.728,34.839,16.086,52.246
		c2.05,6.855,8.389,10.867,13.055,15.835c12.841,13.169,26.299,25.733,38.738,39.267c18.677,24.941,37.091,50.108,55.667,75.137
		c3.17,4.44,7.333,8.616,8.238,14.225c1.17,7.106,1.471,14.326,2.49,21.457c2.151,15.546,2.843,31.381,7.345,46.498
		c6.754-9.571,12.25-19.96,18.589-29.808c4.616-6.98,7.71-15.495,14.992-20.25c6.641-4.427,13.458-8.578,19.922-13.269
		c-2.616-9.119-5.144-18.401-9.458-26.878c-4.151-8.138-11.76-13.634-16.577-21.281c-3.748-5.773-7.697-11.408-11.596-17.067
		c11.823-6.452,23.281-13.546,35.179-19.822c2.176-1.472,4.754-0.78,7.081-0.063c-0.478,11.307,0,22.614-0.201,33.921
		c-0.05,6.603-4.704,11.735-6.968,17.633c-1.459,3.434-0.39,7.194,0.189,10.703c1.66,7.811,2.553,15.785,4.955,23.419
		c2.679-10.062,4.415-20.35,7.358-30.349c3.685-12.653,7.119-25.368,10.879-38.009c6.113,7.219,10.766,15.52,16.451,23.054
		c2.767,4.125,6.603,8.238,6.352,13.558c-0.101,7.974-0.893,15.935-1.006,23.922c-0.138,9.622-1.799,19.331-0.076,28.915
		c0.994,5.735,2.176,11.445,3.182,17.193c14.665-1.824,27.922-8.59,41.43-14.112c0.742-7.785,1.006-15.596,1.258-23.406
		c3.471,4.415,7.245,8.603,10.464,13.219c0.491,2.893-0.277,5.861-0.591,8.754c-6.05,8.452-10.1,19.193-19.734,24.325
		c-19.746,12.477-39.593,24.802-59.051,37.719c-4.867,1.66-10.062,0.73-15.043,0.352c-10.276-0.692-19.784-4.905-29.544-7.785
		c-10.15-3.232-20.3-6.49-30.45-9.722c-1.459,3.459-2.968,6.892-4.44,10.339c0.189-5.76,1.736-11.332,2.893-16.942
		c1.434-5.937-1.836-11.458-3.962-16.766c-7.094-17.244-14.25-34.462-21.218-51.756c-2.239-5.723-6.1-10.54-9.924-15.256
		c-11.093-14.049-22.161-28.11-33.141-42.247c-18.338-24.048-38.386-46.863-54.699-72.395c-3.245-5.106-6.867-9.949-10.062-15.08
		c-2.893-4.427-2.654-9.923-3.069-14.98C608.084,373.279,606.247,361.846,606.587,350.325z"/>
	<path fill="#DF9578" stroke="#DF9578" stroke-width="0.5" d="M775.098,370.701c11.345,15.118,17.42,33.745,30.689,47.454
		c7.483,8.854,14.854,17.81,22.513,26.538c7.697,8.603,14.011,19.055,24.664,24.413c11.118,5.848,22.023,12.062,33.066,18.061
		c5.647-6.704,8.565-15.08,13.156-22.451c3.874-6.83,12.854-6.125,19.394-8.465c-2.742,3.547-6.955,5.861-9.144,9.785
		c-2.49,7.798-3.71,15.961-6.326,23.733c-8.729,1.61-17.219,4.616-26.06,5.433c-6.113-1.409-11.03-5.836-16.816-8.15
		c-17.608-7.722-36.022-13.445-53.894-20.501c-2.327-0.717-4.905-1.409-7.081,0.063c-11.898,6.276-23.356,13.37-35.179,19.822
		c-3.811-5.672-7.584-11.37-11.621-16.879c8.238-4.729,16.363-9.697,24.048-15.294c-8.414-4.993-17.344-9.068-25.507-14.477
		c3.71-3.496,7.521-7.647,12.879-8.251c6.993-0.88,14.087-1.006,21.042-2.226c-1.031-10.15-3.597-20.048-5.371-30.085
		C777.878,389.755,775.149,380.398,775.098,370.701z"/>
	<path fill="#1E7FA9" stroke="#1E7FA9" stroke-width="0.5" d="M806.341,466.552c17.872,7.056,36.286,12.779,53.894,20.501
		c9.106,17.91,19.105,35.368,28.488,53.139c1.937,3.962,1.384,8.527,1.421,12.804c-0.251,7.811-0.516,15.621-1.258,23.406
		c-13.508,5.521-26.764,12.288-41.43,14.112c-1.006-5.748-2.188-11.458-3.182-17.193c-1.723-9.584-0.063-19.294,0.076-28.915
		c0.113-7.987,0.906-15.948,1.006-23.922c0.252-5.32-3.585-9.433-6.352-13.558c-5.685-7.534-10.339-15.835-16.451-23.054
		c-3.761,12.64-7.194,25.356-10.879,38.009c-2.943,9.999-4.679,20.287-7.358,30.349c-2.402-7.634-3.295-15.608-4.955-23.419
		c-0.579-3.509-1.648-7.27-0.189-10.703c2.264-5.899,6.918-11.03,6.968-17.633C806.341,489.167,805.863,477.859,806.341,466.552z"/>
	<path fill="#0F4861" stroke="#0F4861" stroke-width="0.5" d="M337.319,551.676c8.402,8.112,15.709,17.281,23.243,26.186
		c11.697,16.967,22.186,34.739,33.758,51.794c2.817,3.962,4.742,8.527,5.396,13.357c1.949,12.917,4.138,25.784,6.377,38.65
		c8.917-8.955,16.552-19.08,24.966-28.5c14.716-17.143,29.481-34.248,44.373-51.228c3.547-4.012,6.817-8.968,12.326-10.364
		c26.488-7.823,52.9-15.885,79.388-23.708c8.792-2.566,17.47-6.352,26.84-5.987c7.559,0.226,15.747-1.233,22.702,2.553
		c13.785,7.245,27.607,14.414,41.43,21.558c5.811,3.081,12.879,5.132,16.351,11.206c8.251,13.496,16.615,26.941,25.104,40.298
		c2.264,3.283,3.169,7.27,2.893,11.244c-0.654,15.533-1.321,31.066-2.038,46.599c-0.365,12.263-1.824,24.564-0.553,36.827
		c-1.308,3.786-2.83,7.509-4.415,11.194c0.113-19.784-0.931-39.556-0.83-59.34c0.252-12.955-2.692-25.645-4.214-38.449
		c-0.994-6.54-1.082-13.558-4.691-19.344c-3.119-5.169-6.767-10.012-9.848-15.193c-2.842-4.528-5.459-9.735-10.615-11.974
		c-14.263-6.729-28.412-13.684-42.625-20.501c-5.773-2.717-11.521-6.704-18.212-6.012c-12.527,0.906-25.054,1.975-37.594,2.641
		c-7.358,0.591-15.005,0.226-21.96,3.044c-17.319,7.068-34.726,13.923-52.133,20.778c-8.213,2.993-12.439,11.169-18.199,17.143
		c-18.539,22.023-39.292,42.008-59.101,62.862c-2.578,2.83-5.786,5.333-7.32,8.917c1.207,6.729,4.566,12.816,6.741,19.256
		c3.346,9.747,8.653,19.067,9.144,29.582c1.119,16.778,2.49,33.531,3.786,50.297c0.528,10.125,2.415,20.35,0.465,30.45
		c-1.937,10.666-3.874,21.331-5.798,32.009c-1.333,7.031-2.012,14.225-4.465,21.004c-0.566-6.414-0.289-12.867,0.075-19.281
		c1.195-20.916,1.924-41.857,2.931-62.774c0.39-7.37-2.39-14.338-4.465-21.256c-3.962-12.502-7.546-25.117-11.471-37.632
		c-3.169-10.175-4.654-20.753-6.616-31.192c-3.044-16.225-6.025-32.462-8.917-48.712c-0.742-4.289-2.038-8.477-4.213-12.238
		c-11.508-20.036-22.778-40.197-34.198-60.271C346.437,568.718,341.343,560.468,337.319,551.676z"/>
	<path fill="#F4A07E" stroke="#F4A07E" stroke-width="0.5" d="M900.017,574.969c0.402-0.478,1.207-1.421,1.597-1.899
		c12.842,17.684,25.167,35.732,37.858,53.542c2.302,3.497,5.635,6.49,6.867,10.603c2.063,10.087,8.163,18.589,12.665,27.683
		c4.377,8.54,9.232,16.828,13.571,25.381c3.61,6.616,1.308,14.275,1.446,21.381c-0.403,4.805,0.818,10.842-3.685,14.112
		c-18.338,15.659-36.084,32.085-55.579,46.348c-6.591,4.603-12.665,10.339-16.3,17.608c-1.497,2.88,0.088,6.075,0.893,8.93
		c4.264,11.672,7.446,23.696,11.194,35.531c0.78,3.132,3.345,5.182,5.811,7.043c3.207,15.332,5.974,30.764,8.703,46.184
		c-0.78,13.923-2.365,27.859-1.383,41.807c0.352,5.899,2.805,11.521,2.692,17.445c-1.044,3.899-4.364,6.641-6.842,9.659
		c-6.339-8.741-8.452-19.671-14.678-28.475c0.164,14.703,5.182,29.054,3.396,43.845c-4.566,3.056-8.93,6.452-13.848,8.905
		c-3.471,1.799-7.483,1.459-11.244,1.572c0.264-6.553,2.49-13.018,1.811-19.583c-2.038-7.873-5.697-15.281-10.075-22.111
		c-0.553,10.112-2.641,20.363-0.541,30.437c1.434,7.333,3.169,14.665,6.075,21.595c-0.428,0.855-0.805,1.736-1.17,2.616
		c-7.572-0.101-14.414,4.918-21.847,4.276c-3.409-3.647-3.949-8.98-5.572-13.521c-3.006-10.288-6.817-20.325-9.571-30.676
		c-1.082-4.289-3.044-8.288-5.685-11.823c-3.32,15.193,2.1,30.689-0.226,45.97c-0.692,4.201-3.396,7.609-5.76,10.993
		c-4.15-2.339-8.477-4.465-12.099-7.584c-3.019-2.427-3.094-6.616-3.761-10.1c-1.824-15.357-5.723-30.425-7.018-45.857
		c-0.906-10.427-1.899-20.841-2.692-31.28c-0.403-5.433-1.56-10.905-4.364-15.634c-3.748-6.515-7.194-13.194-10.678-19.847
		c-6.087,0.277-12.137,0.742-18.187,1.27c-2.314-6.113-5.685-12.049-6.289-18.64c1.849-5.748,6.817-9.848,9.873-14.967
		c-2.88,2.05-5.71,4.163-8.49,6.326c0.478-1.912,0.956-3.836,1.459-5.735c2.528-2.075,5.194-3.987,7.848-5.911
		c12.992-3.32,24.802-9.873,37.367-14.388c4.943-2.038,10.54-3.308,14.426-7.207c-0.843-10.427-4.805-20.287-6.968-30.462
		c-1.207-6.301-4.377-12.464-3.811-18.954c4.44-5.207,10.225-9.068,14.741-14.238c6.792-7.433,15.143-13.483,20.992-21.734
		c5.723-12.942,4.993-27.519,6.691-41.304c0.428-6.402,7.458-8.54,11.735-12.024c14.464-10.854,29.381-21.117,43.782-32.072
		c-1.346-1.27-2.654-2.528-3.962-3.786c-17.394,9.823-34.261,20.577-51.655,30.387c-5.006,2.956-11.194,2.78-16.602,1.195
		c-3.396-0.906-5.22-4.176-6.98-6.905c-4.805-8.024-9.207-16.313-14.715-23.884c19.457-12.917,39.304-25.243,59.051-37.719
		C889.917,594.162,893.967,583.421,900.017,574.969z"/>
	<path fill="#0F4861" stroke="#0F4861" stroke-width="0.5" d="M577.483,587.999c8.05,12.691,13.986,26.614,21.08,39.87
		c9.207,18.388,18.803,36.562,27.985,54.963c21.495,46.826,42.939,93.676,64.497,140.464c0.88,2.126,1.66,4.289,2.44,6.477
		c-4.138-2.88-8.565-5.76-11.03-10.313c-18.526-33.934-37.003-67.893-55.504-101.839c-6.427-12.351-13.747-24.262-19.633-36.864
		c-7.685-22.287-14.741-44.775-22.136-67.15C582.677,605.042,578.98,596.816,577.483,587.999z"/>
	<path fill="#0F4861" stroke="#0F4861" stroke-width="0.5" d="M554.102,594.439c6.704,32.663,11.936,65.654,18.564,98.342
		c12.59,43.254,26.086,86.243,38.751,129.471c-3.107,0.717-6.201,1.409-9.282,2.075c-0.327,0.717-0.956,2.138-1.27,2.855
		c-3.497-6.817-6.427-13.898-9.584-20.866c-2.918-6.892-6.402-13.596-8.138-20.916c-9.508-36.99-19.08-73.955-28.651-110.932
		c-1.534-5.458-3.232-11.018-2.792-16.766C552.781,636.636,552.24,615.468,554.102,594.439z"/>
	<path fill="#104861" stroke="#104861" stroke-width="0.5" d="M258.773,619.732c1.409,13.495-1.56,26.928-0.817,40.436
		c0.075,5.358,3.534,9.747,5.886,14.326c21.583,40.084,43.254,80.118,64.761,120.227c2.968,5.22,7.534,9.219,11.647,13.508
		c37.518,40.26,75.452,80.143,112.819,120.541c-11.232-0.478-22.476,2.453-33.695,0.591c-4.402-2.188-7.66-5.999-11.433-9.043
		c-19.281-16.3-38.26-32.965-57.567-49.24c-6.238-5.383-9.798-13.005-14.351-19.709c-11.76-17.973-23.532-35.933-35.166-53.982
		c-3.509-5.446-7.484-10.703-9.647-16.879c-10.049-28.84-20.325-57.617-30.437-86.432c-2.025-6.175-5.295-12.225-4.867-18.904
		c0.415-8.376,1.522-16.728,1.346-25.13C256.937,639.893,258.949,629.869,258.773,619.732z"/>
	<path fill="#DF9578" stroke="#DF9578" stroke-width="0.5" d="M859.53,666.608c17.394-9.81,34.261-20.564,51.655-30.387
		c1.308,1.258,2.616,2.515,3.962,3.786c-14.401,10.955-29.318,21.218-43.782,32.072c-4.276,3.484-11.307,5.622-11.735,12.024
		c-1.698,13.785-0.968,28.362-6.691,41.304c-5.849,8.251-14.2,14.3-20.992,21.734c-4.515,5.169-10.301,9.031-14.741,14.238
		c-0.566,6.49,2.604,12.653,3.811,18.954c2.163,10.175,6.125,20.036,6.968,30.462c-3.886,3.899-9.483,5.169-14.426,7.207
		c-12.565,4.515-24.375,11.068-37.367,14.388c5.006-4.754,10.59-8.804,15.936-13.156c4.88-3.886,6.113-10.301,8.062-15.873
		c2.993-8.867,5.886-17.747,8.377-26.765c3.006-7.282,4.553-15.47,10.024-21.457c6.477-7.383,12.603-15.068,19.017-22.526
		c2.453-2.931,5.27-5.647,7.043-9.081c1.346-4.213,0.792-8.754,0.969-13.106c-0.164-5.421,0.654-11.496-2.893-16.074
		c-11.32-15.546-22.186-31.443-33.431-47.039c-2.226-2.855-2.729-6.477-3.107-9.949c4.981,0.377,10.175,1.308,15.043-0.352
		c5.509,7.572,9.911,15.86,14.715,23.884c1.761,2.729,3.585,5.999,6.98,6.905C848.336,669.387,854.524,669.564,859.53,666.608z"/>
	<path fill="#DF9578" stroke="#DF9578" stroke-width="0.5" d="M959.004,664.897c-4.503-9.093-10.603-17.596-12.665-27.683
		c8.678,8.641,12.741,20.426,17.923,31.255c4.704,10.364,9.647,20.627,14.363,31.003c2.151,4.415-0.038,9.27-0.667,13.785
		c-2.453,10.804-3.547,21.96-6.591,32.588c-4.767,4.528-10.452,8.012-15.445,12.276c-10.074,7.458-20.036,15.068-30.072,22.564
		c-6.754,4.905-10.59,12.577-14.225,19.86c-2.277,4.264-0.868,9.156-0.088,13.621c1.874,8.968,3.396,18.011,4.817,27.066
		c-2.465-1.861-5.031-3.911-5.811-7.043c-3.748-11.835-6.93-23.859-11.194-35.531c-0.805-2.855-2.39-6.05-0.893-8.93
		c3.635-7.27,9.71-13.005,16.3-17.608c19.495-14.263,37.242-30.689,55.579-46.348c4.503-3.27,3.283-9.307,3.685-14.112
		c-0.138-7.106,2.163-14.766-1.446-21.381C968.236,681.726,963.381,673.437,959.004,664.897z"/>
	<path fill="#0F4861" stroke="#0F4861" stroke-width="0.5" d="M232.562,720.477c2.088,7.433,2.805,15.156,4.062,22.765
		c4.779,32.148,9.597,64.308,14.426,96.456c6.201,29.23,14.539,57.994,20.539,87.274c-3.673-5.157-5.358-11.332-7.735-17.105
		c-15.256-38.072-30.198-76.257-45.517-114.29c-1.698-4.666-4.805-9.596-2.931-14.69
		C221.406,760.825,226.676,740.563,232.562,720.477z"/>
	<path fill="#104861" stroke="#104861" stroke-width="0.5" d="M178.869,785.791c2.654-10.502,4.226-21.293,7.484-31.619
		c0.113,2.151,0.226,4.327,0.189,6.502c-3.685,53.253-7.408,106.505-11.156,159.758c0.05,2.352-0.742,5.484,1.61,7.031
		c11.521,9.433,23.105,18.816,34.6,28.286c3.383,2.767,7.32,5.182,9.232,9.307c-7.257,0.667-14.502,1.472-21.771,1.849
		c-2.805,0.264-5.459-0.767-7.848-2.1c-13.571-7.484-27.205-14.866-40.839-22.262c0.667-13.672,2.277-27.268,3.308-40.914
		c0.541-9.005,3.17-17.684,5.106-26.438C165.462,845.382,172.216,815.599,178.869,785.791z"/>
	<path fill="#998874" stroke="#998874" stroke-width="0.5" d="M925.851,780.684c10.037-7.496,19.998-15.105,30.072-22.564
		c6.326,0.692,12.716,0.428,19.08,0.704c2.516-0.088,4.49,1.66,6.414,3.056c5.861,4.591,11.672,9.282,17.646,13.747
		c2.566,2.088,5.899,4.025,6.289,7.66c5.974,28.852,11.785,57.743,17.822,86.583c0.994,5.081,2.591,10.175,2.075,15.42
		c-8.175,60.447-16.426,120.868-24.601,181.315c-3.899,25.909-6.163,52.108-11.772,77.741
		c-9.018,45.027-18.011,90.066-27.016,135.093c-1.824,8.792-2,17.822-3.761,26.626c-10.188-10.942-19.432-22.689-29.054-34.11
		c7.119-6.502,11.885-15.03,17.935-22.463c5.735-7.76,11.81-15.269,17.143-23.318c-15.194,10.93-29.079,23.557-44.373,34.336
		c-20.652-24.677-40.99-49.593-61.516-74.357c12.401-20.954,23.545-42.625,35.82-63.654c13.194-22.476,26.287-45.002,39.531-67.44
		c1.434-2.516,2.729-5.106,3.974-7.71c-5.66,6.314-10.301,13.433-15.495,20.099c-10.213,13.672-20.602,27.217-30.651,41.027
		c-1.497,1.723-2.78,3.974-5.018,4.805c-4.352,1.006-8.867,0.792-13.269,1.069c-12.137,0.692-24.262,1.421-36.386,2.138
		c37.455-48.762,75.527-97.059,113.347-145.558c5.823-7.358,7.66-16.791,11.131-25.306c9.71-26.35,19.344-52.724,29.167-79.023
		c0.943-2.692,1.723-5.433,2.465-8.188c-5.773,8.578-10.012,18.061-15.055,27.054C957.91,922.582,938,959.66,918.178,996.801
		c-5.735,9.345-9.056,20.438-17.193,28.123c-20.778,19.067-40.575,39.204-61.503,58.095c-0.101-8.515-0.352-17.03-0.113-25.545
		c-0.126-4.943,3.32-8.804,6.025-12.577c9.156-12.338,17.709-25.117,26.79-37.518c2.867-3.748,5.823-7.597,7.068-12.25
		c0.365-0.88,0.742-1.761,1.17-2.616c6.679-1.283,13.76-0.792,20.187-3.17c6.175-4.327,8.729-12.137,14.841-16.59
		c5.22-3.786,11.169-6.414,16.678-9.773c-0.616-13.282-2.05-26.5-3.232-39.732c10.816-19.482,20.979-39.329,31.657-58.9
		c1.698-3.119,3.22-6.339,4.603-9.609c-5.635,6.377-10.062,13.672-15.131,20.476c-7.546,10.427-14.954,20.954-22.488,31.393
		c-0.541-6.44-1.446-12.829-2.478-19.193c-2.729-15.42-5.496-30.852-8.703-46.184c-1.421-9.056-2.943-18.099-4.817-27.066
		c-0.78-4.465-2.188-9.358,0.088-13.621C915.26,793.262,919.096,785.59,925.851,780.684z"/>
	<path fill="#998874" stroke="#998874" stroke-width="0.5" d="M784.481,789.023c8.012-4.163,15.722-8.955,24.086-12.426
		c-2.49,9.018-5.383,17.898-8.377,26.765c-1.949,5.572-3.182,11.986-8.062,15.873c-5.345,4.352-10.93,8.402-15.936,13.156
		c-2.654,1.924-5.32,3.836-7.848,5.911c-7.559,6.314-6.503,17.344-11.068,25.431c-5.547,9.836-11.684,19.331-17.218,29.179
		c-3.22,5.911-8.402,11.483-8.012,18.665c0.226,9.986,1.723,19.985,4.855,29.494c3.257,9.936,5.811,20.086,9.446,29.896
		c4.1-1.723,8.125-3.597,12.112-5.559c0.654-15.847,1.773-31.67,1.648-47.53c0.365-3.27-0.428-7.521,2.553-9.76
		c4.528-3.484,9.647-6.05,14.565-8.93c4.918,6.44,10.401,12.98,11.798,21.231c3.081,16.061,6.641,32.009,9.785,48.058
		c-26.878,8.112-53.944,15.546-80.759,23.847c-4.49-8.98-4.591-19.193-6.087-28.903c-1.283-8.943-2.453-17.898-3.572-26.853
		c-0.755-5.748-1.597-11.496-2.528-17.218c-5.081-0.377-10.163-0.729-15.256-0.553c5.056-0.34,10.125-0.654,15.168-1.27l0.465-1.044
		c-1.572-19.004-2.918-38.046-5.609-56.938c-0.88-7.811-1.107-15.671-2.075-23.457c2.528-1.622,5.081-3.22,7.722-4.679
		C732.348,817.297,758.421,803.185,784.481,789.023z"/>
	<path fill="#DF9578" stroke="#DF9578" stroke-width="0.5" d="M766.885,844.036c2.78-2.163,5.61-4.276,8.49-6.326
		c-3.056,5.119-8.024,9.219-9.873,14.967c0.604,6.591,3.974,12.527,6.289,18.64c6.05-0.528,12.099-0.994,18.187-1.27
		c3.484,6.653,6.93,13.332,10.678,19.847c2.805,4.729,3.962,10.2,4.364,15.634c0.792,10.439,1.786,20.853,2.692,31.28
		c1.295,15.432,5.194,30.5,7.018,45.857c0.667,3.484,0.742,7.672,3.761,10.1c3.622,3.119,7.949,5.245,12.099,7.584
		c2.365-3.383,5.069-6.792,5.76-10.993c2.327-15.281-3.094-30.777,0.226-45.97c2.641,3.534,4.603,7.534,5.685,11.823
		c2.754,10.351,6.565,20.388,9.571,30.676c1.622,4.54,2.163,9.873,5.572,13.521c7.433,0.641,14.275-4.377,21.847-4.276
		c-4.427,3.698-8.427,7.873-12.917,11.471c-3.308,2.754-7.962,1.849-11.923,2.327c-3.61-2.742-7.27-5.408-11.005-7.961
		c-1.409,3.597-2.792,7.207-4.201,10.817c-2.805,7.106-5.509,14.25-8.062,21.444c-6.326,0.314-12.665,0.327-18.979,0
		c-4.289-21.62-8.892-43.166-13.357-64.748c-3.144-16.049-6.704-31.997-9.785-48.058c-1.396-8.251-6.88-14.791-11.798-21.231
		c-4.918,2.88-10.037,5.446-14.565,8.93c-2.981,2.239-2.188,6.49-2.553,9.76c0.126,15.86-0.994,31.682-1.648,47.53
		c-3.987,1.962-8.012,3.836-12.112,5.559c-3.635-9.81-6.188-19.96-9.446-29.896c-3.132-9.508-4.629-19.508-4.855-29.494
		c-0.39-7.182,4.792-12.753,8.012-18.665c5.534-9.848,11.672-19.344,17.218-29.179c4.566-8.087,3.509-19.118,11.068-25.431
		C767.841,840.2,767.363,842.125,766.885,844.036z"/>
	<path fill="#4E4336" stroke="#4E4336" stroke-width="0.5" d="M950.024,875.216c5.069-6.804,9.496-14.099,15.131-20.476
		c-1.383,3.27-2.905,6.49-4.603,9.609c-10.678,19.57-20.841,39.417-31.657,58.9c-0.478-5.547-0.893-11.106-1.358-16.64
		C935.07,896.17,942.478,885.642,950.024,875.216z"/>
	<path fill="#4E4438" stroke="#4E4438" stroke-width="0.5" d="M977.795,885.466c5.044-8.993,9.282-18.476,15.055-27.054
		c-0.742,2.754-1.522,5.496-2.465,8.188c-9.823,26.299-19.457,52.674-29.167,79.023c-3.471,8.515-5.308,17.948-11.131,25.306
		c-37.82,48.498-75.892,96.795-113.347,145.558c12.125-0.717,24.249-1.446,36.386-2.138c4.402-0.277,8.917-0.063,13.269-1.069
		c2.239-0.83,3.522-3.082,5.018-4.805c10.049-13.81,20.438-27.356,30.651-41.027c5.194-6.666,9.836-13.785,15.495-20.099
		c-1.245,2.604-2.541,5.194-3.974,7.71c-13.244,22.438-26.337,44.964-39.531,67.44c-12.275,21.029-23.419,42.7-35.82,63.654
		c-7.169-8.93-15.017-17.357-21.344-26.916c-14.137-20.652-28.249-41.304-42.398-61.918c-3.056-4.478-6.503-8.754-8.553-13.81
		c1.987-16.979,3.459-34.022,5.509-50.989c-7.018-3.132-14.061-6.213-21.18-9.068c-6.892,6.44-13.936,12.728-20.765,19.231
		c-4.176-4.993-8.263-10.049-12.439-15.017c-2.465-2.956-5.018-5.949-6.377-9.584c-2.151-7.66-7.119-14.011-10.439-21.13
		c-0.767-1.547-1.509-3.094-2.201-4.628c26.815-8.301,53.881-15.734,80.759-23.847c4.465,21.583,9.068,43.128,13.357,64.748
		c6.314,0.327,12.653,0.314,18.979,0c2.553-7.194,5.257-14.338,8.062-21.444c3.069,1.761,6.138,3.572,9.182,5.433
		c2.025-2.742,4.037-5.509,6.025-8.288c3.962-0.478,8.615,0.428,11.923-2.327c4.49-3.597,8.49-7.773,12.917-11.471
		c-1.245,4.654-4.201,8.502-7.068,12.25c-9.081,12.401-17.633,25.18-26.79,37.518c-2.704,3.773-6.15,7.634-6.025,12.577
		c-0.239,8.515,0.013,17.03,0.113,25.545c20.929-18.891,40.725-39.028,61.503-58.095c8.138-7.685,11.458-18.778,17.193-28.123
		C938,959.66,957.91,922.582,977.795,885.466z"/>
	<path fill="#104861" stroke="#104861" stroke-width="0.5" d="M419.084,884.473c15.118-0.126,30.249,0.025,45.367-0.063
		c7.446-0.025,15.005-0.503,22.337,1.157c16.376,3.886,32.877,7.207,49.228,11.232c4.251,1.157,8.678,1.396,13.068,1.132
		c2.654,1.572,5.421,3.031,8.49,3.635c15.508,3.169,30.915,6.767,46.36,10.188c13.407,3.107,27.268,2.025,40.901,3.069
		c20.463,0.692,40.914,2.39,61.403,1.66l-0.465,1.044c-5.044,0.616-10.112,0.931-15.168,1.27
		c-9.647,0.604-19.281,1.333-28.915,1.975c-2.742,0.126-5.459,0.314-8.175,0.44c-14.2-1.509-28.387,0.767-42.612,0.591
		c-21.457-5.697-42.788-11.873-64.27-17.457c-1.132,2.641-2.239,5.282-3.446,7.886c-2.679,4.905-4.842,10.15-8.125,14.69
		c-3.358,3.346-8.175,4.54-12.338,6.553c-38.21,17.08-76.219,34.625-114.504,51.542c-25.545,9.144-51.718,16.426-77.326,25.394
		c12.64,0.478,25.306-0.013,37.958,0.252c5.924,0.013,12.137,0.503,17.696-1.962c49.215-21.797,98.745-42.901,147.973-64.698
		c3.396-1.283,7.006-3.622,10.766-2.503c2.126,0.604,4.163,1.472,6.226,2.314c-9.068,5.094-19.029,8.263-28.5,12.489
		c-28.463,11.835-56.975,23.532-85.425,35.393c-17.935,7.748-36.336,14.388-53.982,22.778c19.734,1.924,39.581,2.553,59.365,3.786
		c16.237,0.843,32.173,4.276,48.284,6.175c5.396,0.83,10.175-2.239,14.716-4.666c19.482-10.817,39.581-20.551,58.95-31.594
		c0.226,0.83,0.478,1.685,0.755,2.541c-8.1,7.307-14.363,16.426-22.526,23.633c-9.194,5.484-19.47,8.93-29.079,13.646
		c-10.112,4.54-20.199,9.131-30.286,13.697c-3.773,1.799-8.012,1.799-12.049,1.295c-20.036-2.352-40.071-4.553-60.107-6.779
		c-18.665-2.226-37.418-3.685-55.919-6.993c-12.967-4.075-26.262-7.383-39.732-9.169c1.635-2.138,3.295-4.276,4.93-6.402
		c-4.729,1.245-9.408,2.654-13.999,4.327c1.836,0.578,3.685,1.157,5.572,1.648c-17.923-1.836-35.707-5.044-53.655-6.44
		c-11.886,1.484-22.639,7.873-34.55,9.332c-8.075,0.302-16.011-1.635-24.023-2.39c-17.218-1.258-30.399-14.715-47.341-17.042
		c-16.627-2.503-33.053-6.352-49.769-8.175c-5.207-1.283-10.477-2.289-15.734-3.295c-3.006-0.591-5.974-1.27-8.942-1.937
		l-0.981-0.226c-0.641-3.497-1.484-6.943-2.39-10.364c5.308-2.956,10.917-5.345,16.501-7.735c2.151-0.868,4.666-2.251,6.754-0.428
		c7.735,5.094,14.477,11.559,22.124,16.778c4.276,2.918,9.559,3.496,14.527,4.415c8.917,1.446,17.784,3.182,26.664,4.867
		c10.276,2.226,20.488-1.409,30.601-2.817c12.011-1.786,23.859-4.704,35.996-5.609c-13.659,4.754-28.11,6.679-41.895,11.043
		c17.055-1.459,33.443-7.144,50.536-8.364c19.268-1.522,38.499-3.497,57.768-5.081c12.276-1.371,24.84-1.157,36.751-4.88
		c50.989-13.156,101.927-26.538,152.953-39.581c9.068-2.365,15.52-9.672,23.18-14.615c10.754-8.326,22.438-15.483,32.626-24.526
		c-12.15-3.232-24.111-7.71-36.738-8.653c-22.01-2.289-44.021-4.452-66.006-6.88c-3.308-0.654-6.226,1.056-8.855,2.817
		C425.347,888.145,422.191,886.334,419.084,884.473z"/>
	<path fill="#DF9578" stroke="#DF9578" stroke-width="0.5" d="M925.058,887.416c1.031,6.364,1.937,12.753,2.478,19.193
		c0.466,5.534,0.88,11.093,1.358,16.64c1.182,13.231,2.616,26.45,3.232,39.732c-5.509,3.358-11.458,5.987-16.678,9.773
		c-6.113,4.452-8.666,12.263-14.841,16.59c-6.427,2.377-13.508,1.887-20.187,3.17c-2.905-6.93-4.641-14.263-6.075-21.595
		c-2.1-10.074-0.013-20.325,0.541-30.437c4.377,6.83,8.037,14.238,10.075,22.111c0.679,6.565-1.547,13.03-1.811,19.583
		c3.761-0.113,7.773,0.226,11.244-1.572c4.918-2.453,9.282-5.849,13.848-8.905c1.786-14.791-3.232-29.142-3.396-43.845
		c6.226,8.804,8.339,19.734,14.678,28.475c2.478-3.019,5.798-5.76,6.842-9.659c0.113-5.924-2.339-11.546-2.692-17.445
		C922.694,915.275,924.278,901.339,925.058,887.416z"/>
	<path fill="#DF9578" stroke="#DF9578" stroke-width="0.5" d="M546.631,904.345c21.482,5.584,42.813,11.76,64.27,17.457
		c0.541,0.151,1.61,0.44,2.138,0.579c-5.735,1.258-10.552,4.729-14.841,8.578c-2.604,2.39-5.911,4.742-6.414,8.527
		c-1.748,10.955-2.427,22.048-3.534,33.078c-3.597,24.098-0.679,48.511-2.201,72.735c-0.176-0.44-0.516-1.333-0.692-1.773
		c-2.78-6.565-5.22-13.257-7.584-19.96c-0.629-1.799-1.295-3.559-1.95-5.295c-3.383-9.194-6.943-18.313-10.15-27.557
		c-0.277-0.855-0.528-1.711-0.755-2.541c-4.352-15.634-8.615-31.267-12.992-46.888c-2.893-9.685-4.955-19.646-8.741-29.054
		C544.392,909.627,545.499,906.986,546.631,904.345z"/>
	<path fill="#1E7FA9" stroke="#1E7FA9" stroke-width="0.5" d="M535.06,926.921c3.283-4.54,5.446-9.785,8.125-14.69
		c3.786,9.408,5.849,19.369,8.741,29.054c4.377,15.621,8.641,31.255,12.992,46.888c-19.369,11.043-39.468,20.778-58.95,31.594
		c-4.54,2.427-9.32,5.496-14.716,4.666c-16.112-1.899-32.047-5.333-48.284-6.175c-19.784-1.233-39.631-1.861-59.365-3.786
		c17.646-8.389,36.047-15.03,53.982-22.778c28.45-11.86,56.963-23.557,85.425-35.393c9.471-4.226,19.432-7.396,28.5-12.489
		c-2.063-0.843-4.1-1.711-6.226-2.314c-3.761-1.119-7.37,1.22-10.766,2.503c-49.228,21.797-98.757,42.901-147.973,64.698
		c-5.559,2.465-11.772,1.975-17.696,1.962c-12.653-0.264-25.318,0.226-37.958-0.252c25.607-8.968,51.781-16.25,77.326-25.394
		c38.285-16.917,76.294-34.462,114.504-51.542C526.884,931.462,531.701,930.267,535.06,926.921z"/>
	<path fill="#DF9578" stroke="#DF9578" stroke-width="0.5" d="M661.688,920.771c9.634-0.641,19.269-1.371,28.915-1.975
		c5.094-0.176,10.175,0.176,15.256,0.553c0.931,5.723,1.773,11.471,2.528,17.218c-6.616-1.006-13.596-0.78-19.772-3.698
		C679.624,928.883,671.436,922.821,661.688,920.771z"/>
	<path fill="#283A47" stroke="#283A47" stroke-width="0.5" d="M610.901,921.802c14.225,0.176,28.412-2.1,42.612-0.591
		c-7.282,0.616-14.577,1.056-21.859,1.622c-6.188,0.453-12.552,1.472-18.615-0.453C612.511,922.242,611.442,921.953,610.901,921.802
		z"/>
	<path fill="#F4A07E" stroke="#F4A07E" stroke-width="0.5" d="M653.513,921.211c2.717-0.126,5.433-0.314,8.175-0.44
		c9.747,2.05,17.935,8.112,26.928,12.099c6.176,2.918,13.156,2.692,19.772,3.698c1.119,8.955,2.289,17.91,3.572,26.853
		c1.497,9.71,1.597,19.922,6.087,28.903c0.692,1.534,1.434,3.081,2.201,4.628c-6.477-2.314-14.112-3.585-18.602-9.295
		c-9.169-12.326-16.954-25.645-26.35-37.808c-1.434,6.955-0.893,14.099,0.214,21.042c1.17,8.93,8.766,14.816,13.143,22.199
		c6.289,10.515,18.602,14.162,27.985,21.143c4,3.144,8.942,4.817,14.049,3.849c1.358,3.635,3.911,6.628,6.377,9.584
		c4.176,4.968,8.263,10.024,12.439,15.017c9.043,10.716,18.237,21.306,27.331,31.972c2.767,3.169,5.144,7.031,9.106,8.854
		c2.05,5.056,5.496,9.332,8.553,13.81c14.149,20.614,28.261,41.266,42.398,61.918c6.326,9.559,14.175,17.986,21.344,26.916
		c20.526,24.765,40.864,49.681,61.516,74.357c3.107,3.798,6.188,7.622,9.295,11.445c9.622,11.42,18.866,23.167,29.054,34.11
		c15.495,17.583,31.229,34.978,46.737,52.561c4.075,4.276,7.546,9.182,12.112,13.005c5.144,3.446,11.32,4.893,16.929,7.458
		c-0.176,3.434-0.78,7.018,0.39,10.351c1.384,2.717,3.974,4.515,6.326,6.377c6.301,4.591,12.565,9.232,18.942,13.734
		c2.654,1.975,5.471,3.937,7.345,6.754c-0.025,7.936-5.635,14.552-6.176,22.388c0.189,6.263,2.717,12.137,4.352,18.124
		c2.427,8.653,6.867,16.489,10.603,24.601c6.276,13.219,13.269,26.085,20.187,38.977c3.446,6.113,5.509,13.093,10.288,18.388
		l0.44,0.491c1.283,7.043,2.591,14.099,3.408,21.231c-5.534,0.088-11.106,0.528-16.615-0.113c-1.975-0.05-3.169-1.698-4.352-2.968
		c-2.516-3.019-5.081-6.15-6.377-9.886c-3.559-11.231-5.547-22.941-9.923-33.896c0.39-4.138,0.503-8.301,0.415-12.439
		c-9.194,4.213-16.577,11.294-24.891,16.891c-7.282,5.132-14.942,13.143-24.752,10.502c-0.528-1.497,0.088-2.905,0.968-4.062
		c5.433-7.861,12.93-14.238,17.583-22.639c1.95-6.565-0.49-13.483-0.742-20.149c-1.572-11.533-1.044-23.381-4.138-34.663
		c-3.006,6.49-5.031,13.37-7.207,20.174c-3.044,9.068-1.924,18.778-2.792,28.161c-0.616,5.861,0.49,12.062-1.484,17.696
		c-4.893,4.075-11.307,5.584-16.954,8.301c-5.685,2.239-11.03,5.924-17.243,6.377c-8.1-0.352-15.407-4.251-22.878-6.955
		c0.667-1.295,1.308-2.603,2.188-3.773c3.459-2.956,7.496-6.125,12.338-5.748c5.22,0.176,10.464-0.05,15.533-1.421
		c-0.264-3.069-0.516-6.138-1.019-9.169c2.956-2.088,6.414-3.798,8.49-6.867c-1.723-8.037-5.308-15.533-7.697-23.369
		c-1.773-4.943-7.031-6.917-11.056-9.596c-12.062-7.32-24.073-14.728-36.022-22.25c-0.88,0.78-1.736,1.585-2.578,2.39
		c-2.1-7.685-10.351-9.773-15.596-14.627c-2.931-5.182-3.811-11.181-4.867-16.954c-0.302-1.61-0.579-3.195-0.855-4.767
		c-0.704-3.647-1.358-7.295-2.012-10.942c1.031,0.566,2.088,1.144,3.157,1.748c1.937-2,4-3.937,5.647-6.201
		c-2.377-4.679-7.119-7.446-10.829-10.93c-13.244-12.313-26.739-24.375-39.933-36.764c-26.249-23.859-54.938-44.788-82.105-67.578
		c-8.678-6.779-16.2-14.866-24.74-21.784c-16.388-14.213-32.5-28.739-48.888-42.939c-6.591-6.427-14.3-11.86-19.243-19.772
		c-5.962-9.182-12.854-17.81-17.784-27.62c6.452,3.886,11.71,9.332,17.382,14.238c20.501,17.621,40.575,35.745,60.95,53.504
		c17.81,13.219,35.607,26.475,53.58,39.493c15.847,12.339,32.449,23.646,48.435,35.808c5.094,3.836,10.25,7.635,15.923,10.615
		c-5.798-8.05-14.112-13.646-21.13-20.489c-42.801-38.135-85.715-76.131-128.566-114.202c-9.772-9.244-20.916-16.828-31.557-25.016
		c-16.212-11.911-31.884-24.576-48.863-35.405c-11.144-7.282-21.96-15.08-33.456-21.797c-6.691-3.559-13.231-8.087-20.954-8.88
		c-0.277-0.667-0.805-1.987-1.069-2.654c-2.1,1.798-4.151,3.635-6.201,5.484c1.723-4.125,5.408-8.439,3.484-13.106
		c-4.025-11.47-8.615-22.727-12.64-34.198c1.522-24.224-1.396-48.637,2.201-72.735c1.107-11.03,1.786-22.124,3.534-33.078
		c0.503-3.786,3.811-6.138,6.414-8.527c4.289-3.849,9.106-7.32,14.841-8.578c6.062,1.924,12.426,0.906,18.615,0.453
		C638.936,922.268,646.231,921.827,653.513,921.211 M676.681,1049.664c-12.276,2.465-24.815,3.295-37.091,5.748
		c-11.873,2.427-24.023,3.509-35.745,6.628c5.609,2.842,12.087,2.528,18.086,4.075c13.986,3.245,28.01,6.289,41.983,9.546
		c6.477,1.484,13.508,2.075,19.042,6.125c6.616,4.704,13.395,9.194,19.935,14.011c3.044,2.578,7.156,1.987,10.854,1.861
		c-1.082-4.352-3.081-8.402-5.672-12.049c-5.559-7.974-10.251-16.489-15.671-24.551c-2.729-4-4.591-8.729-8.326-11.923
		C681.586,1048.758,679.095,1049.261,676.681,1049.664 M785.11,1129.178c2.289,8.251,7.748,15.055,11.395,22.715
		c11.735,20.954,23.633,41.845,35.204,62.899c5.786,10.967,13.973,20.35,21.218,30.337c11.621,16.011,23.985,31.469,35.367,47.656
		c5.144,7.634,13.697,11.508,20.929,16.766c4.251,3.044,8.678,5.849,13.433,8.075c-0.918-2.025-1.773-4.063-3.044-5.849
		c-13.986-17.52-27.658-35.292-41.304-53.076c-14.376-18.325-28.928-36.512-42.939-55.114c-5.924-7.697-10.464-16.313-15.986-24.274
		c-8.326-12.276-16.313-24.765-24.601-37.053C791.776,1137.73,789.311,1132.737,785.11,1129.178 M946.05,1307.952
		c2.05,9.42,8.628,16.828,12.225,25.595c1.95,4.364-2.805,7.886-3.056,12.124c-0.075,4.679,0.931,9.282,1.585,13.911
		c6.767-3.333,12.477-8.364,18.313-13.068c-4.037-4.666-9.282-8.251-12.54-13.558
		C957.344,1324.453,952.515,1315.599,946.05,1307.952z"/>
	<path fill="#DF9578" stroke="#DF9578" stroke-width="0.5" d="M675.511,970.892c-1.107-6.943-1.648-14.087-0.214-21.042
		c9.395,12.162,17.181,25.482,26.35,37.808c4.49,5.71,12.125,6.98,18.602,9.295c3.32,7.119,8.288,13.47,10.439,21.13
		c-5.107,0.968-10.049-0.704-14.049-3.849c-9.383-6.98-21.696-10.628-27.985-21.143
		C684.277,985.708,676.681,979.822,675.511,970.892z"/>
	<path fill="#050505" stroke="#050505" stroke-width="0.5" d="M78.464,989.67c2.968,0.667,5.937,1.346,8.942,1.937
		c-1.522,1.258-3.031,2.528-4.49,3.861c-0.277-1.157-0.83-3.471-1.107-4.628C80.678,990.437,79.558,990.047,78.464,989.67z"/>
	<path fill="#998874" stroke="#998874" stroke-width="0.5" d="M543.147,1014.346c8.163-7.207,14.426-16.325,22.526-23.633
		c3.207,9.244,6.767,18.363,10.15,27.557c-4.025,10.515-5.723,21.721-8.628,32.575c-3.27,12.502-5.547,25.281-9.584,37.569
		c-1.17-20.438,0.05-40.939-0.604-61.39c-13.407,15.319-25.746,31.531-38.776,47.165c-11.068-4.151-21.683-9.358-32.575-13.948
		c-6.842-2.843-13.483-7.094-21.168-6.88c-11.873,0.126-23.759-0.226-35.619,0.365c28.488,19.998,57.629,39.09,86.318,58.824
		c6.691,4.88,14.703,7.534,21.344,12.515c8.867,6.591,17.91,12.967,26.702,19.684c8.339,5.169,17.759,8.288,26.526,12.691
		c26.928,12.514,53.907,24.953,80.872,37.43c15.445,6.528,29.884,15.055,44.323,23.545c4,2.478,8.049,5.22,12.841,5.874
		c14.426,11.596,28.664,23.457,42.914,35.267c5.308,10.225,12.238,19.495,18.401,29.217c2.729,4.515,7.031,8.817,6.704,14.489
		c-0.289,12.489-1.509,24.928-1.924,37.405c0,8.024-5.396,14.401-8.892,21.205c-4.679,7.836-7.899,16.715-14.565,23.205
		c-3.333,5.509-4.716,11.898-7.219,17.784c-2.402,5.672-4.641,11.433-6.465,17.319l-0.616,0.717
		c-3.119,3.987-8.188,5.383-12.54,7.534c-17.759,8.301-35.581,16.476-53.252,24.941c-2.377,1.082-4.754,2.151-7.119,3.258
		c-3.547,1.622-7.106,3.232-10.628,4.93c-0.39-2.867-0.78-5.723-1.157-8.552c-36.248-1.698-72.508-3.195-108.769-4.779
		c-10.98-0.83-22.036-0.365-32.953-1.861c-38.851-6.414-77.653-13.043-116.517-19.344c-9.936-1.534-18.237-7.584-27.217-11.647
		c-22.124-11.043-44.234-22.161-66.396-33.129c-5.421-2.805-10.829-5.685-16.527-7.886c7.999,7.408,17.231,13.307,25.796,20.023
		c13.269,10.238,27.066,19.809,40.084,30.362c-8.729-2.943-16.816-7.458-25.595-10.238c7.245,6.88,15.52,12.54,23.23,18.879
		c6.012,4.591,11.546,10.351,19.08,12.376c24.262,7.068,48.423,14.527,72.672,21.671c13.81,3.383,25.859,11.269,37.896,18.514
		c-19.809,0.239-39.631,0-59.441,0.088c-11.307-0.201-22.664,0.654-33.909-0.88c-17.86-2.327-35.732-4.566-53.617-6.679
		c-4.88-0.641-9.999-0.868-14.451-3.169c-28.463-16.011-57.001-31.896-85.501-47.844c-5.194-3.069-11.244-5.207-15.156-9.999
		c-9.597-12.98-17.608-27.129-27.834-39.631c3.572,8.05,8.754,15.219,13.106,22.84c9.534,16.036,19.281,31.934,28.676,48.045
		c1.912,3.522,5.308,5.811,8.829,7.534c22.74,11.559,45.216,23.633,67.981,35.129c16.602,6.553,34.022,10.879,50.574,17.621
		c-17.696,1.471-35.443,2.314-53.152,3.773c-6.326,0.893-11.747-2.905-17.118-5.547c-14.527-7.307-29.041-14.59-43.606-21.797
		c-4.804-2.465-10.414-4.327-13.407-9.156c-13.634-20.3-27.456-40.474-41.128-60.749c-4.138-6.767-9.659-12.728-12.942-19.973
		c-2-9.71-1.849-19.734-3.119-29.557c-0.943-11.169-2.226-22.312-2.742-33.506c3.22,4.654,6.414,9.37,10.251,13.558
		c1.622,2.05,4.49,1.861,6.842,2.264c8.414,0.679,16.854,1.132,25.255,1.987c3.534,0.138,7.634,0.931,10.578-1.585
		c6.377-4.968,12.125-10.703,18.413-15.785c8.062,1.648,16.024,3.736,23.922,6.025c1.207-4.98,2.327-9.974,3.484-14.954
		c7.219,4.176,14.414,8.389,21.432,12.904c2.578,1.56,5.119,3.32,8.049,4.201c3.195,0.34,6.352-0.616,9.496-1.119
		c7.358,9.244,14.351,18.778,21.57,28.135c4.566,6.1,11.596,9.471,17.822,13.571c6.779,4.062,12.967,9.207,20.451,11.986
		c-3.22-5.798-9.068-9.182-13.973-13.345c-3.899-3.27-7.999-6.276-11.823-9.622c-3.534-2.993-5.484-7.27-7.446-11.345
		c-3.673-7.911-8.05-15.495-11.332-23.583c16.011,1.27,31.884,3.949,47.857,5.635c16.652,1.321,33.506-0.994,50.058,1.761
		c2.943,0.226,4.628,2.905,6.276,5.031c10.653,15.244,20.992,30.752,32.739,45.203c-3.912-10.88-8.942-21.306-13.168-32.06
		c-2.842-7.358-8.59-12.93-13.37-19.017c13.005-4.201,26.475-0.289,39.694,0.164c8.075,0.151,16.891,3.521,24.375-0.956
		c9.358-4.88,19.067-9.093,28.148-14.477c-10.678,2.113-21.293,4.591-31.934,6.905c-11.018,2.754-22.111-1.384-32.563-4.578
		c4.427-10.678,9.685-20.992,14.061-31.695c-8.351,6.276-16.049,13.37-23.972,20.174c-3.71,3.056-7.157,7.496-12.426,7.471
		c-11.37,0.365-22.828,2.163-34.147,0.214c-10.967-1.698-21.985-3.044-32.953-4.704c18.011-4.289,36.726-4.993,54.699-9.483
		c-10.276-3.786-20.815-6.804-31.129-10.477c-5.559-1.849-11.219-4.49-17.218-3.622c-20.564,2.616-41.065,5.71-61.679,7.848
		c12.313-6.188,25.645-10.024,38.059-15.973c-23.029,5.421-45.568,12.816-68.647,18.086c-5.169,1.283-10.527,1.685-15.81,0.981
		c1.484-3.396,1.824-8.553,6.201-9.42c18.099-5.194,36.223-10.389,54.372-15.458c-13.785-6.012-28.022-10.905-41.883-16.703
		c-3.333-1.22-7.144-3.346-10.527-1.107c-25.708,14.011-51.139,28.551-76.999,42.298c-0.214-10.024,0.025-20.048-0.151-30.06
		c-16.275,7.597-32.475,15.357-48.674,23.08c-3.497,2.226-7.182-0.239-10.301-1.887c-11.835-6.742-23.91-13.005-35.795-19.646
		c-7.987-4.503-16.401-8.351-23.696-13.986c-11.219-8.528-22.488-16.967-33.821-25.306c-4.603-3.094-6.087-8.653-7.899-13.546
		c-2.78-8.012-6.05-15.835-8.917-23.809c-1.321-3.396-1.698-7.081-1.119-10.666c2.981-21.029,5.974-42.059,8.842-63.101
		c1.849-14.954,5.22-29.871,3.937-45.039c1.836-6.238,2.39-12.716,3.572-19.08c4.276-20.01,8.741-39.983,12.992-59.994
		c0.679-3.446,1.761-7.031,4.578-9.32c1.459-1.333,2.968-2.604,4.49-3.861c5.257,1.006,10.527,2.012,15.734,3.295
		c6.377,2.427,12.93,4.364,19.256,6.968c-10.037-1.71-19.948-4.025-29.997-5.635c-3.572,10.301-6.905,20.69-10.376,31.028
		c-2.817,8.766-7.006,17.395-6.314,26.853c13.81-2.855,27.092-9.169,41.48-8.314c0.352-6.389-0.516-12.892,0.641-19.206
		c5.144-7.396,11.886-13.558,17.483-20.627c3.886,1.22,7.76,2.49,11.609,3.861c-3.735,7.521-9.093,14.175-12.527,21.834
		c-0.616,5.672,1.421,11.295,2.138,16.917c23.193,2.126,46.461,3.459,69.691,5.22c5.333-6.201,10.93-12.188,16.577-18.111
		c-2.729,6.641-7.446,12.137-11.269,18.149c18.489-4.918,35.971-13.936,55.252-15.508c14.414-2.264,28.978-3.622,43.279-6.54
		c-3.308-1.333-6.767-2.415-10.351-2.402c-22.903-0.302-46.071,1.572-68.672-3.207c2.352-2.163,4.503-5.169,7.999-5.32
		c7.156-0.931,14.376-1.308,21.558-2.063c6.666-0.818,13.118,1.384,19.495,3.006c8.087,2.063,16.187,4.063,24.299,6.087
		c9.005,2.352,18.35,2.616,27.557,3.71c7.999,1.057,15.948-0.818,23.759-2.39c18.501,3.308,37.254,4.767,55.919,6.993
		c20.036,2.226,40.071,4.427,60.107,6.779c4.037,0.503,8.276,0.503,12.049-1.295c10.087-4.566,20.174-9.156,30.286-13.697
		C523.677,1023.276,533.953,1019.83,543.147,1014.346 M277.035,1048.745c-13.47,3.949-27.494,6.427-40.21,12.615
		c-8.842,4.188-18.086,7.471-26.727,12.062c8.075,0.176,16.149,0.075,24.237,0.138c4.402,0.252,8.377-1.824,12.175-3.735
		c18.564-9.471,37.921-17.432,56.133-27.544C293.927,1043.639,285.588,1046.658,277.035,1048.745 M117.567,1046.57
		c-1.371,0.931-0.151,4.025,1.409,2.453C120.384,1048.041,119.177,1045.035,117.567,1046.57 M138.383,1093.508
		c-10.364,5.119-20.463,10.716-30.701,16.074c-6.138,3.383-12.753,6.075-18.149,10.666c11.345-2.214,22.186-6.377,33.38-9.219
		c8.263-1.937,13.76-8.867,20.438-13.571c10.251-8.464,21.382-15.961,31.028-25.13
		C161.915,1078.529,150.407,1086.528,138.383,1093.508 M198.578,1073.9c2.692,2.365,5.999,2.44,8.666-0.05
		C204.351,1073.686,201.458,1073.699,198.578,1073.9 M81.571,1123.052c0.566,0.616,1.698,1.836,2.276,2.44
		c1.849-0.855,3.207-2.44,4.641-3.836C86.161,1122.034,83.86,1122.512,81.571,1123.052 M136.395,1158.357
		c-15.344,11.458-31.33,22.061-46.36,33.934c1.585,0.729,3.17,1.56,4.855,2.113c4.125-1.069,7.471-3.962,11.144-5.999
		c13.672-8.138,27.23-16.464,40.952-24.513c3.861-2.088,5.798-6.163,7.798-9.835c2.83-5.459,6.037-10.716,8.741-16.225
		C154.117,1144.17,145.715,1151.88,136.395,1158.357 M404.18,1187.21c-4.302,0.503-8.704,1.421-12.162,4.201
		c-16.049,11.659-32.651,22.551-48.473,34.512c3.182-0.252,6.754,0.189,9.483-1.849c11.282-7.961,22.275-16.35,33.644-24.186
		c8.301-3.987,17.696-4.855,26.475-7.521c15.935-4.478,32.236-7.735,48.008-12.728
		C442.063,1181.248,423.197,1184.958,404.18,1187.21 M448.955,1226.954c-12.892,5.999-25.859,11.835-38.789,17.747
		c-4.176,1.66-6.565,5.609-8.792,9.27c14.087-5.308,28.475-10.25,41.455-18.011c9.672-5.408,19.482-10.552,29.129-16.011
		C464.023,1221.244,456.162,1223.307,448.955,1226.954 M694.717,1379.58c-3.019,2-6.817,1.647-10.263,1.924
		c-31.016,0.44-62.006,1.572-93.022,2.226c-7.672,0.138-14.338-4.213-21.382-6.591c-16.828-6.289-33.292-13.558-50.322-19.243
		c19.168,18.25,39.153,35.669,58.661,53.554c2.691,3.107,6.943,2.226,10.578,2.113c31.23-2.264,62.572-3.459,93.777-5.823
		c5.635-4.817,9.559-11.32,14.615-16.728c9.244-11.483,19.306-22.337,27.959-34.273
		C714.538,1363.544,705.093,1372.21,694.717,1379.58 M277.274,1363.079c1.736,1.949,3.698,3.723,5.861,5.257
		C281.387,1366.349,279.4,1364.6,277.274,1363.079 M284.443,1369.204c4.125,4.804,9.345,8.464,14.074,12.653
		c9.332,7.873,18.489,15.948,27.783,23.859c3.27,2.868,7.383,4.44,11.546,5.572c-9.76-9.056-20.803-16.577-31.028-25.067
		C299.247,1380.674,292.556,1373.946,284.443,1369.204z"/>
	<path fill="#191919" stroke="#191919" stroke-width="0.5" d="M103.141,994.902c16.715,1.824,33.141,5.672,49.769,8.175
		c16.942,2.327,30.123,15.785,47.341,17.042c8.012,0.755,15.948,2.692,24.023,2.39c11.911-1.459,22.664-7.848,34.55-9.332
		c17.948,1.396,35.732,4.603,53.655,6.44c0.868,0.113,2.616,0.314,3.497,0.428c13.47,1.786,26.765,5.094,39.732,9.169
		c-7.81,1.572-15.759,3.446-23.759,2.39c-9.207-1.094-18.552-1.358-27.557-3.71c-8.112-2.025-16.212-4.025-24.299-6.087
		c-6.377-1.622-12.829-3.823-19.495-3.006c-7.182,0.755-14.401,1.132-21.558,2.063c-3.497,0.151-5.647,3.157-7.999,5.32
		c-2.981,2.956-5.798,6.088-8.238,9.509c-5.647,5.924-11.244,11.911-16.577,18.111c-23.23-1.761-46.499-3.094-69.691-5.22
		c-0.717-5.622-2.754-11.244-2.138-16.917c3.434-7.66,8.792-14.313,12.527-21.834c-3.849-1.371-7.722-2.641-11.609-3.861
		c-5.597,7.068-12.338,13.231-17.483,20.627c-1.157,6.314-0.289,12.816-0.641,19.206c-14.388-0.855-27.67,5.459-41.48,8.314
		c-0.692-9.458,3.497-18.086,6.314-26.853c3.471-10.339,6.804-20.727,10.376-31.028c10.049,1.61,19.96,3.924,29.997,5.635
		C116.07,999.266,109.518,997.329,103.141,994.902z"/>
	<path fill="#998875" stroke="#998875" stroke-width="0.5" d="M843.406,1000.964c3.735,2.553,7.396,5.22,11.005,7.961
		c-1.987,2.78-4,5.547-6.025,8.288c-3.044-1.861-6.113-3.673-9.182-5.433C840.614,1008.171,841.997,1004.561,843.406,1000.964z"/>
	<path fill="#2D7B9E" stroke="#2D7B9E" stroke-width="0.5" d="M306.906,1017.969c4.591-1.673,9.27-3.081,13.999-4.327
		c-1.635,2.126-3.295,4.264-4.93,6.402c-0.88-0.113-2.629-0.314-3.497-0.428C310.592,1019.126,308.743,1018.547,306.906,1017.969z"
		/>
	<path fill="#4E4438" stroke="#4E4438" stroke-width="0.5" d="M567.195,1050.846c2.905-10.854,4.603-22.061,8.628-32.575
		c0.654,1.736,1.321,3.496,1.95,5.295c-0.013,9.76-1.95,19.394-2.402,29.142c3.471-2.905,6.779-5.987,9.986-9.182
		c0.176,0.44,0.516,1.333,0.692,1.773c4.025,11.47,8.616,22.727,12.64,34.198c1.924,4.666-1.761,8.98-3.484,13.106
		c2.05-1.849,4.1-3.685,6.201-5.484c0.264,0.667,0.792,1.987,1.069,2.654c2.541,9.219,9.898,15.596,15.835,22.664
		c4.301,4.918,8.515,9.911,12.728,14.904c-9.571,5.333-19.067,10.817-28.701,16.024c0.402,3.421-1.685,8.653,2.478,10.339
		c29.255,14.2,58.711,28.073,87.79,42.612c12.489,8.276,23.318,18.841,35.191,27.972c-4.792-0.654-8.842-3.396-12.841-5.874
		c-14.439-8.49-28.878-17.017-44.323-23.545c-26.966-12.477-53.944-24.916-80.872-37.43c-8.766-4.402-18.187-7.521-26.526-12.691
		c-8.792-6.716-17.835-13.093-26.702-19.684c-6.641-4.981-14.653-7.634-21.344-12.515c-28.689-19.734-57.831-38.826-86.318-58.824
		c11.86-0.591,23.746-0.239,35.619-0.365c7.685-0.214,14.326,4.037,21.168,6.88c10.892,4.591,21.507,9.798,32.575,13.948
		c13.03-15.634,25.368-31.846,38.776-47.165c0.654,20.451-0.566,40.952,0.604,61.39
		C561.648,1076.126,563.925,1063.348,567.195,1050.846 M569.534,1145.805c-0.126,1.962,3.295,2.981,4.805,2.038
		C574.439,1145.855,571.018,1144.774,569.534,1145.805z"/>
	<path fill="#9A8974" stroke="#9A8974" stroke-width="0.5" d="M577.772,1023.566c2.365,6.704,4.805,13.395,7.584,19.96
		c-3.207,3.195-6.515,6.276-9.986,9.182C575.823,1042.96,577.76,1033.326,577.772,1023.566z"/>
	<path fill="#4E4437" stroke="#4E4437" stroke-width="0.5" d="M222.802,1035.69c2.44-3.421,5.257-6.553,8.238-9.509
		c22.602,4.779,45.769,2.905,68.672,3.207c3.585-0.013,7.043,1.069,10.351,2.402c-14.3,2.918-28.865,4.276-43.279,6.54
		c-19.281,1.572-36.764,10.59-55.252,15.508C215.356,1047.827,220.072,1042.331,222.802,1035.69z"/>
	<path fill="#4E4337" stroke="#4E4337" stroke-width="0.5" d="M277.035,1048.745c8.553-2.088,16.891-5.106,25.607-6.465
		c-18.212,10.112-37.569,18.074-56.133,27.544c-3.798,1.912-7.773,3.987-12.175,3.735c-8.087-0.063-16.162,0.038-24.237-0.138
		c8.641-4.591,17.885-7.873,26.727-12.062C249.541,1055.172,263.565,1052.695,277.035,1048.745z"/>
	<path fill="#251708" stroke="#251708" stroke-width="0.5" d="M117.567,1046.57c1.61-1.534,2.817,1.472,1.409,2.453
		C117.416,1050.594,116.196,1047.5,117.567,1046.57z"/>
	<path fill="#DF9578" stroke="#DF9578" stroke-width="0.5" d="M676.681,1049.664c2.415-0.402,4.905-0.906,7.396-0.528
		c3.736,3.195,5.597,7.924,8.326,11.923c5.421,8.062,10.112,16.577,15.671,24.551c2.591,3.647,4.591,7.697,5.672,12.049
		c-3.698,0.126-7.81,0.717-10.854-1.861c-6.54-4.817-13.319-9.307-19.935-14.011c-5.534-4.05-12.565-4.641-19.042-6.125
		c-13.974-3.258-27.997-6.301-41.983-9.546c-5.999-1.547-12.477-1.233-18.086-4.075c11.722-3.119,23.872-4.201,35.745-6.628
		C651.866,1052.959,664.405,1052.129,676.681,1049.664z"/>
	<path fill="#4E4336" stroke="#4E4336" stroke-width="0.5" d="M138.383,1093.508c12.024-6.98,23.532-14.98,35.996-21.18
		c-9.647,9.169-20.778,16.665-31.028,25.13c-6.679,4.704-12.175,11.634-20.438,13.571c-11.194,2.842-22.036,7.006-33.38,9.219
		c5.396-4.591,12.011-7.282,18.149-10.666C117.919,1104.224,128.019,1098.627,138.383,1093.508z"/>
	<path fill="#51402E" stroke="#51402E" stroke-width="0.5" d="M198.578,1073.9c2.88-0.201,5.773-0.214,8.666-0.05
		C204.577,1076.34,201.269,1076.265,198.578,1073.9z"/>
	<path fill="#4E4438" stroke="#4E4438" stroke-width="0.5" d="M61.774,1083.861c1.283,15.168-2.088,30.085-3.937,45.039
		c-2.868,21.042-5.861,42.071-8.842,63.101c-0.579,3.584-0.201,7.27,1.119,10.666c2.868,7.974,6.138,15.797,8.917,23.809
		c1.811,4.893,3.295,10.452,7.899,13.546c11.332,8.339,22.601,16.778,33.821,25.306c7.295,5.635,15.709,9.483,23.696,13.986
		c11.886,6.641,23.96,12.904,35.795,19.646c3.119,1.648,6.804,4.113,10.301,1.887c16.2-7.723,32.399-15.483,48.674-23.08
		c0.176,10.012-0.063,20.036,0.151,30.06c25.859-13.747,51.29-28.286,76.999-42.298c3.383-2.239,7.194-0.113,10.527,1.107
		c13.86,5.798,28.098,10.691,41.883,16.703c-18.149,5.069-36.273,10.263-54.372,15.458c-4.377,0.868-4.716,6.024-6.201,9.42
		c5.283,0.704,10.64,0.302,15.81-0.981c23.079-5.27,45.618-12.666,68.647-18.086c-12.414,5.949-25.746,9.785-38.059,15.973
		c20.614-2.138,41.115-5.232,61.679-7.848c5.999-0.868,11.659,1.773,17.218,3.622c10.313,3.673,20.853,6.691,31.129,10.477
		c-17.973,4.49-36.688,5.194-54.699,9.483c10.967,1.66,21.985,3.006,32.953,4.704c11.32,1.95,22.778,0.151,34.147-0.214
		c5.27,0.025,8.716-4.415,12.426-7.471c7.924-6.804,15.621-13.898,23.972-20.174c-4.377,10.703-9.634,21.017-14.061,31.695
		c10.452,3.195,21.545,7.333,32.563,4.578c10.64-2.314,21.256-4.792,31.934-6.905c-9.081,5.383-18.791,9.597-28.148,14.477
		c-7.484,4.477-16.3,1.107-24.375,0.956c-13.219-0.453-26.689-4.365-39.694-0.164c4.779,6.087,10.527,11.659,13.37,19.017
		c4.226,10.754,9.257,21.18,13.168,32.06c-11.747-14.451-22.086-29.959-32.739-45.203c-1.648-2.125-3.333-4.804-6.276-5.031
		c-16.552-2.754-33.405-0.44-50.058-1.761c-15.973-1.685-31.846-4.364-47.857-5.635c3.283,8.087,7.66,15.672,11.332,23.583
		c1.962,4.075,3.912,8.351,7.446,11.345c3.824,3.346,7.924,6.352,11.823,9.622c4.905,4.163,10.754,7.547,13.973,13.345
		c-7.484-2.78-13.672-7.924-20.451-11.986c-6.226-4.1-13.257-7.471-17.822-13.571c-7.219-9.358-14.212-18.891-21.57-28.135
		c-3.144,0.503-6.301,1.459-9.496,1.119c-2.93-0.88-5.471-2.641-8.049-4.201c-7.018-4.515-14.212-8.729-21.432-12.904
		c-1.157,4.981-2.276,9.974-3.484,14.954c-7.899-2.289-15.86-4.377-23.922-6.025c-6.289,5.081-12.037,10.817-18.413,15.785
		c-2.943,2.515-7.043,1.723-10.578,1.585c-8.402-0.855-16.841-1.308-25.255-1.987c-2.352-0.403-5.22-0.214-6.842-2.264
		c-3.836-4.188-7.031-8.905-10.251-13.558c-1.522-2.603-3.597-4.842-6.201-6.364c-12.426-7.635-24.601-15.672-36.852-23.57
		c-32.11-20.501-63.918-41.48-95.487-62.811c-0.377-6.264-3.471-11.885-4.842-17.935c-3.232-9.093-2.742-18.828-3.824-28.274
		c-1.056-15.181-2.515-30.324-3.572-45.505c-0.365-2.692,0.654-5.245,1.61-7.685c5.748-14.414,11.332-28.89,17.017-43.329
		C57.888,1092.578,59.309,1087.974,61.774,1083.861z"/>
	<path fill="#DF9578" stroke="#DF9578" stroke-width="0.5" d="M602.474,1089.773c7.723,0.792,14.263,5.32,20.954,8.88
		c11.496,6.716,22.312,14.514,33.456,21.797c16.979,10.829,32.651,23.495,48.863,35.405c10.641,8.188,21.784,15.772,31.557,25.016
		c42.851,38.072,85.765,76.068,128.566,114.202c7.018,6.842,15.332,12.439,21.13,20.489c-5.672-2.981-10.829-6.779-15.923-10.615
		c-15.986-12.162-32.588-23.469-48.435-35.808c-17.973-13.017-35.77-26.274-53.58-39.493c-20.375-17.759-40.449-35.883-60.95-53.504
		c-5.672-4.905-10.93-10.351-17.382-14.238c4.93,9.81,11.823,18.438,17.784,27.62c4.943,7.911,12.653,13.345,19.243,19.772
		c16.388,14.2,32.5,28.727,48.888,42.939c8.54,6.917,16.061,15.005,24.74,21.784c27.167,22.79,55.856,43.719,82.105,67.578
		c13.194,12.389,26.689,24.45,39.933,36.764c3.71,3.484,8.452,6.251,10.829,10.93c-1.648,2.264-3.71,4.201-5.647,6.201
		c-1.069-0.604-2.126-1.182-3.157-1.748c-0.05-6.05-4.503-10.012-9.005-13.269c-25.62-22.438-51.567-44.499-78.193-65.742
		c-5.408-4.503-10.867-8.917-16.325-13.332c-10.515-8.502-20.488-17.784-31.833-25.18c-5.773-6.314-12.753-11.32-19.382-16.665
		c-14.25-11.81-28.488-23.671-42.914-35.267c-11.873-9.131-22.702-19.696-35.191-27.972c-3.534-4.314-8.213-7.496-11.886-11.672
		c-16.564-19.092-32.927-38.373-49.681-57.302c-4.213-4.993-8.427-9.986-12.728-14.904
		C612.373,1105.369,605.015,1098.992,602.474,1089.773z"/>
	<path fill="#584836" stroke="#584836" stroke-width="0.5" d="M81.571,1123.052c2.289-0.541,4.591-1.019,6.918-1.396
		c-1.434,1.396-2.792,2.981-4.641,3.836C83.269,1124.889,82.137,1123.669,81.571,1123.052z"/>
	<path fill="#DF9577" stroke="#DF9577" stroke-width="0.5" d="M785.11,1129.178c4.201,3.559,6.666,8.553,9.672,13.081
		c8.288,12.288,16.275,24.777,24.601,37.053c5.521,7.962,10.062,16.577,15.986,24.274c14.011,18.602,28.563,36.789,42.939,55.114
		c13.646,17.784,27.318,35.556,41.304,53.076c1.27,1.786,2.125,3.823,3.044,5.849c-4.754-2.226-9.182-5.031-13.433-8.075
		c-7.232-5.257-15.785-9.131-20.929-16.766c-11.383-16.187-23.746-31.645-35.367-47.656c-7.245-9.986-15.432-19.369-21.218-30.337
		c-11.571-21.054-23.469-41.945-35.204-62.899C792.858,1144.233,787.399,1137.428,785.11,1129.178z"/>
	<path fill="#4E4337" stroke="#4E4337" stroke-width="0.5" d="M136.395,1158.357c9.32-6.477,17.722-14.187,27.129-20.526
		c-2.704,5.509-5.911,10.766-8.741,16.225c-2,3.673-3.937,7.748-7.798,9.835c-13.722,8.05-27.28,16.376-40.952,24.513
		c-3.673,2.037-7.018,4.93-11.144,5.999c-1.685-0.553-3.27-1.384-4.855-2.113C105.065,1180.418,121.051,1169.815,136.395,1158.357z"
		/>
	<path fill="#998875" stroke="#998875" stroke-width="0.5" d="M569.534,1145.805c1.484-1.031,4.905,0.05,4.805,2.038
		C572.829,1148.786,569.408,1147.767,569.534,1145.805z"/>
	<path fill="#4E4235" stroke="#4E4235" stroke-width="0.5" d="M404.18,1187.21c19.017-2.251,37.883-5.962,56.975-7.572
		c-15.772,4.993-32.072,8.251-48.008,12.728c-8.779,2.666-18.174,3.534-26.475,7.521c-11.37,7.836-22.362,16.225-33.644,24.186
		c-2.729,2.038-6.301,1.597-9.483,1.849c15.822-11.961,32.424-22.853,48.473-34.512
		C395.476,1188.631,399.878,1187.713,404.18,1187.21z"/>
	<path fill="#4E4234" stroke="#4E4234" stroke-width="0.5" d="M448.955,1226.954c7.207-3.647,15.068-5.71,23.004-7.006
		c-9.647,5.459-19.457,10.603-29.129,16.011c-12.98,7.76-27.368,12.703-41.455,18.011c2.226-3.66,4.616-7.609,8.792-9.27
		C423.096,1238.789,436.063,1232.953,448.955,1226.954z"/>
	<path fill="#4E4437" stroke="#4E4437" stroke-width="0.5" d="M919.75,1260.51c15.294-10.779,29.179-23.406,44.373-34.336
		c-5.333,8.05-11.408,15.558-17.143,23.318c-6.05,7.433-10.817,15.961-17.935,22.463
		C925.939,1268.132,922.857,1264.309,919.75,1260.51z"/>
	<path fill="#4E4436" stroke="#4E4436" stroke-width="0.5" d="M789.11,1288.772c-6.163-9.722-13.093-18.992-18.401-29.217
		c6.628,5.345,13.609,10.351,19.382,16.665c3.056,9.509,6.993,18.841,11.911,27.532c6.666,1.119,13.357-1.283,19.922-2.352
		c5.459,4.415,10.917,8.829,16.325,13.332c-7.282,1.321-14.665,2.251-22.048,2.666c-5.119,0.742-7.76-4.54-10.854-7.584
		c2.125,7.735,1.132,16.086-2.541,23.205c-9.156,16.891-18.803,33.519-27.796,50.498c1.346,0.226,2.717,0.44,4.1,0.667
		c-2.918,0.189-5.798,0.541-8.678,0.893c6.666-6.49,9.886-15.37,14.565-23.205c3.497-6.804,8.892-13.181,8.892-21.205
		c0.415-12.477,1.635-24.916,1.924-37.405C796.14,1297.588,791.839,1293.287,789.11,1288.772z"/>
	<path fill="#998974" stroke="#998974" stroke-width="0.5" d="M790.091,1276.219c11.345,7.396,21.319,16.678,31.833,25.18
		c-6.565,1.069-13.256,3.471-19.922,2.352C797.084,1295.06,793.147,1285.728,790.091,1276.219z"/>
	<path fill="#191919" stroke="#191919" stroke-width="0.5" d="M133.415,1308.921c2.742-3.874,7.735-4.578,11.798-6.364
		c12.25,7.898,24.425,15.935,36.852,23.57c2.604,1.522,4.679,3.761,6.201,6.364c0.516,11.194,1.799,22.337,2.742,33.506
		c1.27,9.823,1.119,19.847,3.119,29.557c3.283,7.245,8.804,13.206,12.942,19.973c13.672,20.275,27.494,40.449,41.128,60.749
		c2.993,4.83,8.603,6.691,13.407,9.156c14.565,7.207,29.079,14.489,43.606,21.797c5.37,2.641,10.791,6.44,17.118,5.547
		c17.709-1.459,35.456-2.302,53.152-3.773c9.408-0.277,18.816-0.792,28.186-1.748c0.553,0.767,1.685,2.314,2.239,3.094
		c-0.654,1.66-1.22,3.358-1.773,5.081c1.006-1.069,2.025-2.126,3.031-3.195c7.961,10.967,15.458,22.262,23.306,33.305
		c1.057,1.623,2.39,3.157,2.993,5.069c-1.006,5.66-2.188,11.332-3.974,16.816c-0.314-0.528-0.943-1.585-1.27-2.113
		c-0.264,8.792-1.044,17.734,0.981,26.4c-27.582,9.836-55.177,19.621-82.734,29.557c-1.711,0.528-3.446,1.258-5.27,1.082
		c-43.53-5.245-86.897-11.911-130.264-18.3c-3.836-2.78-6.175-7.245-9.37-10.703c-8.691-11.056-18.048-21.633-26.349-32.953
		c-3.182-13.533-5.333-27.318-8.125-40.952c-3.585-16.388-4.49-33.192-6.528-49.806c-4.817-1.949-9.42-4.427-14.376-5.962
		c-6.201-0.566-12.439-0.113-18.652-0.189c-3.886-8.704-7.572-17.495-11.332-26.249c-3.924-9.446-5.32-19.797-9.949-28.966
		c-3.396-7.156-6.704-14.363-10.112-21.507c-1.145-2.289-1.987-4.716-2.1-7.27c-0.704-8.301-0.906-16.652-1.924-24.928
		c0.629,0.251,1.899,0.742,2.541,0.994C107.48,1339.936,120.561,1324.516,133.415,1308.921 M144.973,1368.94
		c2.679,11.018,6.452,21.746,9.483,32.689c8.452,29.393,18.866,58.17,28.374,87.224c5.735,11.131,12.791,21.57,19.08,32.399
		l0.792-0.78c4.062,6.779,5.283,14.979,10.351,21.18c6.528,8.15,13.106,16.262,19.721,24.325c3.471,4.377,9.282,5.295,14.225,7.157
		c7.395,2.314,14.477,6.402,22.451,6.226c13.47-0.138,26.953,0.239,40.424-0.39c-15.068-2.013-30.299-2.427-45.467-3.233
		c-11.722,0.541-20.614-8.288-30.085-13.81c4.804-5.458,10.603-9.923,15.835-14.954c1.233,1.27,2.817,2.264,4.591,1.308
		c8.817-3.245,17.306-7.37,26.324-10.1c-0.528-0.201-1.585-0.604-2.113-0.805c6.025-1.233,12.024-2.616,18.111-3.509
		c0.075-1.509,0.151-3.031,0.252-4.49c6.326-4.088,13.546-6.402,20.011-10.225c-12.162,1.56-23.356,7.156-35.607,8.452
		c0.818,0.239,2.453,0.73,3.27,0.981c-12.389,1.912-24.865,3.207-37.229,5.131c-5.521,8.754-8.854,18.766-14.59,27.419
		c-3.886-2.327-5.848-6.515-7.949-10.301c-3.358-6.251-6.892-12.401-10.439-18.526c-2.931-4.993-5.308-10.364-9.181-14.715
		c0.805-0.83,1.622-1.635,2.465-2.415c-4.955-13.823-10.225-27.532-15.256-41.329c-3.182-9.03-10.716-15.445-15.017-23.859
		c2.553,1.685,5.157,3.308,7.924,4.666c0.855-4.1-0.843-8.012-2.339-11.722c-8.565-19.357-16.527-38.99-25.255-58.283
		c0.226,2.83,0.075,5.697-1.006,8.389C152.771,1385.152,149.664,1376.612,144.973,1368.94 M230.99,1500.776
		c-2.402,5.257-4.213,10.791-6.163,16.25c10.955-5.76,21.897-11.546,32.84-17.344c3.044-1.446,4.402-4.717,6.364-7.245
		c-2.754-2.817-5.534-5.622-8.314-8.402C247.554,1489.733,238.976,1494.852,230.99,1500.776 M353.606,1547.928
		c-13.961,1.233-27.997,1.321-41.971,2.377c0.641,2.05,1.333,4.113,2.038,6.188c15.898,1.912,31.758,4.176,47.656,6.113
		c8.012-7.559,16.338-14.804,24.274-22.426C374.849,1542.394,364.322,1545.576,353.606,1547.928 M189.006,1544.13
		c0.918,6.565,0.327,14.716,6.037,19.306c6.414,5.295,12.867,10.578,19.281,15.885c5.32,3.949,9.785,9.42,16.313,11.433
		c7.924,2.603,15.961,4.88,23.897,7.471c5.874,1.899,12.125,1.623,18.212,2.05c14.401,1.031,28.865,0.151,43.241,1.509
		c6.741,0.755,13.483-0.365,19.897-2.427c8.062-2.453,16.25-4.427,24.287-6.943c-10.967-0.792-21.872,0.981-32.827,0.969
		c-10.489-0.038-20.929,1.471-31.418,1.296c-9.144-0.151-18.451,2.402-27.431-0.227c-11.043-2.93-22.061-5.936-33.229-8.351
		c-4.629-1.22-9.986-1.736-13.282-5.609c-5.081-5.836-10.2-11.621-15.357-17.382C200.653,1556.883,195.584,1549.777,189.006,1544.13
		z"/>
	<path fill="#E09577" stroke="#E09577" stroke-width="0.5" d="M946.05,1307.952c6.465,7.647,11.294,16.501,16.527,25.004
		c3.257,5.308,8.502,8.892,12.54,13.558c-5.836,4.704-11.546,9.735-18.313,13.068c-0.654-4.629-1.66-9.232-1.585-13.911
		c0.252-4.239,5.006-7.76,3.056-12.124C954.678,1324.781,948.1,1317.372,946.05,1307.952z"/>
	<path fill="#998874" stroke="#998874" stroke-width="0.5" d="M805.347,1309.814c3.094,3.044,5.735,8.326,10.854,7.584
		c7.383-0.415,14.766-1.346,22.048-2.666c26.626,21.243,52.573,43.304,78.193,65.742c-14.464,3.031-29.154,4.805-43.681,7.471
		c-7.899,1.66-15.646-1.522-23.545-1.434c-23.369-0.818-46.737-1.535-70.106-2.327c-1.384-0.226-2.755-0.44-4.1-0.667
		c8.993-16.979,18.64-33.607,27.796-50.498C806.479,1325.9,807.472,1317.549,805.347,1309.814z"/>
	<path fill="#4E4438" stroke="#4E4438" stroke-width="0.5" d="M694.717,1379.58c10.376-7.37,19.822-16.036,30.601-22.841
		c-8.653,11.936-18.715,22.79-27.959,34.273c-5.056,5.408-8.98,11.911-14.615,16.728c-31.204,2.365-62.547,3.559-93.777,5.823
		c-3.635,0.113-7.886,0.994-10.578-2.113c-19.508-17.885-39.493-35.305-58.661-53.554c17.03,5.685,33.493,12.955,50.322,19.243
		c7.043,2.377,13.709,6.729,21.382,6.591c31.016-0.654,62.006-1.786,93.022-2.226C687.9,1381.228,691.698,1381.58,694.717,1379.58z"
		/>
	<path fill="#191A13" stroke="#191A13" stroke-width="0.5" d="M277.274,1363.079c2.126,1.522,4.113,3.27,5.861,5.257
		C280.972,1366.802,279.01,1365.028,277.274,1363.079z"/>
	<path fill="#FEFEFE" stroke="#FEFEFE" stroke-width="0.5" d="M144.973,1368.94c4.691,7.672,7.798,16.212,12.15,24.098
		c6.502,13.407,12.904,26.878,19.495,40.248c3.685,6.83,6.402,14.099,9.106,21.369c-2.767-1.358-5.371-2.981-7.924-4.666
		c4.301,8.414,11.835,14.829,15.017,23.859c5.031,13.797,10.301,27.507,15.256,41.329c-0.843,0.78-1.66,1.585-2.465,2.415
		c-0.981,0.943-1.937,1.912-2.905,2.88l-0.792,0.78c-6.289-10.829-13.345-21.268-19.08-32.399
		c-9.508-29.054-19.923-57.831-28.374-87.224C151.425,1390.686,147.652,1379.957,144.973,1368.94z"/>
	<path fill="#4E4234" stroke="#4E4234" stroke-width="0.5" d="M284.443,1369.204c8.112,4.742,14.804,11.471,22.375,17.017
		c10.225,8.49,21.268,16.011,31.028,25.067c-4.163-1.132-8.276-2.704-11.546-5.572c-9.295-7.911-18.451-15.986-27.783-23.859
		C293.788,1377.668,288.569,1374.008,284.443,1369.204z"/>
	<path fill="#4E4438" stroke="#4E4438" stroke-width="0.5" d="M303.058,1374.36c5.698,2.201,11.106,5.081,16.527,7.886
		c22.161,10.967,44.272,22.086,66.396,33.129c8.98,4.063,17.281,10.112,27.217,11.647c38.864,6.301,77.665,12.93,116.517,19.344
		c10.917,1.497,21.973,1.031,32.953,1.861c36.26,1.585,72.521,3.082,108.769,4.779c0.377,2.83,0.767,5.685,1.157,8.552
		c-3.748,1.799-7.458,3.647-11.232,5.358c-12.703,5.76-25.318,11.71-37.933,17.671c-1.761,0.792-3.597,1.497-5.521,1.647
		c-33.556,2.553-67.113,5.144-100.669,7.735c-6.276,0.491-12.741,0.453-18.753,2.566c-12.565,4.276-25.18,8.389-37.732,12.665
		c-2.063,0.906-4.264,0.541-6.301-0.176c-11.747-3.761-23.595-7.219-35.317-11.018c-4.176,4.591-7.911,9.546-11.974,14.225
		c-1.006,1.069-2.025,2.125-3.031,3.195c0.553-1.723,1.119-3.421,1.773-5.081c2.289-1.874,0.277-5.119-2.239-3.094
		c-9.37,0.956-18.778,1.472-28.186,1.748c-16.552-6.742-33.971-11.068-50.574-17.621c-22.765-11.496-45.241-23.57-67.981-35.129
		c-3.522-1.723-6.918-4.012-8.829-7.534c-9.395-16.112-19.143-32.009-28.676-48.045c-4.352-7.622-9.534-14.791-13.106-22.84
		c10.225,12.502,18.237,26.651,27.834,39.631c3.912,4.792,9.961,6.93,15.156,9.999c28.5,15.948,57.038,31.833,85.501,47.844
		c4.452,2.302,9.571,2.528,14.451,3.169c17.885,2.113,35.757,4.352,53.617,6.679c11.244,1.534,22.602,0.679,33.909,0.88
		c19.809-0.088,39.631,0.151,59.441-0.088c-12.037-7.245-24.086-15.131-37.896-18.514c-24.249-7.144-48.41-14.602-72.672-21.671
		c-7.534-2.025-13.068-7.786-19.08-12.376c-7.71-6.339-15.986-11.999-23.23-18.879c8.779,2.78,16.866,7.295,25.595,10.238
		c-13.018-10.552-26.815-20.124-40.084-30.362C320.289,1387.667,311.057,1381.769,303.058,1374.36z"/>
	<path fill="#DE9578" stroke="#DE9578" stroke-width="0.5" d="M1034.267,1389.441c-1.17-3.333-0.566-6.918-0.39-10.351
		c4.88,2.012,10.074,3.484,14.564,6.351c4.037,3.031,7.144,7.094,10.829,10.527c3.295,3.434,7.697,6.477,8.552,11.508
		c4.151,20.476,8.653,40.901,12.942,61.365c3.144,10.817,8.628,20.778,12.653,31.28c4.817,12.665,12.401,24.714,12.716,38.663
		c-4.779-5.295-6.842-12.276-10.288-18.388c-6.918-12.892-13.911-25.758-20.187-38.977c-3.735-8.112-8.175-15.948-10.603-24.601
		c-1.635-5.987-4.163-11.86-4.352-18.124c0.541-7.836,6.15-14.451,6.176-22.388c-1.874-2.817-4.691-4.779-7.345-6.754
		c-6.377-4.503-12.64-9.144-18.942-13.734C1038.242,1393.956,1035.651,1392.157,1034.267,1389.441z"/>
	<path fill="#191919" stroke="#191919" stroke-width="0.5" d="M872.762,1387.944c14.527-2.666,29.217-4.44,43.681-7.471
		c4.503,3.257,8.955,7.219,9.005,13.269c0.654,3.647,1.308,7.295,2.012,10.942c-16.652,1.874-33.33,3.408-49.97,5.32
		c7.32,3.233,14.414,7.131,21.998,9.697c9.735-3.019,19.155-7.018,28.827-10.25c1.056,5.773,1.937,11.772,4.867,16.954
		c5.245,4.855,13.495,6.943,15.596,14.627c2.528,5.773,5.559,11.32,7.999,17.13c2.302,6.238,2.717,12.955,4.063,19.432
		c-8.628,0.189-17.281,0.05-25.909-0.239c0.201-0.503,0.604-1.522,0.805-2.037c-14.275,0.49-28.651-1.119-42.838,0.893
		c-8.666,0.516-17.344-0.126-25.997-0.164c-3.974-0.201-8.188,0.377-11.835-1.547c-8.326-3.874-16.652-7.773-24.941-11.697
		c-1.472-0.528-2.905-1.635-4.503-1.258c-7.157,1.17-14.238,2.742-21.394,3.824c-3.61,6.113-6.981,12.363-10.414,18.589
		c-6.276-0.05-12.565,0.038-18.841-0.302c0.868-0.654,1.748-1.283,2.641-1.899c-16.074,0.302-32.248-1.283-48.234,0.742
		c-8.238,0.49-16.476-0.176-24.715-0.201c-5.622-0.251-11.433,0.352-16.816-1.622c-6.741-2.226-13.596-4.125-20.338-6.314
		c-3.446-0.893-4.289-4.918-6.15-7.446c3.773-1.711,7.484-3.559,11.232-5.358c3.522-1.698,7.081-3.308,10.628-4.93
		c3.937,3.383,8.238,7.27,13.822,7.031c16.803,0.189,33.607-0.163,50.41,0.138c5.371,0.163,10.804-0.704,15.684-3.094
		c8.628-4.113,17.747-7.207,26.035-12.037c-12.653,2.088-23.57,10.603-36.663,10.452c-10.917,0.025-21.834-0.138-32.739,0.025
		c-10.087,0.163-20.149-1.861-29.431-5.773c17.671-8.464,35.493-16.64,53.252-24.941c4.352-2.151,9.421-3.547,12.54-7.534
		c8.842,0.566,17.633,1.811,26.438,2.893c5.987,0.78,12.062,0.251,18.048,1.069c-0.478,0.088-1.421,0.277-1.899,0.365
		c14.137,5.119,28.337,10.112,42.386,15.458c-0.465,0.113-1.409,0.34-1.874,0.453c1.786,0.88,3.622,1.761,5.471,2.654
		c-7.068-0.164-14.2-1.484-21.218-0.038c7.647,3.886,16.363,4.276,24.601,6.213c15.621,3.383,31.255,6.817,47.052,9.408
		c9.835,1.484,19.646,4.893,29.708,3.346c8.414-1.157,16.992-1.346,25.28-3.358c-11.886-0.918-23.947,1.019-35.707-1.471
		c-10.804-2.453-21.646-4.729-32.437-7.156c1.258-0.704,2.541-1.396,3.861-2.025c0.491-0.025,1.459-0.063,1.949-0.088
		c13.848-0.013,27.318-3.748,40.964-5.647c-14.929-3.22-30.576,0.201-45.278-4.415c-12.515-3.585-25.167-6.628-37.682-10.175
		c-12.64-3.597-25.809-4.452-38.713-6.591c-16.602-3.019-33.582-2.05-50.335-1.61c1.824-5.886,4.062-11.647,6.465-17.319
		c2.503-5.886,3.886-12.276,7.219-17.784c2.88-0.352,5.76-0.704,8.678-0.893c23.369,0.792,46.737,1.509,70.106,2.327
		C857.115,1386.422,864.863,1389.604,872.762,1387.944z"/>
	<path fill="#030303" stroke="#030303" stroke-width="0.5" d="M158.129,1384.649c8.729,19.294,16.69,38.927,25.255,58.283
		c1.497,3.71,3.195,7.622,2.339,11.722c-2.704-7.27-5.421-14.539-9.106-21.369c-6.591-13.37-12.992-26.84-19.495-40.248
		C158.204,1390.346,158.355,1387.479,158.129,1384.649z"/>
	<path fill="#FDFDFD" stroke="#FDFDFD" stroke-width="0.5" d="M877.491,1410.005c16.64-1.912,33.317-3.446,49.97-5.32
		c0.277,1.572,0.553,3.157,0.855,4.767c-9.672,3.232-19.093,7.232-28.827,10.25C891.904,1417.136,884.811,1413.237,877.491,1410.005
		z"/>
	<path fill="#020202" stroke="#020202" stroke-width="0.5" d="M756.748,1420.18c16.753-0.44,33.732-1.409,50.335,1.61
		c12.904,2.138,26.073,2.993,38.713,6.591c12.515,3.547,25.167,6.59,37.682,10.175c14.703,4.616,30.349,1.195,45.278,4.415
		c-13.646,1.899-27.117,5.635-40.964,5.647c0.943-1.333,1.912-2.641,2.905-3.912c-26.123-6.037-51.794-14.238-78.42-17.847
		c-3.912-0.616-7.76-1.497-11.659-2c-5.987-0.818-12.062-0.289-18.048-1.069c-8.804-1.082-17.596-2.327-26.438-2.893
		L756.748,1420.18z"/>
	<path fill="#FDFDFD" stroke="#FDFDFD" stroke-width="0.5" d="M798.719,1425.223c0.478-0.088,1.421-0.277,1.899-0.365
		c3.899,0.503,7.748,1.383,11.659,2c26.626,3.61,52.297,11.81,78.42,17.847c-0.994,1.27-1.962,2.578-2.905,3.912
		c-0.491,0.025-1.459,0.063-1.949,0.088c-14.955-2.44-29.821-5.396-44.738-8.024
		C827.055,1435.335,812.856,1430.342,798.719,1425.223z"/>
	<path fill="#DF9578" stroke="#DF9578" stroke-width="0.5" d="M948.779,1441.033c0.843-0.805,1.698-1.61,2.578-2.39
		c11.948,7.521,23.96,14.929,36.022,22.25c1.119,3.811,0.755,9.483,5.27,11.068c-0.553,0.151-1.66,0.453-2.214,0.604
		c2.377,9.395,4.817,18.765,7.207,28.161c0.503,3.031,0.755,6.1,1.019,9.169c-5.069,1.371-10.313,1.597-15.533,1.421
		c-4.842-0.377-8.88,2.792-12.338,5.748c-3.081-5.685-3.798-12.175-5.471-18.313c-1.874-6.968-3.182-14.062-4.477-21.155
		c-1.346-6.477-1.761-13.194-4.063-19.432C954.338,1452.353,951.307,1446.806,948.779,1441.033z"/>
	<path fill="#020202" stroke="#020202" stroke-width="0.5" d="M839.23,1441.134c0.465-0.113,1.409-0.34,1.874-0.453
		c14.917,2.629,29.783,5.584,44.738,8.024c-1.321,0.629-2.604,1.321-3.861,2.025c10.791,2.427,21.633,4.704,32.437,7.156
		c11.76,2.49,23.821,0.553,35.707,1.471c-8.288,2.013-16.866,2.201-25.28,3.358c-10.062,1.547-19.872-1.861-29.708-3.346
		c-15.797-2.591-31.431-6.025-47.052-9.408c-8.238-1.937-16.954-2.327-24.601-6.213c7.018-1.447,14.15-0.126,21.218,0.038
		C842.853,1442.895,841.016,1442.014,839.23,1441.134z"/>
	<path fill="#DF9578" stroke="#DF9578" stroke-width="0.5" d="M1037.16,1447.083c3.094,11.282,2.566,23.13,4.138,34.663
		c0.251,6.666,2.692,13.584,0.742,20.149c-4.654,8.402-12.15,14.778-17.583,22.639c-0.88,1.157-1.497,2.566-0.968,4.062
		c9.81,2.641,17.47-5.37,24.752-10.502c8.314-5.597,15.697-12.678,24.891-16.891c0.088,4.138-0.025,8.301-0.415,12.439
		c-14.074,9.257-27.431,19.583-41.329,29.104c-1.811,1.409-4.163,0.88-6.201,0.566c-15.546-2.956-31.079-5.899-46.649-8.653
		c-6.842-0.767-10.703-7.094-15.03-11.659c1.66-0.667,3.195-2.503,5.094-2.163c7.471,2.704,14.778,6.603,22.878,6.955
		c6.213-0.453,11.559-4.138,17.243-6.377c5.647-2.717,12.062-4.226,16.954-8.301c1.975-5.635,0.868-11.835,1.484-17.696
		c0.868-9.383-0.252-19.092,2.792-28.161C1032.129,1460.452,1034.154,1453.573,1037.16,1447.083z"/>
	<path fill="#030303" stroke="#030303" stroke-width="0.5" d="M752.51,1459.119c13.093,0.151,24.01-8.364,36.663-10.452
		c-8.289,4.83-17.407,7.924-26.035,12.037c-4.88,2.39-10.313,3.257-15.684,3.094c-16.803-0.302-33.607,0.05-50.41-0.138
		c-5.584,0.239-9.886-3.647-13.822-7.031c2.365-1.107,4.742-2.176,7.119-3.258c9.282,3.912,19.344,5.937,29.431,5.773
		C730.675,1458.981,741.592,1459.145,752.51,1459.119z"/>
	<path fill="#191A13" stroke="#191A13" stroke-width="0.5" d="M987.379,1460.893c4.025,2.679,9.282,4.653,11.056,9.596
		c-1.95,0.465-3.874,0.956-5.786,1.471C988.134,1470.376,988.498,1464.704,987.379,1460.893z"/>
	<path stroke="#000000" stroke-width="0.5" d="M892.898,1476.212c14.187-2.012,28.563-0.402,42.838-0.893
		c-0.201,0.516-0.604,1.534-0.805,2.037C920.92,1476.828,906.896,1476.979,892.898,1476.212z"/>
	<path stroke="#000000" stroke-width="0.5" d="M729.38,1482.501c15.986-2.025,32.16-0.44,48.234-0.742
		c-0.893,0.616-1.773,1.245-2.641,1.899C759.779,1483.18,744.561,1483.192,729.38,1482.501z"/>
	<path fill="#FEFEFE" stroke="#FEFEFE" stroke-width="0.5" d="M230.99,1500.776c7.987-5.924,16.564-11.043,24.727-16.741
		c2.78,2.78,5.559,5.584,8.314,8.402c-1.962,2.528-3.32,5.798-6.364,7.245c-10.942,5.798-21.885,11.584-32.84,17.344
		C226.776,1511.567,228.587,1506.033,230.99,1500.776z"/>
	<path fill="#FEFEFD" stroke="#FEFEFD" stroke-width="0.5" d="M403.664,1507.253c2.515-2.025,4.528,1.22,2.239,3.094
		C405.349,1509.567,404.217,1508.02,403.664,1507.253z"/>
	<path fill="#020202" stroke="#020202" stroke-width="0.5" d="M205.609,1517.591c3.874,4.352,6.251,9.722,9.181,14.715
		c3.547,6.125,7.081,12.276,10.439,18.526c2.1,3.786,4.063,7.974,7.949,10.301c0.289,0.201,0.855,0.591,1.145,0.792
		c9.471,5.521,18.363,14.351,30.085,13.81c15.168,0.805,30.399,1.22,45.467,3.233c-13.47,0.629-26.953,0.251-40.424,0.39
		c-7.974,0.176-15.055-3.911-22.451-6.226c-4.943-1.862-10.754-2.78-14.225-7.157c-6.616-8.062-13.194-16.174-19.721-24.325
		c-5.069-6.201-6.289-14.401-10.351-21.18C203.672,1519.503,204.627,1518.535,205.609,1517.591z"/>
	<path fill="#020202" stroke="#020202" stroke-width="0.5" d="M281.727,1527.603c12.25-1.296,23.444-6.892,35.607-8.452
		c-6.465,3.824-13.684,6.138-20.011,10.225c-0.101,1.459-0.176,2.981-0.252,4.49c-1.27-2.138-2.604-4.213-3.912-6.301
		c-2.742,0.289-5.459,0.641-8.163,1.019C284.179,1528.333,282.544,1527.842,281.727,1527.603z"/>
	<path fill="#FDFDFD" stroke="#FDFDFD" stroke-width="0.5" d="M284.997,1528.584c2.704-0.377,5.421-0.729,8.163-1.019
		c1.308,2.088,2.641,4.163,3.912,6.301c-6.087,0.893-12.087,2.276-18.111,3.509c-7.006,1.27-13.973,2.666-20.916,4.163
		c-3.308,0.553-5.421,3.421-7.886,5.433c-5.232,5.031-11.03,9.496-15.835,14.954c-0.289-0.201-0.855-0.591-1.145-0.792
		c5.735-8.653,9.068-18.665,14.59-27.419C260.131,1531.791,272.608,1530.496,284.997,1528.584z"/>
	<path fill="#050505" stroke="#050505" stroke-width="0.5" d="M258.044,1541.539c6.943-1.497,13.911-2.893,20.916-4.163
		c0.528,0.201,1.585,0.604,2.113,0.805c-9.018,2.729-17.508,6.855-26.324,10.1c-1.773,0.956-3.358-0.038-4.591-1.308
		C252.623,1544.96,254.736,1542.092,258.044,1541.539z"/>
	<path fill="#FEFEFE" stroke="#FEFEFE" stroke-width="0.5" d="M353.606,1547.928c10.716-2.352,21.243-5.534,31.997-7.748
		c-7.936,7.622-16.263,14.866-24.274,22.426c-15.898-1.937-31.758-4.201-47.656-6.113c-0.704-2.075-1.396-4.138-2.038-6.188
		C325.609,1549.249,339.645,1549.161,353.606,1547.928z"/>
	<path fill="#010101" stroke="#010101" stroke-width="0.5" d="M189.006,1544.13c6.578,5.647,11.647,12.753,17.621,18.979
		c5.157,5.76,10.276,11.546,15.357,17.382c3.295,3.874,8.653,4.39,13.282,5.609c11.169,2.415,22.186,5.421,33.229,8.351
		c8.98,2.629,18.287,0.076,27.431,0.227c10.489,0.176,20.929-1.333,31.418-1.296c10.955,0.013,21.859-1.761,32.827-0.969
		c-8.037,2.516-16.225,4.49-24.287,6.943c-6.414,2.063-13.156,3.182-19.897,2.427c-14.376-1.358-28.84-0.478-43.241-1.509
		c-6.087-0.428-12.338-0.151-18.212-2.05c-7.936-2.591-15.973-4.867-23.897-7.471c-6.528-2.012-10.993-7.484-16.313-11.433
		c-6.414-5.308-12.867-10.59-19.281-15.885C189.333,1558.845,189.925,1550.695,189.006,1544.13z"/>
	<path fill="#040000" stroke="#040000" stroke-width="0.5" d="M428.215,1565.31c0.327,0.528,0.956,1.585,1.27,2.113
		c-0.101,8.087,0.189,16.2-0.289,24.287C427.171,1583.044,427.951,1574.101,428.215,1565.31z"/>
</g>
</svg>
