<?xml version="1.0" encoding="UTF-8"?>
<!DOCTYPE svg PUBLIC "-//W3C//DTD SVG 1.1//EN" "http://www.w3.org/Graphics/SVG/1.1/DTD/svg11.dtd">
<svg version="1.1" xmlns="http://www.w3.org/2000/svg" xmlns:xlink="http://www.w3.org/1999/xlink" x="0" y="0" width="280" height="422" viewBox="0, 0, 280, 422">
  <defs>
    <clipPath id="Clip_1">
      <path d="M279.748,-0.512 L279.748,420.512 L-0.247,420.512 L-0.247,-0.512 L279.748,-0.512 z"/>
    </clipPath>
  </defs>
  <g id="Layer_1">
    <g clip-path="url(#Clip_1)">
      <path d="M228.786,354.978 C228.53,352.969 228.263,350.976 227.982,349.009 C225.268,329.987 221.785,310.717 219.032,296.434 C226.424,304.921 235.315,315.199 241.818,322.324 z M220.324,238.147 C213.33,234.353 184.201,228.03 184.201,228.03 L179.243,228.03 L178.862,224.005 L187.811,224.005 C222.142,224.005 250.094,195.776 251.269,160.497 C264.238,158.206 270.582,151.448 270.582,139.339 C270.582,124.755 261.339,120.445 253.446,119.417 C257.232,104.067 258.158,87.704 254.759,60.505 C250.759,28.505 233.594,30.505 220.594,22.505 C208.613,15.133 188.516,7.708 171.592,7.708 C165.701,7.708 159.383,8.621 153.141,10.105 L153.139,10.099 C153.137,10.101 153.135,10.104 153.133,10.107 C148.469,11.214 143.855,12.642 139.491,14.271 L139.49,14.266 L139.482,14.274 C134.627,16.086 130.1,18.134 126.168,20.246 L126.165,20.238 L126.158,20.252 C124.769,20.999 123.435,21.751 122.21,22.505 C109.21,30.505 92.044,28.505 88.044,60.505 C84.645,87.695 85.569,104.054 89.352,119.4 C81.43,120.396 72.079,124.669 72.079,139.339 C72.079,151.492 78.468,158.258 91.535,160.525 C92.724,195.79 120.669,224.005 154.992,224.005 L163.799,224.005 L163.418,228.03 L158.461,228.03 C158.461,228.03 157.902,228.151 156.947,228.365 L157.082,228.03 C157.082,228.03 127.953,234.353 120.959,238.147 C118.708,239.367 103.989,268.756 98.957,282.964 L81.334,251.005 L78.379,252.226 L76.542,244.422 C79.9,241.339 85.064,235.552 87.426,227.458 C91.221,214.45 87.992,200.74 80.929,203.312 C73.868,205.885 82.537,216.322 77.019,219.957 C64.696,228.076 57.498,215.849 57.498,215.849 C57.498,215.849 50.95,203.173 57.935,197.755 C63.592,193.368 74.087,206.567 77.413,200.168 C80.919,193.422 64.738,184.325 52.394,188.434 C40.05,192.542 44.877,213.414 44.877,213.414 C44.877,213.414 21.448,194.824 17.693,199.855 C13.682,205.232 38.771,223.531 38.771,223.531 C38.771,223.531 8.441,211.882 7.056,216.97 C4.82,225.186 34.849,234.667 34.849,234.667 C34.849,234.667 4.775,228.828 7.967,236.231 C12.382,246.469 60.283,253.918 60.283,253.918 L62.836,252.571 L65.581,257.512 L58.334,260.505 C58.334,260.505 86.37,338.488 95.036,338.488 C98.45,338.488 111.568,320.466 122.189,304.016 C119.729,317.175 116.938,333.175 114.68,349.005 C109.816,383.089 108.646,424.845 110.811,427.01 C111.206,427.404 112.45,427.718 114.384,427.97 L140.333,653.172 L162.5,653.506 L169.924,448.472 L171.33,446.916 L172.736,448.472 L180.16,653.506 L202.328,653.172 L228.221,428.455 C228.477,428.283 228.724,428.085 228.967,427.871 C230.502,427.637 231.505,427.355 231.85,427.01 C232.255,426.605 232.543,424.811 232.713,421.939 C235.74,414.216 236.418,402.068 233.919,393.121 L237.078,387.081 L239.819,388.206 L268.974,326.29 C270.295,324.65 271.105,322.732 271.105,320.616 C271.105,311.283 222.574,239.367 220.324,238.147 M209.462,660.241 C201.117,652.404 180.16,654.394 180.16,654.394 L180.16,668.477 L212.008,668.477 C212.008,668.477 216.102,666.478 209.462,660.241 M133.199,660.241 C126.559,666.478 130.653,668.477 130.653,668.477 L162.5,668.477 L162.5,654.394 C162.5,654.394 141.545,652.404 133.199,660.241" fill="#666666"/>
      <path d="M228.786,354.978 C228.53,352.969 228.263,350.976 227.982,349.009 C225.268,329.987 221.785,310.717 219.032,296.434 C226.424,304.921 235.315,315.199 241.818,322.324 L228.786,354.978 z M220.324,238.147 C213.33,234.353 184.201,228.03 184.201,228.03 L179.243,228.03 L178.862,224.005 L187.811,224.005 C222.142,224.005 250.094,195.776 251.269,160.497 C264.238,158.206 270.582,151.448 270.582,139.339 C270.582,124.755 261.339,120.445 253.446,119.417 C257.232,104.067 258.158,87.704 254.759,60.505 C250.759,28.505 233.594,30.505 220.594,22.505 C208.613,15.133 188.516,7.708 171.592,7.708 C165.701,7.708 159.383,8.621 153.141,10.105 L153.139,10.099 C153.137,10.101 153.135,10.104 153.133,10.107 C148.469,11.214 143.855,12.642 139.491,14.271 L139.49,14.266 L139.482,14.274 C134.627,16.086 130.1,18.134 126.168,20.246 L126.165,20.238 L126.158,20.252 C124.769,20.999 123.435,21.751 122.21,22.505 C109.21,30.505 92.044,28.505 88.044,60.505 C84.645,87.695 85.569,104.054 89.352,119.4 C81.43,120.396 72.079,124.669 72.079,139.339 C72.079,151.492 78.468,158.258 91.535,160.525 C92.724,195.79 120.669,224.005 154.992,224.005 L163.799,224.005 L163.418,228.03 L158.461,228.03 C158.461,228.03 157.902,228.151 156.947,228.365 L157.082,228.03 C157.082,228.03 127.953,234.353 120.959,238.147 C118.708,239.367 103.989,268.756 98.957,282.964 L81.334,251.005 L78.379,252.226 L76.542,244.422 C79.9,241.339 85.064,235.552 87.426,227.458 C91.221,214.45 87.992,200.74 80.929,203.312 C73.868,205.885 82.537,216.322 77.019,219.957 C64.696,228.076 57.498,215.849 57.498,215.849 C57.498,215.849 50.95,203.173 57.935,197.755 C63.592,193.368 74.087,206.567 77.413,200.168 C80.919,193.422 64.738,184.325 52.394,188.434 C40.05,192.542 44.877,213.414 44.877,213.414 C44.877,213.414 21.448,194.824 17.693,199.855 C13.682,205.232 38.771,223.531 38.771,223.531 C38.771,223.531 8.441,211.882 7.056,216.97 C4.82,225.186 34.849,234.667 34.849,234.667 C34.849,234.667 4.775,228.828 7.967,236.231 C12.382,246.469 60.283,253.918 60.283,253.918 L62.836,252.571 L65.581,257.512 L58.334,260.505 C58.334,260.505 86.37,338.488 95.036,338.488 C98.45,338.488 111.568,320.466 122.189,304.016 C119.729,317.175 116.938,333.175 114.68,349.005 C109.816,383.089 108.646,424.845 110.811,427.01 C111.206,427.404 112.45,427.718 114.384,427.97 L140.333,653.172 L162.5,653.506 L169.924,448.472 L171.33,446.916 L172.736,448.472 L180.16,653.506 L202.328,653.172 L228.221,428.455 C228.477,428.283 228.724,428.085 228.967,427.871 C230.502,427.637 231.505,427.355 231.85,427.01 C232.255,426.605 232.543,424.811 232.713,421.939 C235.74,414.216 236.418,402.068 233.919,393.121 L237.078,387.081 L239.819,388.206 L268.974,326.29 C270.295,324.65 271.105,322.732 271.105,320.616 C271.105,311.283 222.574,239.367 220.324,238.147 z M209.462,660.241 C201.117,652.404 180.16,654.394 180.16,654.394 L180.16,668.477 L212.008,668.477 C212.008,668.477 216.102,666.478 209.462,660.241 z M133.199,660.241 C126.559,666.478 130.653,668.477 130.653,668.477 L162.5,668.477 L162.5,654.394 C162.5,654.394 141.545,652.404 133.199,660.241 z" fill-opacity="0" stroke="#666666" stroke-width="8" stroke-linecap="round" stroke-linejoin="round"/>
      <path d="M122.337,238.147 C129.331,234.353 158.461,228.03 158.461,228.03 L184.201,228.03 C184.201,228.03 213.33,234.353 220.324,238.147 C222.574,239.367 271.105,311.283 271.105,320.616 C271.105,329.95 255.412,335.506 249.079,329.839 C242.605,324.046 219.957,297.26 210.001,286.159 L132.66,286.159" fill="#B8A993"/>
      <path d="M122.337,238.147 C129.331,234.353 158.461,228.03 158.461,228.03 L184.201,228.03 C184.201,228.03 213.33,234.353 220.324,238.147 C222.574,239.367 271.105,311.283 271.105,320.616 C271.105,329.95 255.412,335.506 249.079,329.839 C242.605,324.046 219.957,297.26 210.001,286.159 L132.66,286.159" fill-opacity="0" stroke="#666666" stroke-width="4" stroke-linecap="round" stroke-linejoin="round"/>
      <path d="M100.221,119.703 C100.221,119.703 72.079,113.896 72.079,139.339 C72.079,154.306 81.767,161.102 101.685,161.387" fill="#FFECD0"/>
      <path d="M100.221,119.703 C100.221,119.703 72.079,113.896 72.079,139.339 C72.079,154.306 81.767,161.102 101.685,161.387" fill-opacity="0" stroke="#666666" stroke-width="4" stroke-linecap="round" stroke-linejoin="round"/>
      <path d="M82.803,140.716 C82.803,140.716 86.492,139.013 90.007,139.034" fill="#FFECD0"/>
      <path d="M82.803,140.716 C82.803,140.716 86.492,139.013 90.007,139.034" fill-opacity="0" stroke="#666666" stroke-width="4" stroke-linecap="round" stroke-linejoin="round"/>
      <path d="M242.439,119.703 C242.439,119.703 270.582,113.896 270.582,139.339 C270.582,154.306 260.894,161.102 240.977,161.387" fill="#FFECD0"/>
      <path d="M242.439,119.703 C242.439,119.703 270.582,113.896 270.582,139.339 C270.582,154.306 260.894,161.102 240.977,161.387" fill-opacity="0" stroke="#666666" stroke-width="4" stroke-linecap="round" stroke-linejoin="round"/>
      <path d="M259.859,140.716 C259.859,140.716 256.17,139.013 252.654,139.034" fill="#FFECD0"/>
      <path d="M259.859,140.716 C259.859,140.716 256.17,139.013 252.654,139.034" fill-opacity="0" stroke="#666666" stroke-width="4" stroke-linecap="round" stroke-linejoin="round"/>
      <path d="M188.921,230.749 L171.33,226.13 L153.74,230.749 L171.497,285.234 z" fill="#FFFFFF"/>
      <path d="M188.921,230.749 L171.33,226.13 L153.74,230.749 L171.497,285.234 L188.921,230.749 z" fill-opacity="0" stroke="#666666" stroke-width="4" stroke-linecap="round" stroke-linejoin="round"/>
      <path d="M179.289,228.514 L177.82,212.997 L171.331,208.778 L164.841,212.997 L163.372,228.514 C163.372,228.514 169.04,239.765 171.331,239.765 C173.622,239.765 179.289,228.514 179.289,228.514" fill="#FFECD0"/>
      <path d="M179.289,228.514 L177.82,212.997 L171.331,208.778 L164.841,212.997 L163.372,228.514 C163.372,228.514 169.04,239.765 171.331,239.765 C173.622,239.765 179.289,228.514 179.289,228.514 z" fill-opacity="0" stroke="#666666" stroke-width="4" stroke-linecap="round" stroke-linejoin="round"/>
      <path d="M163.727,228.126 L157.082,229.871 L155.928,234.474 L158.321,243.396 C158.321,243.396 162.857,239.577 163.471,239.019 C165.566,237.111 171.33,239.765 171.33,239.765 C166.956,235.969 164.699,230.878 163.727,228.126" fill="#FFFFFF"/>
      <path d="M163.727,228.126 L157.082,229.871 L155.928,234.474 L158.321,243.396 C158.321,243.396 162.857,239.577 163.471,239.019 C165.566,237.111 171.33,239.765 171.33,239.765 C166.956,235.969 164.699,230.878 163.727,228.126 z" fill-opacity="0" stroke="#666666" stroke-width="4" stroke-linecap="round" stroke-linejoin="round"/>
      <path d="M178.934,228.126 L185.578,229.871 L186.733,234.474 L184.34,243.396 C184.34,243.396 179.804,239.577 179.189,239.019 C177.094,237.111 171.33,239.765 171.33,239.765 C175.705,235.969 177.963,230.878 178.934,228.126" fill="#FFFFFF"/>
      <path d="M178.934,228.126 L185.578,229.871 L186.733,234.474 L184.34,243.396 C184.34,243.396 179.804,239.577 179.189,239.019 C177.094,237.111 171.33,239.765 171.33,239.765 C175.705,235.969 177.963,230.878 178.934,228.126 z" fill-opacity="0" stroke="#666666" stroke-width="4" stroke-linecap="round" stroke-linejoin="round"/>
      <path d="M251.325,158.19 C251.325,194.538 222.889,224.005 187.811,224.005 L154.992,224.005 C119.914,224.005 91.477,194.538 91.477,158.19 L91.477,88.321 C91.477,51.972 119.914,22.505 154.992,22.505 L187.811,22.505 C222.889,22.505 251.325,51.972 251.325,88.321 z" fill="#FFECD0"/>
      <path d="M251.325,158.19 C251.325,194.538 222.889,224.005 187.811,224.005 L154.992,224.005 C119.914,224.005 91.477,194.538 91.477,158.19 L91.477,88.321 C91.477,51.972 119.914,22.505 154.992,22.505 L187.811,22.505 C222.889,22.505 251.325,51.972 251.325,88.321 L251.325,158.19 z" fill-opacity="0" stroke="#666666" stroke-width="4" stroke-linecap="round" stroke-linejoin="round"/>
      <path d="M167.705,162.422 C167.705,162.422 166.371,168.422 171.623,168.089" fill-opacity="0" stroke="#666666" stroke-width="4" stroke-linecap="round" stroke-linejoin="round"/>
      <path d="M254.759,60.505 C250.759,28.505 233.594,30.505 220.594,22.505 C208.613,15.133 188.516,7.708 171.592,7.708 C154.667,7.708 134.195,15.13 122.21,22.505 C109.21,30.505 92.044,28.505 88.044,60.505 C84.044,92.505 86.029,109.505 91.62,127.505 C91.62,127.505 97.21,98.505 100.21,84.505 C103.21,70.505 121.032,40 126.89,37 C132.747,34 136.593,39.25 171.594,39.25 C206.594,39.25 210.056,34 215.914,37 C221.771,40 239.594,70.505 242.594,84.505 C245.594,98.505 251.184,127.505 251.184,127.505 C256.773,109.505 258.759,92.505 254.759,60.505" fill="#DDDDDD"/>
      <path d="M254.759,60.505 C250.759,28.505 233.594,30.505 220.594,22.505 C208.613,15.133 188.516,7.708 171.592,7.708 C154.667,7.708 134.195,15.13 122.21,22.505 C109.21,30.505 92.044,28.505 88.044,60.505 C84.044,92.505 86.029,109.505 91.62,127.505 C91.62,127.505 97.21,98.505 100.21,84.505 C103.21,70.505 121.032,40 126.89,37 C132.747,34 136.593,39.25 171.594,39.25 C206.594,39.25 210.056,34 215.914,37 C221.771,40 239.594,70.505 242.594,84.505 C245.594,98.505 251.184,127.505 251.184,127.505 C256.773,109.505 258.759,92.505 254.759,60.505 z" fill-opacity="0" stroke="#666666" stroke-width="4" stroke-linecap="round" stroke-linejoin="round"/>
      <path d="M147.68,37.856 C147.68,37.856 124.559,28.602 139.49,14.266" fill-opacity="0" stroke="#666666" stroke-width="4" stroke-linecap="round" stroke-linejoin="round"/>
      <path d="M162.097,39.162 C162.097,39.162 139.096,23.694 153.139,10.099" fill-opacity="0" stroke="#666666" stroke-width="4" stroke-linecap="round" stroke-linejoin="round"/>
      <path d="M130.65,36.079 C130.65,36.079 119.453,32.238 126.165,20.238" fill-opacity="0" stroke="#666666" stroke-width="4" stroke-linecap="round" stroke-linejoin="round"/>
      <path d="M190.413,184.518 C190.413,184.518 181.561,186.518 171.311,186.518 C161.061,186.518 152.248,184.518 152.248,184.518 C152.248,184.518 153.736,203.014 171.163,203.18 L171.163,203.188 C171.221,203.188 171.273,203.184 171.33,203.184 C171.388,203.184 171.44,203.188 171.498,203.188 L171.498,203.18 C188.925,203.014 190.413,184.518 190.413,184.518" fill="#F09A96"/>
      <path d="M190.413,184.518 C190.413,184.518 181.561,186.518 171.311,186.518 C161.061,186.518 152.248,184.518 152.248,184.518 C152.248,184.518 153.736,203.014 171.163,203.18 L171.163,203.188 C171.221,203.188 171.273,203.184 171.33,203.184 C171.388,203.184 171.44,203.188 171.498,203.188 L171.498,203.18 C188.925,203.014 190.413,184.518 190.413,184.518 z" fill-opacity="0" stroke="#666666" stroke-width="3.604" stroke-linecap="round" stroke-linejoin="round"/>
      <path d="M195.83,175.375 C191.496,171.857 179.83,170.502 179.83,170.502 C175.869,169.88 171.247,170.233 171.247,170.233 C171.247,170.233 166.625,169.88 162.664,170.502 C162.664,170.502 150.998,171.857 146.664,175.375 C142.33,178.893 142.664,183.765 142.664,183.765 C142.664,183.765 143.862,185.05 147.112,185.153 C150.362,185.254 150.986,184.748 150.986,184.748 C150.986,184.748 153.68,186.574 156.43,186.675 C159.18,186.777 161.497,186.066 161.497,186.066 C161.497,186.066 163.747,187.183 166.622,187.386 C169.082,187.56 170.8,186.697 171.247,186.443 C171.694,186.697 173.412,187.56 175.872,187.386 C178.747,187.183 180.997,186.066 180.997,186.066 C180.997,186.066 183.314,186.777 186.064,186.675 C188.814,186.574 191.508,184.748 191.508,184.748 C191.508,184.748 192.132,185.254 195.382,185.153 C198.632,185.05 199.83,183.765 199.83,183.765 C199.83,183.765 200.164,178.893 195.83,175.375" fill="#DDDDDD"/>
      <path d="M195.83,175.375 C191.496,171.857 179.83,170.502 179.83,170.502 C175.869,169.88 171.247,170.233 171.247,170.233 C171.247,170.233 166.625,169.88 162.664,170.502 C162.664,170.502 150.998,171.857 146.664,175.375 C142.33,178.893 142.664,183.765 142.664,183.765 C142.664,183.765 143.862,185.05 147.112,185.153 C150.362,185.254 150.986,184.748 150.986,184.748 C150.986,184.748 153.68,186.574 156.43,186.675 C159.18,186.777 161.497,186.066 161.497,186.066 C161.497,186.066 163.747,187.183 166.622,187.386 C169.082,187.56 170.8,186.697 171.247,186.443 C171.694,186.697 173.412,187.56 175.872,187.386 C178.747,187.183 180.997,186.066 180.997,186.066 C180.997,186.066 183.314,186.777 186.064,186.675 C188.814,186.574 191.508,184.748 191.508,184.748 C191.508,184.748 192.132,185.254 195.382,185.153 C198.632,185.05 199.83,183.765 199.83,183.765 C199.83,183.765 200.164,178.893 195.83,175.375 z" fill-opacity="0" stroke="#666666" stroke-width="4" stroke-linecap="round" stroke-linejoin="round"/>
      <path d="M87.426,227.458 C91.221,214.45 87.992,200.74 80.929,203.312 C73.868,205.885 82.537,216.322 77.019,219.957 C64.696,228.076 57.498,215.849 57.498,215.849 C57.498,215.849 50.95,203.173 57.935,197.755 C63.592,193.368 74.087,206.567 77.413,200.168 C80.919,193.422 64.738,184.325 52.394,188.434 C40.05,192.542 44.877,213.414 44.877,213.414 C44.877,213.414 21.448,194.824 17.693,199.855 C13.682,205.232 38.771,223.531 38.771,223.531 C38.771,223.531 8.441,211.882 7.056,216.97 C4.82,225.186 34.849,234.667 34.849,234.667 C34.849,234.667 4.775,228.828 7.967,236.231 C12.382,246.469 60.283,253.918 60.283,253.918 L62.835,252.571 L70.415,266.213 L80.415,260.879 L76.542,244.422 C79.9,241.339 85.064,235.552 87.426,227.458" fill="#FFECD0"/>
      <path d="M87.426,227.458 C91.221,214.45 87.992,200.74 80.929,203.312 C73.868,205.885 82.537,216.322 77.019,219.957 C64.696,228.076 57.498,215.849 57.498,215.849 C57.498,215.849 50.95,203.173 57.935,197.755 C63.592,193.368 74.087,206.567 77.413,200.168 C80.919,193.422 64.738,184.325 52.394,188.434 C40.05,192.542 44.877,213.414 44.877,213.414 C44.877,213.414 21.448,194.824 17.693,199.855 C13.682,205.232 38.771,223.531 38.771,223.531 C38.771,223.531 8.441,211.882 7.056,216.97 C4.82,225.186 34.849,234.667 34.849,234.667 C34.849,234.667 4.775,228.828 7.967,236.231 C12.382,246.469 60.283,253.918 60.283,253.918 L62.835,252.571 L70.415,266.213 L80.415,260.879 L76.542,244.422 C79.9,241.339 85.064,235.552 87.426,227.458 z" fill-opacity="0" stroke="#666666" stroke-width="4" stroke-linecap="round" stroke-linejoin="round"/>
      <path d="M157.082,228.03 C157.082,228.03 127.953,234.353 120.959,238.147 C118.708,239.367 103.989,268.756 98.957,282.964 L81.334,251.005 L58.334,260.505 C58.334,260.505 86.37,338.488 95.036,338.488 C100.348,338.488 129.152,294.862 135.493,281.405" fill="#B8A993"/>
      <path d="M157.082,228.03 C157.082,228.03 127.953,234.353 120.959,238.147 C118.708,239.367 103.989,268.756 98.957,282.964 L81.334,251.005 L58.334,260.505 C58.334,260.505 86.37,338.488 95.036,338.488 C100.348,338.488 129.152,294.862 135.493,281.405" fill-opacity="0" stroke="#666666" stroke-width="4" stroke-linecap="round" stroke-linejoin="round"/>
      <path d="M126.699,116.643 C126.699,116.643 137.214,117.09 142.082,124.054 C136.199,123.205 125.699,127.059 125.699,127.059" fill-opacity="0" stroke="#666666" stroke-width="4" stroke-linecap="round" stroke-linejoin="round"/>
      <path d="M215.997,381.505 L171.33,381.881 L126.664,381.505 L112.534,411.909 L140.333,653.172 L162.5,653.506 L169.924,448.472 L171.33,446.916 L172.736,448.472 L180.16,653.506 L202.328,653.172 L230.127,411.909 z" fill="#B8A993"/>
      <path d="M215.997,381.505 L171.33,381.881 L126.664,381.505 L112.534,411.909 L140.333,653.172 L162.5,653.506 L169.924,448.472 L171.33,446.916 L172.736,448.472 L180.16,653.506 L202.328,653.172 L230.127,411.909 L215.997,381.505 z" fill-opacity="0" stroke="#666666" stroke-width="4" stroke-linecap="round" stroke-linejoin="round"/>
      <path d="M213.244,116.331 C213.244,122.577 210.705,127.641 207.574,127.641 C204.445,127.641 201.906,122.577 201.906,116.331 C201.906,110.085 204.445,105.022 207.574,105.022 C210.705,105.022 213.244,110.085 213.244,116.331" fill="#666666"/>
      <path d="M128.209,273.761 C128.209,273.761 119.977,311.877 114.68,349.005 C109.816,383.089 108.646,424.845 110.811,427.01 C112.874,429.073 138.098,428.961 164.941,429.012 C167.057,429.027 169.187,429.033 171.33,429.028 C173.473,429.033 175.604,429.027 177.719,429.012 C204.563,428.961 229.787,429.073 231.85,427.01 C234.015,424.845 232.846,383.092 227.982,349.009 C222.685,311.88 214.451,273.761 214.451,273.761" fill="#B8A993"/>
      <path d="M128.209,273.761 C128.209,273.761 119.977,311.877 114.68,349.005 C109.816,383.089 108.646,424.845 110.811,427.01 C112.874,429.073 138.098,428.961 164.941,429.012 C167.057,429.027 169.187,429.033 171.33,429.028 C173.473,429.033 175.604,429.027 177.719,429.012 C204.563,428.961 229.787,429.073 231.85,427.01 C234.015,424.845 232.846,383.092 227.982,349.009 C222.685,311.88 214.451,273.761 214.451,273.761" fill-opacity="0" stroke="#666666" stroke-width="4" stroke-linecap="round" stroke-linejoin="round"/>
      <path d="M117.069,87.528 C117.069,87.528 119.388,81.488 127.903,79.597 C135.159,77.989 148.459,83.618 148.459,83.618 z" fill="#DDDDDD"/>
      <path d="M117.069,87.528 C117.069,87.528 119.388,81.488 127.903,79.597 C135.159,77.989 148.459,83.618 148.459,83.618 L117.069,87.528 z" fill-opacity="0" stroke="#666666" stroke-width="4" stroke-linecap="round" stroke-linejoin="round"/>
      <path d="M225.592,87.528 C225.592,87.528 223.273,81.488 214.758,79.597 C207.502,77.989 194.203,83.618 194.203,83.618 z" fill="#DDDDDD"/>
      <path d="M225.592,87.528 C225.592,87.528 223.273,81.488 214.758,79.597 C207.502,77.989 194.203,83.618 194.203,83.618 L225.592,87.528 z" fill-opacity="0" stroke="#666666" stroke-width="4" stroke-linecap="round" stroke-linejoin="round"/>
      <path d="M206.68,173.003 C206.68,173.003 216.838,177.271 216.654,186.019" fill-opacity="0" stroke="#666666" stroke-width="4" stroke-linecap="round" stroke-linejoin="round"/>
      <path d="M166.312,249.572 L171.33,249.212 L176.349,249.572 L179.691,283.001 L171.33,302.708 L162.969,283.001 z" fill="#E3A6BC"/>
      <path d="M166.312,249.572 L171.33,249.212 L176.349,249.572 L179.691,283.001 L171.33,302.708 L162.969,283.001 L166.312,249.572 z" fill-opacity="0" stroke="#666666" stroke-width="4" stroke-linecap="round" stroke-linejoin="round"/>
      <path d="M176.945,239.44 L176.305,248.94 C176.305,248.94 173.711,250.815 171.33,250.815 C168.95,250.815 166.355,248.94 166.355,248.94 L165.717,239.44 z" fill="#E3A6BC"/>
      <path d="M176.945,239.44 L176.305,248.94 C176.305,248.94 173.711,250.815 171.33,250.815 C168.95,250.815 166.355,248.94 166.355,248.94 L165.717,239.44 L176.945,239.44 z" fill-opacity="0" stroke="#666666" stroke-width="4" stroke-linecap="round" stroke-linejoin="round"/>
      <path d="M226.576,374.523 L226.576,384.416 C226.576,386.548 225.623,388.276 224.447,388.276 L204.343,388.276 C203.167,388.276 202.214,386.548 202.214,384.416 L202.214,374.523 z" fill="#B8A993"/>
      <path d="M226.576,374.523 L226.576,384.416 C226.576,386.548 225.623,388.276 224.447,388.276 L204.343,388.276 C203.167,388.276 202.214,386.548 202.214,384.416 L202.214,374.523 L226.576,374.523 z" fill-opacity="0" stroke="#666666" stroke-width="4" stroke-linecap="round" stroke-linejoin="round"/>
      <path d="M116.085,374.523 L116.085,384.416 C116.085,386.548 117.038,388.276 118.214,388.276 L138.318,388.276 C139.494,388.276 140.447,386.548 140.447,384.416 L140.447,374.523 z" fill="#B8A993"/>
      <path d="M116.085,374.523 L116.085,384.416 C116.085,386.548 117.038,388.276 118.214,388.276 L138.318,388.276 C139.494,388.276 140.447,386.548 140.447,384.416 L140.447,374.523 L116.085,374.523 z" fill-opacity="0" stroke="#666666" stroke-width="4" stroke-linecap="round" stroke-linejoin="round"/>
      <path d="M153.74,229.526 L173.919,297.774 L167.504,313.305 L140.422,264.52 L150.756,253.809 L139.089,243.097 z" fill="#B8A993"/>
      <path d="M153.74,229.526 L173.919,297.774 L167.504,313.305 L140.422,264.52 L150.756,253.809 L139.089,243.097 L153.74,229.526 z" fill-opacity="0" stroke="#666666" stroke-width="4.364" stroke-linecap="round" stroke-linejoin="round"/>
      <path d="M188.921,229.526 L151.605,355.732 L202.238,258.929 L191.905,249.929 L203.572,240.929 z" fill="#B8A993"/>
      <path d="M188.921,229.526 L151.605,355.732 L202.238,258.929 L191.905,249.929 L203.572,240.929 L188.921,229.526 z" fill-opacity="0" stroke="#666666" stroke-width="4" stroke-linecap="round" stroke-linejoin="round"/>
      <path d="M159.497,359.505 C159.497,361.438 157.93,363.005 155.997,363.005 C154.064,363.005 152.497,361.438 152.497,359.505 C152.497,357.573 154.064,356.005 155.997,356.005 C157.93,356.005 159.497,357.573 159.497,359.505" fill="#B8A993"/>
      <path d="M159.497,359.505 C159.497,361.438 157.93,363.005 155.997,363.005 C154.064,363.005 152.497,361.438 152.497,359.505 C152.497,357.573 154.064,356.005 155.997,356.005 C157.93,356.005 159.497,357.573 159.497,359.505 z" fill-opacity="0" stroke="#666666" stroke-width="4" stroke-linecap="round" stroke-linejoin="round"/>
      <path d="M192.164,359.505 C192.164,361.438 190.598,363.005 188.664,363.005 C186.73,363.005 185.164,361.438 185.164,359.505 C185.164,357.573 186.73,356.005 188.664,356.005 C190.598,356.005 192.164,357.573 192.164,359.505" fill="#B8A993"/>
      <path d="M192.164,359.505 C192.164,361.438 190.598,363.005 188.664,363.005 C186.73,363.005 185.164,361.438 185.164,359.505 C185.164,357.573 186.73,356.005 188.664,356.005 C190.598,356.005 192.164,357.573 192.164,359.505 z" fill-opacity="0" stroke="#666666" stroke-width="4" stroke-linecap="round" stroke-linejoin="round"/>
      <path d="M150.994,315.505 C150.994,317.438 149.427,319.005 147.494,319.005 C145.561,319.005 143.994,317.438 143.994,315.505 C143.994,313.573 145.561,312.005 147.494,312.005 C149.427,312.005 150.994,313.573 150.994,315.505" fill="#B8A993"/>
      <path d="M150.994,315.505 C150.994,317.438 149.427,319.005 147.494,319.005 C145.561,319.005 143.994,317.438 143.994,315.505 C143.994,313.573 145.561,312.005 147.494,312.005 C149.427,312.005 150.994,313.573 150.994,315.505 z" fill-opacity="0" stroke="#666666" stroke-width="4" stroke-linecap="round" stroke-linejoin="round"/>
      <path d="M200.668,315.505 C200.668,317.438 199.101,319.005 197.168,319.005 C195.234,319.005 193.668,317.438 193.668,315.505 C193.668,313.573 195.234,312.005 197.168,312.005 C199.101,312.005 200.668,313.573 200.668,315.505" fill="#B8A993"/>
      <path d="M200.668,315.505 C200.668,317.438 199.101,319.005 197.168,319.005 C195.234,319.005 193.668,317.438 193.668,315.505 C193.668,313.573 195.234,312.005 197.168,312.005 C199.101,312.005 200.668,313.573 200.668,315.505 z" fill-opacity="0" stroke="#666666" stroke-width="4" stroke-linecap="round" stroke-linejoin="round"/>
      <path d="M159.497,395.005 C159.497,396.938 157.93,398.505 155.997,398.505 C154.064,398.505 152.497,396.938 152.497,395.005 C152.497,393.073 154.064,391.505 155.997,391.505 C157.93,391.505 159.497,393.073 159.497,395.005" fill="#B8A993"/>
      <path d="M159.497,395.005 C159.497,396.938 157.93,398.505 155.997,398.505 C154.064,398.505 152.497,396.938 152.497,395.005 C152.497,393.073 154.064,391.505 155.997,391.505 C157.93,391.505 159.497,393.073 159.497,395.005 z" fill-opacity="0" stroke="#666666" stroke-width="4" stroke-linecap="round" stroke-linejoin="round"/>
      <path d="M192.164,395.005 C192.164,396.938 190.598,398.505 188.664,398.505 C186.73,398.505 185.164,396.938 185.164,395.005 C185.164,393.073 186.73,391.505 188.664,391.505 C190.598,391.505 192.164,393.073 192.164,395.005" fill="#B8A993"/>
      <path d="M192.164,395.005 C192.164,396.938 190.598,398.505 188.664,398.505 C186.73,398.505 185.164,396.938 185.164,395.005 C185.164,393.073 186.73,391.505 188.664,391.505 C190.598,391.505 192.164,393.073 192.164,395.005 z" fill-opacity="0" stroke="#666666" stroke-width="4" stroke-linecap="round" stroke-linejoin="round"/>
      <path d="M87.143,80.258 L101.212,80.258" fill="#B8A993"/>
      <path d="M87.143,80.258 L101.212,80.258" fill-opacity="0" stroke="#666666" stroke-width="4" stroke-linecap="round" stroke-linejoin="round"/>
      <path d="M86.252,91.334 L98.929,90.619" fill="#B8A993"/>
      <path d="M86.252,91.334 L98.929,90.619" fill-opacity="0" stroke="#666666" stroke-width="4" stroke-linecap="round" stroke-linejoin="round"/>
      <path d="M255.519,80.258 L241.449,80.258" fill="#B8A993"/>
      <path d="M255.519,80.258 L241.449,80.258" fill-opacity="0" stroke="#666666" stroke-width="4" stroke-linecap="round" stroke-linejoin="round"/>
      <path d="M256.408,91.334 L243.732,90.619" fill="#B8A993"/>
      <path d="M256.408,91.334 L243.732,90.619" fill-opacity="0" stroke="#666666" stroke-width="4" stroke-linecap="round" stroke-linejoin="round"/>
      <path d="M159.312,135.229 C159.312,135.229 164.662,132.515 171.329,132.515 C177.996,132.515 182.748,135.047 182.748,135.047" fill-opacity="0" stroke="#666666" stroke-width="3.083" stroke-linecap="round" stroke-linejoin="round"/>
      <path d="M90.112,122.294 L122.149,133.801" fill-opacity="0" stroke="#666666" stroke-width="4" stroke-linecap="round" stroke-linejoin="round"/>
      <path d="M252.549,122.294 L220.512,133.801" fill-opacity="0" stroke="#666666" stroke-width="4" stroke-linecap="round" stroke-linejoin="round"/>
      <path d="M157.137,132.628 L124.689,132.628 C123.875,132.628 123.214,133.206 123.214,133.919 L123.214,141.059 C123.176,141.369 123.153,141.682 123.153,142.001 C123.153,146.75 127.548,150.601 132.97,150.601 L148.795,150.601 C153.689,150.601 157.736,147.458 158.478,143.353 C158.561,143.191 158.611,143.011 158.611,142.822 L158.611,133.919 C158.611,133.206 157.951,132.628 157.137,132.628 z" fill-opacity="0" stroke="#666666" stroke-width="4" stroke-linecap="round" stroke-linejoin="round"/>
      <path d="M185.524,132.628 L217.973,132.628 C218.786,132.628 219.447,133.206 219.447,133.919 L219.447,141.059 C219.485,141.369 219.508,141.682 219.508,142.001 C219.508,146.75 215.113,150.601 209.691,150.601 L193.867,150.601 C188.972,150.601 184.925,147.458 184.183,143.353 C184.1,143.191 184.05,143.011 184.05,142.822 L184.05,133.919 C184.05,133.206 184.71,132.628 185.524,132.628 z" fill-opacity="0" stroke="#666666" stroke-width="4" stroke-linecap="round" stroke-linejoin="round"/>
      <path d="M233.572,393.785 L243.01,375.741 L231.951,369.686 L216.412,389.005" fill="#FFECD0"/>
      <path d="M233.572,393.785 L243.01,375.741 L231.951,369.686 L216.412,389.005" fill-opacity="0" stroke="#666666" stroke-width="4" stroke-linecap="round" stroke-linejoin="round"/>
      <path d="M218.271,387.157 C217.188,388.414 213.441,388.764 211.327,393.302 C207.367,401.799 207.797,411.744 213.312,413.135 C218.356,414.406 216.158,406.021 216.158,406.021 C216.158,406.021 216.63,434.285 227.523,428.866 C234.735,425.277 237.649,404.963 233.643,392.171 C232.912,389.839 233.643,392.171 233.643,392.171" fill="#FFECD0"/>
      <path d="M218.271,387.157 C217.188,388.414 213.441,388.764 211.327,393.302 C207.367,401.799 207.797,411.744 213.312,413.135 C218.356,414.406 216.158,406.021 216.158,406.021 C216.158,406.021 216.63,434.285 227.523,428.866 C234.735,425.277 237.649,404.963 233.643,392.171 C232.912,389.839 233.643,392.171 233.643,392.171" fill-opacity="0" stroke="#666666" stroke-width="4" stroke-linecap="round" stroke-linejoin="round"/>
      <path d="M270.971,322.05 L239.819,388.206 L218.943,379.639 L242.412,320.838" fill="#B8A993"/>
      <path d="M270.971,322.05 L239.819,388.206 L218.943,379.639 L242.412,320.838" fill-opacity="0" stroke="#666666" stroke-width="4" stroke-linecap="round" stroke-linejoin="round"/>
    </g>
  </g>
</svg>
