<?xml version="1.0" encoding="utf-8"?>
<!DOCTYPE svg PUBLIC "-//W3C//DTD SVG 1.1//EN" "http://www.w3.org/Graphics/SVG/1.1/DTD/svg11.dtd">
<svg version="1.1" id="Layer_1" xmlns="http://www.w3.org/2000/svg" xmlns:xlink="http://www.w3.org/1999/xlink" x="0px" y="0px"
	 viewBox="0 0 1142 1610.4865" enable-background="new 0 0 1142 1610.4865" xml:space="preserve">
<g>
	<path stroke="#000000" stroke-width="0.0645" d="M193.141,920.7601c45.6236-43.0935,98.4058-78.6551,155.7008-104.2955
		c21.4265,73.2051,43.0023,146.3604,64.4951,219.5489c9.8133,33.1393,19.3445,66.3616,29.3485,99.4429
		c0.1659,0.6718,0.3567,1.3604,0.5723,2.0822c16.6402,57.2948,33.6454,114.4819,50.3767,171.7518
		c0.5391,1.8251,0.3068,3.7661,0.0498,5.6656c-5.7734,38.1663-9.7302,76.6974-9.8548,115.3364
		c0.2904,22.986,1.4932,46.2457,7.7063,68.4935c3.7827,14.3092,10.0539,28.5935,21.0697,38.8215
		c8.1293,8.0546,19.0706,12.9653,30.3439,14.5912c6.8602,1.3439,13.9111,1.5596,20.8873,1.1697
		c10.6013-0.0581,21.1943,0.282,31.7955,0.1161c14.4585-0.2904,29.4977-4.0563,40.5883-13.7701
		c8.9091-7.3411,14.9314-17.5193,19.1786-28.1123c7.4325-19.303,9.9543-40.0243,11.3395-60.5217
		c2.0821-45.9471-2.7787-91.861-9.4149-137.2689c-0.6387-5.0518-2.4885-10.1449-1.2858-15.2383
		c19.8337-70.1277,40.0077-140.1556,59.966-210.2417c4.7116-16.6403,9.5807-33.2306,14.1846-49.8955
		c11.157-38.6225,22.1068-77.2948,33.1642-115.942c3.6417-12.8079,7.3164-25.6074,10.9745-38.4068
		c6.4869-22.4634,12.7747-44.9765,19.3278-67.415c76.5398,34.2509,144.8093,86.3611,199.0681,150.2012
		c43.1185,50.6337,77.4523,108.6671,101.3839,170.7066c27.4323,70.9076,41.0696,147.049,40.5969,223.0497
		c-0.6471,27.0258-9.9626,53.5455-25.4415,75.6272c-17.1793,24.8441-40.6714,44.678-65.8223,61.0859
		c-28.0627,18.0504-58.4728,32.1852-89.6794,43.8815c-32.1854,12.0032-65.2831,21.4515-98.7377,29.1659
		c-39.8749,9.1163-80.2809,15.8107-120.8942,20.5389c-81.2431,9.4399-163.3074,11.5221-244.9572,7.0178
		c-80.4053-4.6952-160.7277-15.5288-238.5283-36.7145c-34.226-9.4152-67.9542-20.9041-100.2308-35.7275
		c-28.1704-13.04-55.4202-28.5437-79.4016-48.3693c-23.6247-19.5021-44.2051-43.8153-55.0552-72.7738
		c-6.4703-17.0632-9.3073-35.4702-8.5524-53.6947c0.8212-94.3164,23.7408-188.4668,67.1579-272.24
		C104.8801,1019.7219,145.0455,966.0767,193.141,920.7601 M565.479,1553.6172c3.0196,10.0704,5.782,20.2321,9.0087,30.2441
		c2.7955-10.1366,5.8979-20.1903,8.5441-30.3685c-0.5476,0.0332-1.6425,0.0994-2.1901,0.141
		c-4.2387-0.3069-8.4777-0.1825-12.6998-0.0663C567.4783,1553.5758,566.1427,1553.6089,565.479,1553.6172z"/>
	<linearGradient id="SVGID_1_" gradientUnits="userSpaceOnUse" x1="440.1108" y1="518.8217" x2="861.3607" y2="97.5718">
		<stop  offset="0" style="stop-color:#A3A3A3"/>
		<stop  offset="1" style="stop-color:#7A7571"/>
	</linearGradient>
	<path fill="url(#SVGID_1_)" d="M962.2798,411.6342c0.0083-10.8999-0.564-21.7915-1.236-32.6665
		c-0.1244-12.0861-1.6923-24.081-2.5716-36.1173c-0.4065-5.6324-1.1198-11.2399-1.8828-16.8309
		c-1.2692-9.415-2.1984-18.8882-4.0482-28.212c-0.4148-2.389-0.7797-4.7863-1.2277-7.1422
		c-0.2987-1.3687-0.6221-2.7126-0.8876-4.0481c-0.6636-2.555-1.2028-5.1431-1.4849-7.7478
		c-3.8572-21.3683-9.6804-42.3718-16.6732-62.9274c-2.895-8.544-6.2463-16.9221-9.7801-25.2091
		c-3.1356-8.1541-7.2666-15.8604-10.9579-23.749c-1.6093-3.0278-3.3513-5.9643-5.0186-8.9422
		c-0.1493-0.2738-0.4646-0.8212-0.6222-1.095c-9.133-16.7812-20.5306-32.1936-32.6334-46.9259
		c-1.9077-1.9576-3.9651-3.7411-5.9974-5.5329c-4.0231-5.8813-9.7054-10.2612-14.5745-15.3792
		c-7.0096-6.1385-14.1517-12.1608-21.634-17.7103c-3.4426-2.1899-6.6361-4.7033-9.9127-7.1006
		c-4.9193-2.671-9.4816-5.9394-14.4504-8.486c-12.1109-7.3993-25.1096-13.2475-38.2657-18.4983
		c-11.6299-4.413-23.3758-8.7183-35.5284-11.4225c-15.7111-4.9024-32.0276-7.5486-48.2448-10.1367
		c-14.948-2.0821-29.9789-3.6333-45.0513-4.4048c-5.8647-0.1659-11.688-0.846-17.5443-0.9041
		c-12.3849-0.2157-24.7778-0.4065-37.1459,0.1244c-11.1487-0.0663-22.2892,0.3649-33.4047,1.1945
		c-11.1653,0.3152-22.0902,2.8287-33.214,3.6002c0.116,0.3732,0.2572,0.7631,0.423,1.1695
		c-17.1627,1.6259-33.7863,6.5118-50.493,10.5017c-7.8472,1.825-15.4622,4.4877-23.185,6.7191
		c-10.485,2.9864-20.5721,7.1588-30.8415,10.7506c-6.7522,2.9199-13.5627,5.6822-20.3066,8.5855
		c-6.0638,2.6378-11.8788,5.79-17.8181,8.6767c-3.1273,1.5264-6.4288,2.6793-9.3819,4.5292
		c-2.4554,1.5429-4.8775,3.1355-7.4242,4.5125c-5.9393,3.3844-11.9782,6.6279-17.6522,10.4519
		c-6.9513,4.6702-14.1683,8.9422-20.7712,14.1018c-7.366,5.591-14.9147,10.9662-21.7168,17.2541
		c-9.1247,7.4159-17.337,15.8355-25.6322,24.139c-6.8352,7.4906-13.4465,15.1968-20.0246,22.9196
		c-2.1484,2.8867-4.1144,5.9145-6.2546,8.8178c-5.6905,8.0878-11.3478,16.2835-15.711,25.1842
		c-6.1219,9.6141-10.3275,20.2652-15.4456,30.4102c-4.2057,9.0832-7.897,18.4236-10.535,28.0875
		c-1.8581,7.3911-3.2517,15.454-0.6055,22.8367c0.9291,2.1318,2.1236,4.1476,3.2684,6.1965
		c-1.7006,0.1991-3.3845,0.4148-5.0601,0.6221c6.296-0.9622,11.5054,3.5752,17.5775,4.2804
		c6.7025,0.6221,13.5046-0.5143,19.6265-3.3513c16.0844-7.1172,31.3558-15.9434,47.4071-23.1187
		c8.6518-3.9817,18.3406-3.6333,27.6147-4.5873c18.8383-0.9457,37.8924-0.7217,56.4569,2.9697
		c7.0013,1.2608,13.8116,3.3927,20.7214,5.0932c5.8565,2.6628,11.9701,4.8029,17.6192,7.9385
		c8.5937,4.4213,16.3249,10.2529,24.3629,15.5784c2.1319,1.3438,4.355,2.7789,6.9266,3.1272
		c2.5631,0.1826,5.035-0.7714,7.4491-1.5595c9.5644-3.401,19.2116-6.5448,28.9003-9.556
		c15.6946-5.0767,31.6546-9.299,47.6062-13.4797c57.2119-14.1018,116.8377-21.8993,175.6259-14.4337
		c1.5677,0.2406,3.1439,0.5806,4.7282,0.9457c10.7755,0.9954,21.3186,3.6996,31.7706,6.4288
		c16.408,4.3467,32.1605,10.8086,47.3738,18.3075c3.3762,1.7337,6.6115,3.7578,9.8714,5.7403
		c12.1856,6.7274,23.21,15.3295,33.7531,24.3713c9.3902,8.1044,17.8596,17.2208,25.7234,26.8017
		c2.2314,2.6628,4.4876,5.3089,6.6196,8.0712c5.45,7.8723,11.1902,15.5701,15.9267,23.9151
		c8.934,14.4834,16.3168,29.8627,22.9695,45.5074c6.3126,15.0143,11.7626,30.3853,16.5489,45.9554
		c0.8793,2.8618,1.9659,5.649,2.9116,8.5109c0.0166,0.4479,0.0579,1.3521,0.0745,1.8083
		c6.6279,20.232,11.3231,41.0529,18.0173,61.2683c2.8701,7.0592,5.1596,14.8402,10.7339,20.3315
		c2.1566,2.331,5.4334,2.5384,8.4279,2.4719c1.6009-18.8217,3.3098-37.6518,4.131-56.5316
		c0.4812-11.5968,1.4434-23.1685,1.4102-34.7735c-0.0166-5.0435,0.0166-10.087,0.3236-15.1138l0.0332-0.8295
		C962.7278,433.152,962.2383,422.3931,962.2798,411.6342z"/>
	<linearGradient id="SVGID_2_" gradientUnits="userSpaceOnUse" x1="258.2127" y1="260.0199" x2="833.041" y2="694.2517">
		<stop  offset="0" style="stop-color:#BFBFBF"/>
		<stop  offset="1" style="stop-color:#A9A9A9"/>
	</linearGradient>
	<path fill="url(#SVGID_2_)" stroke="#A9A9A9" stroke-width="0.0778" d="M919.2857,467.0959
		c-0.0166-0.4562-0.0579-1.3604-0.0745-1.8083c-0.9457-2.8619-2.0323-5.6491-2.9116-8.5109
		c-4.7863-15.5701-10.2363-30.9411-16.5489-45.9554c-6.6527-15.6447-14.0356-31.024-22.9695-45.5074
		c-4.7365-8.345-10.4767-16.0429-15.9267-23.9151c-2.132-2.7623-4.3882-5.4084-6.6196-8.0712
		c-7.8638-9.5809-16.3332-18.6973-25.7234-26.8017c-10.5432-9.0418-21.5675-17.6439-33.7531-24.3713
		c-3.2599-1.9826-6.4952-4.0067-9.8714-5.7403c-15.2133-7.4989-30.9658-13.9608-47.3738-18.3075
		c-10.452-2.7291-20.9952-5.4334-31.7706-6.4288c-1.5843-0.3651-3.1605-0.7051-4.7282-0.9457
		c-58.7881-7.4657-118.4139,0.3318-175.6259,14.4337c-15.9516,4.1807-31.9116,8.403-47.6062,13.4797
		c-9.6888,3.0111-19.3359,6.155-28.9003,9.556c-2.414,0.7881-4.886,1.7421-7.4491,1.5595
		c-2.5716-0.3484-4.7946-1.7834-6.9266-3.1272c-8.038-5.3255-15.7692-11.1571-24.3629-15.5784
		c-5.6491-3.1356-11.7627-5.2757-17.6192-7.9385c-6.9098-1.7005-13.7201-3.8324-20.7214-5.0932
		c-18.5645-3.6914-37.6186-3.9154-56.4569-2.9697c-9.2742,0.954-18.9629,0.6055-27.6147,4.5873
		c-16.0513,7.1754-31.3227,16.0015-47.4071,23.1187c-6.1219,2.837-12.924,3.9734-19.6265,3.3513
		c-0.6221,1.7337-1.2277,3.4756-1.7337,5.2591c-8.8012,31.3476-14.0106,63.7236-15.0641,96.2658
		c-1.0535,18.4402,0.1411,36.897,1.4101,55.2874c0.4895,5.2426,1.6673,10.4602,1.2029,15.7609
		c1.1281,2.8785,1.7835,5.9145,2.107,9.0085c3.5586,23.5004,9.556,46.5776,17.171,69.0825
		c3.5005,9.6306,6.9431,19.3193,11.2897,28.6184c15.1055,34.9559,35.379,67.6721,59.8913,96.8132
		c5.3753,6.7854,11.7046,12.733,17.1214,19.4937c5.9642,5.1097,10.9081,11.3145,17.1959,16.076
		c5.143,5.342,10.9164,10.0206,16.6566,14.7073c11.6797,9.7136,24.1142,18.4901,36.8806,26.7107
		c4.8277,2.9695,9.7137,5.8397,14.4502,8.967c5.5743,2.6297,11.0078,5.533,16.3581,8.6188
		c14.2594,6.9098,28.6848,13.6041,43.7821,18.5065c5.0103,1.9411,10.1035,3.7081,15.3046,5.1266
		c49.3481,14.8815,101.9149,19.4106,153.0048,12.3846c0.2323-0.0332,0.6969-0.1077,0.9375-0.1409
		c19.618-2.4803,38.9625-6.9183,57.9088-12.5425c28.5104-8.9339,56.0754-21.0614,81.5831-36.6564
		c6.2214-3.4673,11.7462-8.0712,18.2245-11.0742c7.333-6.2214,15.5038-11.3643,22.8699-17.5359
		c11.381-9.05,22.0736-18.9297,32.4673-29.0913c2.0159-2.0738,3.9402-4.2387,5.9727-6.3042
		c4.3799-4.3799,7.7476-9.664,12.3182-13.8615c25.2838-28.7843,45.6983-61.6913,61.4675-96.556
		c5.9891-13.2806,10.7672-27.0341,15.8273-40.6714C930.6088,508.1488,925.9136,487.3279,919.2857,467.0959z"/>
	<linearGradient id="SVGID_3_" gradientUnits="userSpaceOnUse" x1="508.3774" y1="881.3224" x2="648.8427" y2="1021.7877">
		<stop  offset="0" style="stop-color:#2372DB"/>
		<stop  offset="1" style="stop-color:#245091"/>
	</linearGradient>
	<path fill="url(#SVGID_3_)" stroke="#245091" stroke-width="0.0778" d="M667.0123,920.2211
		c-0.531-6.2297-2.0987-12.4262-5.1512-17.9011c-5.5248-10.9828-16.8808-17.6107-28.3448-20.9039
		c-4.8608-1.4434-9.8463-2.414-14.8566-3.0278c-2.6212-0.3151-5.2343-0.5308-7.8389-0.7133
		c-5.1595,0.1327-10.3192,0.1576-15.4623,0.4065c-14.6243-0.2821-29.2653-0.3153-43.8815,0.0332
		c-3.8904-0.0083-7.7727-0.1991-11.6382-0.4147c-13.5709,0.8708-27.5981,3.6581-38.9542,11.5385
		c-8.1127,5.5909-13.6954,14.4585-15.6945,24.0727c-2.1319,10.0786-1.402,20.5638,0.4314,30.6507
		c0.6469,3.5919,1.5511,7.1506,2.5382,10.6843c2.9365,11.721,7.7063,22.8614,12.4594,33.9438l0.3732-0.2987
		c1.3605,3.9236,3.3513,7.5985,5.4583,11.1902c3.3264,6.8602,7.4407,13.3055,11.4308,19.8008
		c6.7522,10.0123,13.8447,19.8669,22.314,28.5188c5.1598,5.674,10.9415,10.8252,17.3287,15.1057
		c4.8196,3.1271,10.1367,5.682,15.8521,6.6278c0.9291-0.0581,1.883-0.083,2.8537-0.0664c0.3981,0,1.2028,0.0083,1.6092,0.0166
		c12.3265-2.223,22.2395-10.7671,30.8996-19.303c8.3947-8.4279,15.653-17.9259,22.3804-27.7141
		c12.899-19.3362,23.4423-40.3231,30.4517-62.5044c1.6424-5.7651,3.2682-11.5552,4.0648-17.4946
		C667.1782,935.1771,667.6345,927.6369,667.0123,920.2211z"/>
	<linearGradient id="SVGID_4_" gradientUnits="userSpaceOnUse" x1="483.8295" y1="1311.5026" x2="667.2259" y2="1311.5026">
		<stop  offset="0" style="stop-color:#2372DB"/>
		<stop  offset="1" style="stop-color:#245091"/>
	</linearGradient>
	<path fill="url(#SVGID_4_)" stroke="#245091" stroke-width="0.0778" d="M657.3236,1313.8114
		c-0.6387-5.0518-2.4885-10.1449-1.2858-15.2383c-0.3237,0.0913-0.9788,0.2655-1.3107,0.3566
		c-0.1658-1.4846-0.3234-2.9529-0.4397-4.3879c-3.6083-20.8044-7.7891-41.4926-12.1772-62.1394
		c-2.1071-8.8759-4.1061-17.7849-6.5781-26.5613c-0.7716-4.5624-2.0242-9.0167-3.2269-13.4631
		c-3.4009-13.0565-7.1919-25.9969-11.1487-38.8877c-3.3181-10.5847-6.9928-21.0533-10.8915-31.4307
		c-1.6177-4.1227-3.31-8.1956-5.027-12.2603c-2.7208-6.8021-6.0472-13.3386-9.3736-19.8503
		c-4.1974-7.2832-8.7017-15.0309-16.1923-19.3528c-0.6304-0.4148-1.2443-0.7797-1.8332-1.1115
		c-0.4064-0.0083-1.2111-0.0166-1.6092-0.0166c-0.9707-0.0166-1.9246,0.0083-2.8537,0.0664
		c-7.7974,3.5172-12.5422,11.0491-16.8061,18.1c-6.0471,10.9249-11.074,22.3804-15.5618,34.0353
		c-7.7974,20.489-14.1597,41.4926-20.0826,62.5872c-4.5541,17.6273-8.9919,35.2961-12.9072,53.0809
		c-5.0352,23.0524-9.2991,46.2706-13.1895,69.547c-0.3982,2.671-0.7714,5.3669-1.1447,8.0712
		c-5.7734,38.1663-9.7302,76.6974-9.8548,115.3364c0.2904,22.986,1.4932,46.2457,7.7063,68.4935
		c3.7827,14.3092,10.0539,28.5935,21.0697,38.8215c8.1293,8.0546,19.0706,12.9653,30.3439,14.5912
		c6.8602,1.3439,13.9111,1.5596,20.8873,1.1697c10.6013-0.0581,21.1943,0.282,31.7955,0.1161
		c14.4585-0.2904,29.4977-4.0563,40.5883-13.7701c8.9091-7.3411,14.9314-17.5193,19.1786-28.1123
		c7.4325-19.303,9.9543-40.0243,11.3395-60.5217C668.8206,1405.1332,663.9598,1359.2194,657.3236,1313.8114z"/>
	<linearGradient id="SVGID_5_" gradientUnits="userSpaceOnUse" x1="486.9008" y1="763.1999" x2="744.4537" y2="1252.1771">
		<stop  offset="0" style="stop-color:#FFFFFF"/>
		<stop  offset="1" style="stop-color:#AEAEAE"/>
	</linearGradient>
	<path fill="url(#SVGID_5_)" stroke="#D3D3D3" stroke-width="0.0778" d="M766.1896,804.2625
		c-4.4628-1.7504-9.6805-2.1153-13.231-5.649c-0.1656,0.2073-0.4893,0.6055-0.6464,0.8046
		c-8.2292-3.3347-16.848-5.4996-25.3089-8.1044c-8.4612-2.6046-17.063-4.7282-25.6653-6.7522
		c-4.9771-1.2941-10.2693-1.767-14.7653-4.4463c-18.9465,5.6241-38.2908,10.0622-57.9092,12.5424
		c-0.2406,0.0332-0.7048,0.1077-0.9373,0.141c-51.09,7.026-103.6567,2.4968-153.005-12.3847
		c-41.8053,0-125.8796,36.0509-125.8796,36.0509l6.1631,13.5751c1.1609,3.9933,2.4687,7.9524,3.5344,11.9741
		c7.1254,23.1269,13.3966,46.5276,20.8376,69.5634c3.4505,14.608,8.4276,28.8092,12.3926,43.2928
		c2.1155,6.9015,3.8244,13.9524,6.4871,20.6882c0.9956,6.5282,3.459,12.6917,5.1845,19.0541
		c1.435,5.0765,2.8118,10.1948,4.7199,15.1387c1.269,8.1873,4.3882,15.9019,6.8853,23.7656
		c1.5181,9.5977,5.2922,18.6146,7.7889,27.9714c1.7668,6.7607,4.0731,13.3719,5.5826,20.2072
		c1.0454,4.9191,3.4756,9.4069,4.6535,14.3009c0.7963,3.3264,1.7753,6.6113,3.0196,9.8134c0.2653,2.2064,0.531,4.4377,1.3771,6.5448
		c2.107,5.3171,3.3015,10.933,5.2838,16.3082c0.9044,2.1901,0.3815,4.546-0.066,6.7939c0.1657,0.6718,0.3568,1.3604,0.5723,2.0822
		c1.3686,0.9539,2.9944,1.9326,3.3845,3.7494c1.4103,4.5458,2.538,9.1992,4.504,13.5708
		c0.2738,6.6528,3.4922,12.5674,5.3919,18.8218c1.6761,5.3423,2.7875,10.8419,4.5044,16.184
		c1.5679,5.9561,4.4214,11.4806,5.9391,17.4614c0.838,3.7162,1.8089,7.4159,3.1277,11.016
		c1.7587,4.8113,2.3059,9.9708,4.1391,14.7738c2.2565,5.9393,4.0816,12.0364,5.8816,18.1415
		c3.2849,12.8409,7.0922,25.5493,10.6343,38.3322c1.7834,5.649,3.3841,11.3811,4.0646,17.2955
		c3.8904-23.2764,8.1542-46.4946,13.1897-69.547c3.9151-17.7849,8.3527-35.4537,12.907-53.0809
		c5.9229-21.0946,12.2852-42.0981,20.0826-62.5873c4.4879-11.6548,9.5148-23.1102,15.5616-34.0352
		c4.2642-7.0509,9.0089-14.5829,16.8063-18.1c-5.7155-0.9458-11.0325-3.5007-15.8521-6.6278
		c-6.3875-4.2805-12.1689-9.4318-17.3287-15.1058c-8.4694-8.6517-15.562-18.5063-22.314-28.5187
		c-3.9901-6.4952-8.1044-12.9406-11.431-19.8007c-2.107-3.5917-4.0974-7.2666-5.4583-11.1902l-0.373,0.2987
		c-4.7531-11.0825-9.5229-22.2229-12.4594-33.9439c-0.9871-3.5338-1.8915-7.0924-2.538-10.6843
		c-1.8336-10.0869-2.5635-20.5721-0.4318-30.6508c1.9993-9.6142,7.5819-18.4817,15.6944-24.0726
		c11.3565-7.8804,25.3838-10.6677,38.9542-11.5386c3.8657-0.4396,7.748-0.7882,11.655-0.9291
		c11.1235-0.1077,22.2476,0.0249,33.3796-0.0664c8.6435,0.1079,17.3454-0.1576,25.9476,0.9706
		c2.6044,0.1825,5.2177,0.3981,7.8392,0.7133c5.0103,0.6138,9.9955,1.5845,14.8564,3.0279
		c11.4638,3.2932,22.8203,9.921,28.345,20.9039c3.0524,5.4749,4.6199,11.6714,5.1513,17.9011
		c0.6221,7.4159,0.1656,14.9561-1.3771,22.2476c-0.7963,5.9395-2.4222,11.7296-4.065,17.4947
		c-7.0092,22.1813-17.5524,43.1682-30.4516,62.5043c-6.7273,9.7881-13.9856,19.2863-22.38,27.7142
		c-8.6606,8.5358-18.5735,17.08-30.8997,19.303c0.5889,0.3317,1.2026,0.6967,1.8333,1.1115
		c7.4904,4.3219,11.9948,12.0695,16.1918,19.3527c3.3265,6.5118,6.6531,13.0483,9.3738,19.8503
		c1.717,4.0648,3.4092,8.1377,5.027,12.2604c3.8989,10.3773,7.5734,20.8459,10.8915,31.4307
		c3.9568,12.8907,7.7476,25.8311,11.1487,38.8877c1.2026,4.4463,2.4553,8.9008,3.2269,13.4631
		c2.472,8.7764,4.4708,17.6854,6.5778,26.5612c4.3882,20.6469,8.569,41.3351,12.1775,62.1395
		c3.0362-7.8225,4.7119-16.0596,7.1923-24.0562c1.9409-7.416,4.4627-14.6743,6.2043-22.14
		c2.4141-9.4564,5.4583-18.7386,7.5653-28.2699c3.7328-8.9838,5.5167-18.5813,8.3203-27.8553
		c3.2347-13.1563,7.507-26.0138,10.6841-39.1781c4.5291-15.7775,9.3734-31.4636,14.0852-47.1915
		c0.6387-2.3474,1.1779-4.7198,1.6918-7.0756c0.6639-3.6832,1.7093-7.2832,3.31-10.6594c0.8627,0.0415,1.7506,0.116,2.6627,0.2157
		c4.7119-16.6403,9.5808-33.2306,14.1849-49.8955c11.1568-38.6226,22.1066-77.2949,33.1642-115.942
		c3.6417-12.8079,7.3166-25.6074,10.9745-38.4068c-0.3398-0.6304-1.0203-1.883-1.3605-2.5052
		c3.4428-8.6767,4.8447-17.9509,7.814-26.7686c1.8251-5.45,3.003-11.0908,4.9857-16.4907c1.9575-5.9063,3.5339-11.9452,4.579-18.067
		c0.6472-2.0242,1.2524-4.0482,1.8498-6.0721C783.0538,812.3088,774.8663,807.5307,766.1896,804.2625z"/>
</g>
</svg>
